<svg width="73" height="72" viewBox="0 0 73 72" fill="none" xmlns="http://www.w3.org/2000/svg">
<g filter="url(#filter0_d_1_265)">
<rect x="5" y="1.71143" width="63" height="60.5769" rx="10" fill="#0A2342"/>
</g>
<path d="M47.3281 22.9553C45.25 19.6639 42.5937 16.8694 40.2656 14.5561C40.0553 14.3423 39.7959 14.1824 39.5098 14.0902C39.2236 13.9979 38.9191 13.976 38.6226 14.0264C38.326 14.0768 38.0462 14.198 37.8071 14.3794C37.5681 14.5609 37.3769 14.7974 37.25 15.0684L32.7344 24.4768L28.2969 21.5425C27.8817 21.2692 27.3748 21.1697 26.8862 21.2657C26.3976 21.3616 25.9669 21.6452 25.6875 22.0549C22.5781 26.728 21 30.9664 21 34.677C21 38.6299 22.5804 42.4209 25.3934 45.216C28.2064 48.0111 32.0218 49.5814 36 49.5814C39.9782 49.5814 43.7936 48.0111 46.6066 45.216C49.4196 42.4209 51 38.6299 51 34.677C51 30.687 49.7969 26.8522 47.3281 22.9553ZM36 46.8378C33.0176 46.8337 30.0008 45.69 27.8919 43.5946C25.783 41.4991 23.842 38.4499 23.8378 35.4865C23.8378 32.9093 24.8549 28.7359 26.8862 25.3514L32.4531 28.7774C32.6767 28.926 32.9297 29.025 33.1952 29.0679C33.4607 29.1107 33.7323 29.0963 33.9917 29.0256C34.2511 28.9549 34.4921 28.8296 34.6984 28.6582C34.9047 28.4868 35.0715 28.2733 35.1875 28.0321L39.5098 18.4595C43.7441 22.9463 48.1622 28.5755 48.1622 34.677C48.158 37.6404 47.0278 41.0937 44.9189 43.1892C42.81 45.2846 38.9824 46.8337 36 46.8378Z" fill="white"/>
<path fill-rule="evenodd" clip-rule="evenodd" d="M45.3007 31.4419H42.6242C42.7197 32.024 42.7703 32.6207 42.7703 33.2331C42.7674 35.3249 41.9298 37.3303 40.4411 38.8094C39.4878 39.7566 38.3173 40.4386 37.0459 40.8073V43.5208C39.027 43.0992 40.8614 42.1178 42.3161 40.6724C44.3018 38.6994 45.4173 36.0234 45.4173 33.2331C45.4173 32.6316 45.3786 32.035 45.3007 31.4419Z" fill="#FD4561"/>
<defs>
<filter id="filter0_d_1_265" x="0" y="0.711426" width="73" height="70.5769" filterUnits="userSpaceOnUse" color-interpolation-filters="sRGB">
<feFlood flood-opacity="0" result="BackgroundImageFix"/>
<feColorMatrix in="SourceAlpha" type="matrix" values="0 0 0 0 0 0 0 0 0 0 0 0 0 0 0 0 0 0 127 0" result="hardAlpha"/>
<feOffset dy="4"/>
<feGaussianBlur stdDeviation="2.5"/>
<feComposite in2="hardAlpha" operator="out"/>
<feColorMatrix type="matrix" values="0 0 0 0 0 0 0 0 0 0 0 0 0 0 0 0 0 0 0.19 0"/>
<feBlend mode="normal" in2="BackgroundImageFix" result="effect1_dropShadow_1_265"/>
<feBlend mode="normal" in="SourceGraphic" in2="effect1_dropShadow_1_265" result="shape"/>
</filter>
</defs>
</svg>
