<svg width="20" height="21" viewBox="0 0 20 21" fill="none" xmlns="http://www.w3.org/2000/svg">
<path d="M5.30859 7.93736C1.90859 8.1794 1.91693 13.1121 5.30859 13.3541H13.3586C14.3336 13.3625 15.2753 12.9953 16.0003 12.3359C18.3836 10.2493 17.1086 6.0761 13.9669 5.67547C12.8419 -1.11847 3.01694 1.46057 5.34194 7.93736" stroke="#6E6E6E" stroke-width="1.5" stroke-miterlimit="10" stroke-linecap="round" stroke-linejoin="round"/>
<path d="M10 13.3541V15.858" stroke="#6E6E6E" stroke-width="1.5" stroke-miterlimit="10" stroke-linecap="round" stroke-linejoin="round"/>
<path d="M10.0007 19.1966C10.9211 19.1966 11.6673 18.4493 11.6673 17.5274C11.6673 16.6055 10.9211 15.8581 10.0007 15.8581C9.08018 15.8581 8.33398 16.6055 8.33398 17.5274C8.33398 18.4493 9.08018 19.1966 10.0007 19.1966Z" stroke="#6E6E6E" stroke-width="1.5" stroke-miterlimit="10" stroke-linecap="round" stroke-linejoin="round"/>
<path d="M14.9993 17.5274H11.666" stroke="#6E6E6E" stroke-width="1.5" stroke-miterlimit="10" stroke-linecap="round" stroke-linejoin="round"/>
<path d="M8.33333 17.5274H5" stroke="#6E6E6E" stroke-width="1.5" stroke-miterlimit="10" stroke-linecap="round" stroke-linejoin="round"/>
</svg>
