<svg width="140" height="73" viewBox="0 0 140 73" fill="none" xmlns="http://www.w3.org/2000/svg">
<g clip-path="url(#clip0_2789_7282)">
<g clip-path="url(#clip1_2789_7282)">
<g clip-path="url(#clip2_2789_7282)">
<path d="M140 71.6591C140 62.3356 138.19 53.1034 134.671 44.4897C131.153 35.876 125.997 28.0493 119.497 21.4566C112.998 14.8639 105.281 9.63432 96.7878 6.06643C88.2951 2.4985 79.1925 0.662108 70 0.662109C60.8075 0.662109 51.7049 2.4985 43.2122 6.06643C34.7194 9.63432 27.0026 14.8639 20.5026 21.4566C14.0024 28.0493 8.84626 35.876 5.32843 44.4897C1.8106 53.1034 -8.03636e-07 62.3356 0 71.6591H9.79672C9.79672 63.6405 11.3539 55.7004 14.3794 48.2921C17.4049 40.8839 21.8395 34.1527 27.4299 28.4827C33.0202 22.8127 39.657 18.3149 46.9612 15.2464C54.2654 12.1778 62.094 10.5984 70 10.5984C77.906 10.5984 85.7346 12.1778 93.0389 15.2464C100.343 18.3149 106.979 22.8127 112.57 28.4827C118.161 34.1527 122.595 40.8839 125.621 48.2921C128.646 55.7003 130.204 63.6405 130.204 71.6591H140Z" fill="url(#paint0_linear_2789_7282)"/>
</g>
</g>
</g>
<defs>
<linearGradient id="paint0_linear_2789_7282" x1="0" y1="71.6591" x2="134.684" y2="71.6591" gradientUnits="userSpaceOnUse">
<stop stop-color="#00A3FF"/>
<stop offset="1" stop-color="#FF4562"/>
</linearGradient>
<clipPath id="clip0_2789_7282">
<rect width="140" height="71.7721" fill="white" transform="translate(0 0.379883)"/>
</clipPath>
<clipPath id="clip1_2789_7282">
<rect width="140" height="71.7721" fill="white" transform="translate(0 0.379883)"/>
</clipPath>
<clipPath id="clip2_2789_7282">
<rect width="140" height="71.7721" fill="white" transform="translate(0 0.379883)"/>
</clipPath>
</defs>
</svg>
