<svg width="32" height="29" viewBox="0 0 32 29" fill="none" xmlns="http://www.w3.org/2000/svg">
<g clip-path="url(#clip0_133_91)">
<path d="M29.3333 3.55556H21.3333V8.88889H10.6667V3.55556H2.66667C1.19444 3.55556 0 4.75 0 6.22222V25.7778C0 27.25 1.19444 28.4444 2.66667 28.4444H29.3333C30.8056 28.4444 32 27.25 32 25.7778V6.22222C32 4.75 30.8056 3.55556 29.3333 3.55556ZM16 12.4444C17.9611 12.4444 19.5556 14.0389 19.5556 16C19.5556 17.9611 17.9611 19.5556 16 19.5556C14.0389 19.5556 12.4444 17.9611 12.4444 16C12.4444 14.0389 14.0389 12.4444 16 12.4444ZM21.1833 24.8889H10.8167C10.2389 24.8889 9.77222 24.3333 9.95 23.7889C10.4111 22.3667 11.75 21.3333 13.3333 21.3333H13.7889C14.4722 21.6167 15.2167 21.7778 16 21.7778C16.7833 21.7778 17.5333 21.6167 18.2111 21.3333H18.6667C20.2444 21.3333 21.5833 22.3611 22.05 23.7889C22.2278 24.3333 21.7611 24.8889 21.1833 24.8889ZM19.5556 1.77778C19.5556 0.794444 18.7611 0 17.7778 0H14.2222C13.2389 0 12.4444 0.794444 12.4444 1.77778V7.11111H19.5556V1.77778Z" fill="#2F90B0"/>
</g>
<defs>
<clipPath id="clip0_133_91">
<rect width="32" height="28.4444" fill="white"/>
</clipPath>
</defs>
</svg>
