<svg width="32" height="32" viewBox="0 0 32 32" fill="none" xmlns="http://www.w3.org/2000/svg">
<path d="M15.5728 2.13704L4.32448 5.72506C4.03979 5.81587 3.79135 5.99485 3.61505 6.23613C3.43876 6.47741 3.34375 6.7685 3.34375 7.06732V15.5144C3.34375 17.8423 3.97021 20.1272 5.15743 22.1296C6.34464 24.1319 8.04884 25.7778 10.0913 26.8947L15.3257 29.7571C15.5325 29.8701 15.7643 29.9294 16 29.9294C16.2356 29.9294 16.4675 29.8701 16.6742 29.7571L21.909 26.8947C23.9513 25.7779 25.6554 24.1321 26.8426 22.1299C28.0298 20.1277 28.6562 17.8429 28.6562 15.5152V7.06344C28.6563 6.76574 28.5616 6.47575 28.386 6.23537C28.2103 5.995 27.9628 5.81669 27.6792 5.72622L16.4272 2.13704C16.1493 2.04839 15.8507 2.04839 15.5728 2.13704ZM20.6535 16.7677C20.6678 16.7724 20.6827 16.7703 20.6967 16.7761L22.1073 17.3605L22.1781 17.1892C22.2091 17.1139 22.2546 17.0455 22.312 16.9878C22.3695 16.9301 22.4377 16.8843 22.5129 16.8531C22.5881 16.8218 22.6687 16.8057 22.7501 16.8056C22.8315 16.8055 22.9121 16.8215 22.9873 16.8527C23.0626 16.8838 23.1309 16.9295 23.1884 16.9871C23.246 17.0447 23.2916 17.1131 23.3227 17.1883C23.3537 17.2636 23.3696 17.3442 23.3695 17.4256C23.3694 17.507 23.3532 17.5876 23.3218 17.6627L23.0145 18.4047C23.0142 18.4051 23.0145 18.4056 23.0142 18.406L23.0134 18.4074L22.706 19.1492C22.6432 19.3009 22.5228 19.4214 22.3711 19.4842C22.2195 19.5471 22.0491 19.5471 21.8974 19.4843C21.7458 19.4215 21.6253 19.301 21.5624 19.1494C21.4996 18.9978 21.4996 18.8274 21.5624 18.6757L21.6335 18.504L20.2231 17.9198C20.2088 17.9139 20.2001 17.902 20.1866 17.8952C19.7608 18.6425 19.142 19.2615 18.395 19.6877C18.4016 19.701 18.4134 19.7098 18.4192 19.7238L19.0034 21.1341L19.175 21.063C19.2501 21.0319 19.3306 21.0159 19.4119 21.0159C19.4932 21.0159 19.5736 21.032 19.6487 21.0631C19.7238 21.0942 19.792 21.1398 19.8495 21.1973C19.907 21.2548 19.9525 21.323 19.9836 21.3981C20.0147 21.4732 20.0307 21.5537 20.0307 21.6349C20.0307 21.7162 20.0147 21.7967 19.9836 21.8718C19.9524 21.9469 19.9068 22.0151 19.8494 22.0726C19.7919 22.13 19.7236 22.1756 19.6485 22.2067L18.9064 22.5142C18.9059 22.5143 18.9059 22.5147 18.9053 22.5149C18.9049 22.5149 18.9044 22.515 18.9039 22.5152L18.1621 22.8225C18.0105 22.885 17.8403 22.8847 17.6888 22.8218C17.5374 22.7589 17.4171 22.6385 17.3544 22.487C17.2917 22.3355 17.2916 22.1653 17.3543 22.0138C17.4169 21.8623 17.5372 21.7418 17.6886 21.6788L17.8597 21.6079L17.2755 20.1973C17.2697 20.1834 17.2719 20.1689 17.2672 20.1549C16.4377 20.3818 15.5624 20.3816 14.733 20.1542C14.7283 20.1685 14.7302 20.1832 14.7244 20.1973L14.1402 21.6077L14.3119 21.6788C14.3876 21.7095 14.4566 21.7548 14.5147 21.8122C14.5729 21.8696 14.619 21.9379 14.6506 22.0133C14.6822 22.0886 14.6986 22.1695 14.6988 22.2512C14.6989 22.3329 14.683 22.4138 14.6517 22.4893C14.6204 22.5648 14.5746 22.6334 14.5167 22.691C14.4588 22.7487 14.3901 22.7943 14.3145 22.8253C14.2389 22.8563 14.1579 22.872 14.0762 22.8715C13.9945 22.871 13.9137 22.8543 13.8384 22.8225L13.0966 22.5153C13.0957 22.515 13.0952 22.5151 13.0946 22.5149C13.0941 22.5146 13.0938 22.5141 13.093 22.5139L12.3514 22.2067C12.1998 22.1439 12.0792 22.0234 12.0164 21.8718C11.9536 21.7201 11.9535 21.5498 12.0163 21.3981C12.0791 21.2464 12.1996 21.1259 12.3512 21.0631C12.5029 21.0002 12.6733 21.0002 12.8249 21.063L12.9966 21.1341L13.5808 19.7238C13.5868 19.7096 13.5986 19.7007 13.6055 19.6871C12.8582 19.2614 12.2391 18.6426 11.8131 17.8954C11.7997 17.9021 11.7909 17.914 11.7769 17.9198L10.3665 18.5042L10.4376 18.6757C10.4687 18.7508 10.4847 18.8313 10.4847 18.9125C10.4847 18.9938 10.4687 19.0743 10.4376 19.1494C10.4064 19.2245 10.3608 19.2927 10.3034 19.3501C10.2459 19.4076 10.1777 19.4532 10.1026 19.4843C10.0275 19.5154 9.94698 19.5314 9.8657 19.5313C9.78442 19.5313 9.70395 19.5153 9.62886 19.4842C9.55378 19.4531 9.48555 19.4075 9.42809 19.35C9.37063 19.2925 9.32505 19.2243 9.29396 19.1492L8.67818 17.6627C8.64685 17.5876 8.63064 17.507 8.6305 17.4256C8.63036 17.3442 8.64628 17.2636 8.67735 17.1883C8.70842 17.1131 8.75403 17.0447 8.81157 16.9871C8.8691 16.9295 8.93744 16.8838 9.01266 16.8527C9.08788 16.8215 9.1685 16.8055 9.24991 16.8056C9.33132 16.8057 9.41192 16.8218 9.48709 16.8531C9.56225 16.8843 9.63052 16.9301 9.68796 16.9878C9.74541 17.0455 9.79091 17.1139 9.82186 17.1892L9.89272 17.3606L11.3033 16.7761C11.3173 16.7704 11.3319 16.7726 11.3462 16.7679C11.1192 15.9384 11.1194 15.0632 11.3467 14.2338C11.3325 14.229 11.3176 14.231 11.3033 14.2251L9.89297 13.6411L9.82184 13.8126C9.79084 13.8878 9.74531 13.9562 9.68786 14.0138C9.6304 14.0714 9.56216 14.1171 9.48702 14.1483C9.41188 14.1795 9.33133 14.1956 9.24996 14.1957C9.1686 14.1957 9.08803 14.1797 9.01285 14.1486C8.93768 14.1175 8.86938 14.0718 8.81186 14.0143C8.75435 13.9567 8.70874 13.8884 8.67765 13.8132C8.64657 13.738 8.63061 13.6575 8.6307 13.5761C8.63079 13.4947 8.64691 13.4142 8.67816 13.3391L9.29394 11.8521C9.32504 11.777 9.37061 11.7087 9.42808 11.6513C9.48554 11.5938 9.55376 11.5482 9.62885 11.5171C9.70393 11.4859 9.78441 11.4699 9.86569 11.4699C9.94697 11.4699 10.0275 11.4859 10.1025 11.517C10.1776 11.5481 10.2459 11.5937 10.3034 11.6511C10.3608 11.7086 10.4064 11.7768 10.4376 11.8519C10.4687 11.927 10.4847 12.0075 10.4847 12.0887C10.4847 12.17 10.4687 12.2505 10.4376 12.3256L10.3665 12.4974L11.7769 13.0815C11.7911 13.0874 11.8002 13.0994 11.8137 13.1062C12.239 12.3597 12.8571 11.741 13.6033 11.315C13.5967 11.3017 13.5866 11.2914 13.5808 11.2775L12.9964 9.86726L12.825 9.93826C12.7498 9.9695 12.6693 9.98563 12.5879 9.98572C12.5066 9.98581 12.426 9.96985 12.3508 9.93877C12.2756 9.90768 12.2073 9.86207 12.1497 9.80456C12.0922 9.74704 12.0466 9.67874 12.0154 9.60356C11.9843 9.52839 11.9683 9.44782 11.9684 9.36646C11.9684 9.28509 11.9845 9.20454 12.0157 9.1294C12.0469 9.05426 12.0926 8.98601 12.1502 8.92856C12.2079 8.87111 12.2762 8.82558 12.3515 8.79458L13.8385 8.1788C13.9901 8.11632 14.1603 8.11656 14.3117 8.17946C14.4631 8.24236 14.5834 8.36277 14.6461 8.51427C14.7088 8.66577 14.7089 8.83597 14.6462 8.9875C14.5836 9.13903 14.4634 9.2595 14.312 9.32247L14.14 9.39361L14.7245 10.804C14.7303 10.818 14.7281 10.8327 14.7327 10.8468C15.5623 10.6199 16.4376 10.6201 17.267 10.8475C17.2717 10.8331 17.2695 10.8183 17.2755 10.804L17.86 9.39347L17.6886 9.32247C17.6134 9.29147 17.545 9.24594 17.4874 9.18849C17.4298 9.13104 17.3841 9.06279 17.3529 8.98765C17.3217 8.91251 17.3056 8.83196 17.3055 8.7506C17.3055 8.66923 17.3215 8.58866 17.3526 8.51349C17.3837 8.43831 17.4294 8.37001 17.4869 8.31249C17.5444 8.25498 17.6128 8.20937 17.688 8.17829C17.7631 8.1472 17.8437 8.13124 17.9251 8.13133C18.0065 8.13142 18.087 8.14755 18.1621 8.17879L19.6486 8.79458C19.7238 8.82558 19.7922 8.8711 19.8498 8.92856C19.9074 8.98601 19.9531 9.05425 19.9843 9.12939C20.0155 9.20453 20.0316 9.28509 20.0317 9.36645C20.0317 9.44781 20.0157 9.52838 19.9846 9.60356C19.9535 9.67873 19.9078 9.74703 19.8503 9.80455C19.7927 9.86207 19.7244 9.90767 19.6492 9.93876C19.574 9.96985 19.4935 9.9858 19.4121 9.98571C19.3307 9.98563 19.2502 9.9695 19.1751 9.93825L19.0037 9.86726L18.4192 11.2775C18.4134 11.2916 18.403 11.302 18.3961 11.3154C19.1426 11.7411 19.7611 12.3594 20.1869 13.1058C20.2003 13.0992 20.2091 13.0872 20.2231 13.0814L21.6335 12.4975L21.5624 12.3256C21.4996 12.1739 21.4996 12.0035 21.5624 11.8519C21.6253 11.7002 21.7458 11.5798 21.8974 11.517C22.0491 11.4542 22.2195 11.4542 22.3711 11.5171C22.5228 11.5799 22.6432 11.7004 22.706 11.8521L23.0137 12.5952C23.0139 12.5954 23.0142 12.5956 23.0142 12.5959V12.5965L23.3218 13.3391C23.3531 13.4142 23.3692 13.4947 23.3693 13.5761C23.3694 13.6575 23.3534 13.7381 23.3223 13.8132C23.2912 13.8884 23.2456 13.9568 23.1881 14.0143C23.1306 14.0718 23.0623 14.1175 22.9871 14.1486C22.912 14.1797 22.8314 14.1957 22.75 14.1957C22.6687 14.1956 22.5881 14.1795 22.513 14.1483C22.4378 14.1171 22.3696 14.0714 22.3121 14.0138C22.2547 13.9562 22.2091 13.8878 22.1781 13.8126L22.1073 13.6412L20.6967 14.2251C20.6827 14.2309 20.6681 14.229 20.6541 14.2336C20.8809 15.0631 20.8808 15.9383 20.6535 16.7677Z" fill="#2F90B0"/>
</svg>
