<svg width="73" height="71" viewBox="0 0 73 71" fill="none" xmlns="http://www.w3.org/2000/svg">
<g filter="url(#filter0_d_121_4)">
<rect x="5" y="1" width="63" height="60.5769" rx="10" fill="#0A2342"/>
</g>
<path d="M24.5 23.6154C24.5 23.289 24.6317 22.9759 24.8661 22.7451C25.1005 22.5143 25.4185 22.3846 25.75 22.3846H43.25C43.5815 22.3846 43.8995 22.5143 44.1339 22.7451C44.3683 22.9759 44.5 23.289 44.5 23.6154C44.5 23.9418 44.3683 24.2549 44.1339 24.4857C43.8995 24.7165 43.5815 24.8462 43.25 24.8462H25.75C25.4185 24.8462 25.1005 24.7165 24.8661 24.4857C24.6317 24.2549 24.5 23.9418 24.5 23.6154ZM38.25 29.7692C37.9185 29.7692 37.6005 29.8989 37.3661 30.1297C37.1317 30.3605 37 30.6736 37 31C37 31.3264 37.1317 31.6395 37.3661 31.8703C37.6005 32.1011 37.9185 32.2308 38.25 32.2308H43.25C43.5815 32.2308 43.8995 32.1011 44.1339 31.8703C44.3683 31.6395 44.5 31.3264 44.5 31C44.5 30.6736 44.3683 30.3605 44.1339 30.1297C43.8995 29.8989 43.5815 29.7692 43.25 29.7692H38.25ZM37 38.3846C37 38.0582 37.1317 37.7451 37.3661 37.5143C37.6005 37.2835 37.9185 37.1538 38.25 37.1538H43.25C43.5815 37.1538 43.8995 37.2835 44.1339 37.5143C44.3683 37.7451 44.5 38.0582 44.5 38.3846C44.5 38.711 44.3683 39.0241 44.1339 39.2549C43.8995 39.4857 43.5815 39.6154 43.25 39.6154H38.25C37.9185 39.6154 37.6005 39.4857 37.3661 39.2549C37.1317 39.0241 37 38.711 37 38.3846ZM17 19.9231C17 18.6174 17.5268 17.3652 18.4645 16.4419C19.4021 15.5187 20.6739 15 22 15H47C48.3261 15 49.5979 15.5187 50.5355 16.4419C51.4732 17.3652 52 18.6174 52 19.9231V22.3846C53.3261 22.3846 54.5979 22.9033 55.5355 23.8266C56.4732 24.7498 57 26.002 57 27.3077V40.8462C57 42.4783 56.3415 44.0435 55.1694 45.1976C53.9973 46.3517 52.4076 47 50.75 47H23.25C21.5924 47 20.0027 46.3517 18.8306 45.1976C17.6585 44.0435 17 42.4783 17 40.8462V19.9231ZM49.5 19.9231C49.5 19.2702 49.2366 18.6441 48.7678 18.1825C48.2989 17.7209 47.663 17.4615 47 17.4615H22C21.337 17.4615 20.7011 17.7209 20.2322 18.1825C19.7634 18.6441 19.5 19.2702 19.5 19.9231V40.8462C19.5 41.8254 19.8951 42.7646 20.5984 43.457C21.3016 44.1495 22.2554 44.5385 23.25 44.5385H50.75C51.7446 44.5385 52.6984 44.1495 53.4016 43.457C54.1049 42.7646 54.5 41.8254 54.5 40.8462V27.3077C54.5 26.6549 54.2366 26.0288 53.7678 25.5671C53.2989 25.1055 52.663 24.8462 52 24.8462V40.8462C52 41.1726 51.8683 41.4856 51.6339 41.7164C51.3995 41.9473 51.0815 42.0769 50.75 42.0769C50.4185 42.0769 50.1005 41.9473 49.8661 41.7164C49.6317 41.4856 49.5 41.1726 49.5 40.8462V19.9231Z" fill="white"/>
<rect x="24.2725" y="29.5459" width="10.1818" height="10.1818" rx="2" fill="#2F90B0"/>
<defs>
<filter id="filter0_d_121_4" x="0" y="0" width="73" height="70.5769" filterUnits="userSpaceOnUse" color-interpolation-filters="sRGB">
<feFlood flood-opacity="0" result="BackgroundImageFix"/>
<feColorMatrix in="SourceAlpha" type="matrix" values="0 0 0 0 0 0 0 0 0 0 0 0 0 0 0 0 0 0 127 0" result="hardAlpha"/>
<feOffset dy="4"/>
<feGaussianBlur stdDeviation="2.5"/>
<feComposite in2="hardAlpha" operator="out"/>
<feColorMatrix type="matrix" values="0 0 0 0 0 0 0 0 0 0 0 0 0 0 0 0 0 0 0.19 0"/>
<feBlend mode="normal" in2="BackgroundImageFix" result="effect1_dropShadow_121_4"/>
<feBlend mode="normal" in="SourceGraphic" in2="effect1_dropShadow_121_4" result="shape"/>
</filter>
</defs>
</svg>
