<svg width="308" height="194" viewBox="0 0 308 194" fill="none" xmlns="http://www.w3.org/2000/svg">
<path d="M59.5261 87.0403C58.6761 87.0403 57.861 87.3779 57.2599 87.9789C56.6589 88.58 56.3213 89.3951 56.3213 90.2451C56.3213 91.095 56.6589 91.9102 57.2599 92.5112C57.861 93.1122 58.6761 93.4499 59.5261 93.4499H99.8103V92.0518C99.8102 91.0582 100.057 90.0801 100.528 89.2054C100.999 88.3307 101.68 87.5867 102.51 87.0403H59.5261Z" fill="#E6E6E6"/>
<path d="M96.1816 79.8296H82.5612C81.7113 79.8296 80.8961 79.492 80.2951 78.891C79.6941 78.2899 79.3564 77.4748 79.3564 76.6248C79.3564 75.7749 79.6941 74.9597 80.2951 74.3587C80.8961 73.7577 81.7113 73.42 82.5612 73.42H96.1816C97.0316 73.42 97.8467 73.7577 98.4477 74.3587C99.0487 74.9597 99.3864 75.7749 99.3864 76.6248C99.3864 77.4748 99.0487 78.2899 98.4477 78.891C97.8467 79.492 97.0316 79.8296 96.1816 79.8296Z" fill="#E6E6E6"/>
<path d="M65.6346 56.9956H12.7556C11.9056 56.9956 11.0905 56.6579 10.4894 56.0569C9.88843 55.4559 9.55078 54.6408 9.55078 53.7908C9.55078 52.9408 9.88843 52.1257 10.4894 51.5247C11.0905 50.9236 11.9056 50.586 12.7556 50.586H65.6346C66.4846 50.586 67.2997 50.9236 67.9007 51.5247C68.5018 52.1257 68.8394 52.9408 68.8394 53.7908C68.8394 54.6408 68.5018 55.4559 67.9007 56.0569C67.2997 56.6579 66.4846 56.9956 65.6346 56.9956Z" fill="#E6E6E6"/>
<path d="M42.599 43.3749H35.7888C34.9388 43.3749 34.1237 43.0372 33.5226 42.4362C32.9216 41.8352 32.584 41.02 32.584 40.1701C32.584 39.3201 32.9216 38.5049 33.5226 37.9039C34.1237 37.3029 34.9388 36.9653 35.7888 36.9653H42.599C43.4489 36.9653 44.2641 37.3029 44.8651 37.9039C45.4661 38.5049 45.8037 39.3201 45.8037 40.1701C45.8037 41.02 45.4661 41.8352 44.8651 42.4362C44.2641 43.0372 43.4489 43.3749 42.599 43.3749Z" fill="#E6E6E6"/>
<path d="M99.407 151.494H49.5572C47.7517 151.492 46.0207 150.774 44.744 149.497C43.4673 148.221 42.7491 146.49 42.7471 144.684V65.8303C42.7491 64.0248 43.4673 62.2938 44.744 61.017C46.0207 59.7403 47.7517 59.0222 49.5572 59.0201H129.186C130.991 59.0222 132.722 59.7403 133.999 61.017C135.276 62.2938 135.994 64.0248 135.996 65.8303V85.3746H135.195V65.8303C135.193 64.2372 134.559 62.7098 133.433 61.5833C132.306 60.4568 130.779 59.8231 129.186 59.8213H49.5573C47.9641 59.8231 46.4368 60.4568 45.3103 61.5833C44.1837 62.7098 43.5501 64.2372 43.5483 65.8303V144.684C43.5501 146.277 44.1837 147.805 45.3103 148.931C46.4368 150.058 47.9641 150.691 49.5573 150.693H99.407V151.494Z" fill="#CCCCCC"/>
<path d="M43.1482 104.289H6.81018C5.00463 104.287 3.27362 103.569 1.99691 102.293C0.72019 101.016 0.00203258 99.2849 0 97.4793V33.36C0.00203258 31.5545 0.72019 29.8235 1.99691 28.5468C3.27362 27.27 5.00463 26.5519 6.81018 26.5499H71.5795C73.3851 26.5519 75.1161 27.27 76.3928 28.5468C77.6695 29.8235 78.3877 31.5545 78.3897 33.36V59.4209H77.5885V33.36C77.5867 31.7669 76.953 30.2396 75.8265 29.113C74.7 27.9865 73.1727 27.3529 71.5795 27.3511H6.81018C5.21705 27.3529 3.68969 27.9865 2.56318 29.113C1.43667 30.2396 0.803 31.7669 0.801197 33.36V97.4793C0.803 99.0724 1.43667 100.6 2.56318 101.726C3.68969 102.853 5.21705 103.486 6.81018 103.488H43.1482V104.289Z" fill="#CCCCCC"/>
<path d="M205.344 87.0403C206.174 87.5867 206.855 88.3307 207.326 89.2054C207.797 90.0801 208.044 91.0582 208.044 92.0518V93.4499H248.328C249.178 93.4499 249.993 93.1122 250.594 92.5112C251.195 91.9102 251.533 91.095 251.533 90.2451C251.533 89.3951 251.195 88.58 250.594 87.9789C249.993 87.3779 249.178 87.0403 248.328 87.0403H205.344Z" fill="#E6E6E6"/>
<path d="M208.466 76.6248C208.467 75.7752 208.805 74.9606 209.406 74.3598C210.006 73.759 210.821 73.421 211.671 73.42H225.291C226.141 73.42 226.956 73.7577 227.557 74.3587C228.158 74.9597 228.496 75.7749 228.496 76.6248C228.496 77.4748 228.158 78.2899 227.557 78.891C226.956 79.492 226.141 79.8296 225.291 79.8296H211.671C210.821 79.8287 210.006 79.4907 209.406 78.8899C208.805 78.2891 208.467 77.4745 208.466 76.6248Z" fill="#E6E6E6"/>
<path d="M239.014 53.7908C239.015 52.9411 239.353 52.1265 239.953 51.5257C240.554 50.9249 241.369 50.587 242.218 50.586H295.097C295.947 50.586 296.763 50.9236 297.364 51.5247C297.965 52.1257 298.302 52.9408 298.302 53.7908C298.302 54.6408 297.965 55.4559 297.364 56.0569C296.763 56.6579 295.947 56.9956 295.097 56.9956H242.218C241.369 56.9946 240.554 56.6566 239.953 56.0558C239.353 55.455 239.015 54.6405 239.014 53.7908Z" fill="#E6E6E6"/>
<path d="M262.05 40.1701C262.051 39.3204 262.389 38.5058 262.99 37.905C263.59 37.3042 264.405 36.9662 265.255 36.9653H272.065C272.915 36.9653 273.73 37.3029 274.331 37.9039C274.932 38.5049 275.27 39.3201 275.27 40.1701C275.27 41.02 274.932 41.8352 274.331 42.4362C273.73 43.0372 272.915 43.3749 272.065 43.3749H265.255C264.405 43.3739 263.59 43.0359 262.99 42.4351C262.389 41.8343 262.051 41.0197 262.05 40.1701Z" fill="#E6E6E6"/>
<path d="M208.444 151.494H258.294C260.1 151.492 261.831 150.774 263.107 149.497C264.384 148.221 265.102 146.49 265.104 144.684V65.8303C265.102 64.0248 264.384 62.2938 263.107 61.017C261.831 59.7403 260.1 59.0222 258.294 59.0201H178.666C176.86 59.0222 175.129 59.7403 173.852 61.017C172.576 62.2938 171.858 64.0248 171.855 65.8303V85.3746H172.657V65.8303C172.658 64.2372 173.292 62.7098 174.419 61.5833C175.545 60.4568 177.073 59.8231 178.666 59.8213H258.294C259.887 59.8231 261.415 60.4568 262.541 61.5833C263.668 62.7098 264.301 64.2372 264.303 65.8303V144.684C264.301 146.277 263.668 147.805 262.541 148.931C261.415 150.058 259.887 150.691 258.294 150.693H208.444V151.494Z" fill="#CCCCCC"/>
<path d="M264.705 104.289H301.043C302.849 104.287 304.58 103.569 305.857 102.293C307.133 101.016 307.852 99.2849 307.854 97.4793V33.36C307.852 31.5545 307.133 29.8235 305.857 28.5468C304.58 27.27 302.849 26.5519 301.043 26.5499H236.274C234.468 26.5519 232.737 27.27 231.461 28.5468C230.184 29.8235 229.466 31.5545 229.464 33.36V59.4209H230.265V33.36C230.267 31.7669 230.901 30.2396 232.027 29.113C233.154 27.9865 234.681 27.3529 236.274 27.3511H301.043C302.637 27.3529 304.164 27.9865 305.29 29.113C306.417 30.2396 307.051 31.7669 307.052 33.36V97.4793C307.051 99.0724 306.417 100.6 305.29 101.726C304.164 102.853 302.637 103.486 301.043 103.488H264.705V104.289Z" fill="#CCCCCC"/>
<path d="M201.865 85.2415H105.818C104.013 85.245 102.283 85.9637 101.006 87.2401C99.7301 88.5165 99.0114 90.2466 99.0078 92.0516V187.19C99.0097 188.995 99.7278 190.727 101.005 192.003C102.281 193.28 104.012 193.998 105.818 194H201.865C203.671 193.998 205.402 193.28 206.679 192.003C207.956 190.727 208.674 188.995 208.676 187.19V92.0516C208.674 90.246 207.956 88.5149 206.679 87.2382C205.402 85.9615 203.671 85.2433 201.865 85.2415ZM207.874 187.19C207.872 188.783 207.239 190.31 206.112 191.437C204.986 192.563 203.459 193.197 201.865 193.199H105.818C104.225 193.197 102.698 192.563 101.571 191.437C100.445 190.31 99.8109 188.783 99.809 187.19V92.0516C99.8115 90.4587 100.445 88.9317 101.572 87.8054C102.698 86.679 104.225 86.0451 105.818 86.0427H201.865C203.459 86.0446 204.986 86.6783 206.112 87.8048C207.239 88.9313 207.872 90.4585 207.874 92.0516V187.19Z" fill="#2F90B0"/>
<path d="M194.303 122.293H113.383C112.533 122.293 111.717 121.955 111.116 121.354C110.515 120.753 110.178 119.938 110.178 119.088C110.178 118.238 110.515 117.423 111.116 116.822C111.717 116.221 112.533 115.883 113.383 115.883H194.303C195.153 115.883 195.969 116.221 196.57 116.822C197.171 117.423 197.508 118.238 197.508 119.088C197.508 119.938 197.171 120.753 196.57 121.354C195.969 121.955 195.153 122.293 194.303 122.293Z" fill="#CCCCCC"/>
<path d="M171.269 108.672H136.417C135.567 108.672 134.752 108.335 134.151 107.734C133.55 107.133 133.212 106.318 133.212 105.468C133.212 104.618 133.55 103.802 134.151 103.201C134.752 102.6 135.567 102.263 136.417 102.263H171.269C172.119 102.263 172.934 102.6 173.535 103.201C174.136 103.802 174.474 104.618 174.474 105.468C174.474 106.318 174.136 107.133 173.535 107.734C172.934 108.335 172.119 108.672 171.269 108.672Z" fill="#2F90B0"/>
<path d="M148.033 141.522H113.181C112.331 141.522 111.516 141.184 110.915 140.583C110.314 139.982 109.977 139.167 109.977 138.317C109.977 137.467 110.314 136.652 110.915 136.051C111.516 135.45 112.331 135.112 113.181 135.112H148.033C148.883 135.112 149.699 135.45 150.3 136.051C150.901 136.652 151.238 137.467 151.238 138.317C151.238 139.167 150.901 139.982 150.3 140.583C149.699 141.184 148.883 141.522 148.033 141.522Z" fill="#CCCCCC"/>
<path d="M148.033 155.543H113.181C112.331 155.543 111.516 155.205 110.915 154.604C110.314 154.003 109.977 153.188 109.977 152.338C109.977 151.488 110.314 150.673 110.915 150.072C111.516 149.471 112.331 149.133 113.181 149.133H148.033C148.883 149.133 149.699 149.471 150.3 150.072C150.901 150.673 151.238 151.488 151.238 152.338C151.238 153.188 150.901 154.003 150.3 154.604C149.699 155.205 148.883 155.543 148.033 155.543Z" fill="#CCCCCC"/>
<path d="M148.033 169.564H113.181C112.331 169.564 111.516 169.226 110.915 168.625C110.314 168.024 109.977 167.209 109.977 166.359C109.977 165.509 110.314 164.694 110.915 164.093C111.516 163.492 112.331 163.154 113.181 163.154H148.033C148.883 163.154 149.699 163.492 150.3 164.093C150.901 164.694 151.238 165.509 151.238 166.359C151.238 167.209 150.901 168.024 150.3 168.625C149.699 169.226 148.883 169.564 148.033 169.564Z" fill="#CCCCCC"/>
<path d="M191.501 144.269C194.804 144.269 197.482 141.592 197.482 138.289C197.482 134.986 194.804 132.308 191.501 132.308C188.198 132.308 185.521 134.986 185.521 138.289C185.521 141.592 188.198 144.269 191.501 144.269Z" fill="#2F90B0"/>
<path d="M190.909 140.57C190.774 140.57 190.643 140.527 190.536 140.446L190.529 140.441L189.123 139.366C188.992 139.265 188.906 139.116 188.884 138.952C188.863 138.788 188.907 138.621 189.008 138.49C189.109 138.359 189.257 138.272 189.422 138.251C189.586 138.229 189.752 138.274 189.884 138.374L190.794 139.072L192.945 136.266C192.995 136.201 193.057 136.146 193.128 136.105C193.199 136.064 193.278 136.037 193.359 136.027C193.44 136.016 193.523 136.021 193.602 136.043C193.681 136.064 193.755 136.1 193.821 136.15L193.821 136.15L193.807 136.169L193.821 136.15C193.952 136.251 194.038 136.4 194.06 136.564C194.082 136.728 194.037 136.894 193.937 137.026L191.406 140.326C191.348 140.402 191.272 140.463 191.186 140.505C191.1 140.548 191.005 140.569 190.909 140.569L190.909 140.57Z" fill="white"/>
<path d="M39.1951 18.5915C37.3566 18.5915 35.5594 18.0463 34.0307 17.0248C32.502 16.0034 31.3106 14.5516 30.607 12.853C29.9034 11.1544 29.7194 9.28539 30.078 7.4822C30.4367 5.679 31.3221 4.02267 32.6221 2.72264C33.9221 1.42262 35.5785 0.53729 37.3817 0.178616C39.1849 -0.180058 41.0539 0.00402886 42.7525 0.707602C44.4511 1.41118 45.9028 2.60263 46.9243 4.13131C47.9457 5.65998 48.4909 7.45721 48.4909 9.29573C48.4881 11.7603 47.5078 14.123 45.7651 15.8657C44.0224 17.6084 41.6596 18.5887 39.1951 18.5915ZM39.1951 0.801202C37.515 0.801211 35.8727 1.29942 34.4758 2.23281C33.0789 3.16621 31.9901 4.49288 31.3472 6.04505C30.7043 7.59722 30.5361 9.30519 30.8638 10.953C31.1916 12.6007 32.0006 14.1143 33.1886 15.3023C34.3766 16.4903 35.8902 17.2993 37.538 17.627C39.1857 17.9548 40.8937 17.7866 42.4459 17.1437C43.998 16.5007 45.3247 15.412 46.2581 14.015C47.1915 12.6181 47.6897 10.9758 47.6897 9.29573C47.6871 7.04362 46.7914 4.88447 45.1989 3.29199C43.6064 1.69951 41.4472 0.803737 39.1951 0.801202Z" fill="#CCCCCC"/>
<path d="M38.3132 12.6891C38.113 12.6895 37.9182 12.6247 37.7581 12.5047L37.7482 12.4972L35.6577 10.8981C35.5609 10.8238 35.4797 10.7313 35.4186 10.6256C35.3576 10.52 35.3179 10.4034 35.3019 10.2824C35.286 10.1615 35.294 10.0386 35.3255 9.92074C35.357 9.80288 35.4115 9.69239 35.4857 9.59557C35.5599 9.49875 35.6525 9.4175 35.7581 9.35645C35.8637 9.29541 35.9803 9.25577 36.1013 9.23979C36.2222 9.22382 36.3451 9.23182 36.463 9.26334C36.5808 9.29487 36.6913 9.3493 36.7882 9.42353L38.1422 10.4619L41.3419 6.28752C41.4161 6.19074 41.5086 6.10952 41.6142 6.0485C41.7198 5.98748 41.8364 5.94785 41.9573 5.93189C42.0782 5.91592 42.201 5.92392 42.3188 5.95543C42.4366 5.98694 42.5471 6.04135 42.6438 6.11555L42.6441 6.11576L42.6243 6.14333L42.6447 6.11576C42.8399 6.26581 42.9676 6.4872 42.9999 6.73134C43.0321 6.97547 42.9661 7.22241 42.8164 7.41796L39.0529 12.3257C38.9658 12.4388 38.8539 12.5303 38.7257 12.5931C38.5976 12.656 38.4567 12.6884 38.314 12.688L38.3132 12.6891Z" fill="#CCCCCC"/>
<path d="M98.1609 51.0398C96.3224 51.0398 94.5251 50.4946 92.9965 49.4732C91.4678 48.4517 90.2764 46.9999 89.5728 45.3014C88.8692 43.6028 88.6852 41.7337 89.0439 39.9305C89.4026 38.1273 90.2879 36.471 91.5879 35.171C92.888 33.871 94.5443 32.9856 96.3475 32.627C98.1507 32.2683 100.02 32.4524 101.718 33.156C103.417 33.8595 104.869 35.051 105.89 36.5797C106.912 38.1084 107.457 39.9056 107.457 41.7441C107.454 44.2086 106.474 46.5714 104.731 48.3141C102.988 50.0568 100.625 51.0371 98.1609 51.0398ZM98.1609 33.2496C96.4808 33.2496 94.8385 33.7478 93.4416 34.6812C92.0447 35.6146 90.9559 36.9413 90.313 38.4934C89.6701 40.0456 89.5019 41.7536 89.8297 43.4014C90.1574 45.0491 90.9665 46.5627 92.1545 47.7507C93.3424 48.9386 94.856 49.7477 96.5038 50.0754C98.1516 50.4032 99.8595 50.2349 101.412 49.592C102.964 48.9491 104.291 47.8603 105.224 46.4634C106.157 45.0665 106.656 43.4242 106.656 41.7441C106.653 39.492 105.757 37.3328 104.165 35.7403C102.572 34.1478 100.413 33.2521 98.1609 33.2496Z" fill="#CCCCCC"/>
<path d="M97.279 45.1375C97.0789 45.1378 96.8841 45.0731 96.724 44.953L96.714 44.9456L94.6235 43.3464C94.428 43.1965 94.3 42.9751 94.2678 42.7308C94.2355 42.4865 94.3016 42.2395 94.4515 42.0439C94.6014 41.8484 94.8228 41.7204 95.0671 41.6882C95.3114 41.6559 95.5585 41.722 95.754 41.8719L97.108 42.9102L100.308 38.7359C100.382 38.6391 100.474 38.5579 100.58 38.4969C100.686 38.4358 100.802 38.3962 100.923 38.3802C101.044 38.3643 101.167 38.3723 101.285 38.4038C101.402 38.4353 101.513 38.4897 101.61 38.5639L101.61 38.5641L101.59 38.5917L101.61 38.5641C101.806 38.7142 101.933 38.9356 101.966 39.1797C101.998 39.4238 101.932 39.6708 101.782 39.8663L98.0187 44.7741C97.9316 44.8872 97.8197 44.9787 97.6916 45.0415C97.5634 45.1043 97.4225 45.1368 97.2798 45.1364L97.279 45.1375Z" fill="#CCCCCC"/>
<path d="M191.501 158.29C194.804 158.29 197.482 155.612 197.482 152.309C197.482 149.006 194.804 146.329 191.501 146.329C188.198 146.329 185.521 149.006 185.521 152.309C185.521 155.612 188.198 158.29 191.501 158.29Z" fill="#2F90B0"/>
<path d="M190.909 154.591C190.774 154.591 190.643 154.548 190.536 154.467L190.529 154.462L189.123 153.387C189.058 153.337 189.004 153.275 188.963 153.204C188.922 153.133 188.895 153.054 188.884 152.973C188.874 152.891 188.879 152.809 188.9 152.73C188.921 152.65 188.958 152.576 189.008 152.511C189.058 152.446 189.12 152.391 189.191 152.35C189.262 152.309 189.34 152.283 189.422 152.272C189.503 152.261 189.586 152.266 189.665 152.288C189.744 152.309 189.818 152.345 189.884 152.395L190.794 153.093L192.945 150.287C192.995 150.222 193.057 150.167 193.128 150.126C193.199 150.085 193.278 150.058 193.359 150.048C193.44 150.037 193.523 150.042 193.602 150.064C193.681 150.085 193.755 150.121 193.821 150.171L193.821 150.171L193.807 150.19L193.821 150.171C193.952 150.272 194.038 150.421 194.06 150.585C194.082 150.749 194.037 150.915 193.937 151.047L191.406 154.347C191.348 154.423 191.272 154.484 191.186 154.526C191.1 154.569 191.005 154.59 190.909 154.59L190.909 154.591Z" fill="white"/>
<path d="M191.501 172.339C194.804 172.339 197.482 169.662 197.482 166.359C197.482 163.056 194.804 160.378 191.501 160.378C188.198 160.378 185.521 163.056 185.521 166.359C185.521 169.662 188.198 172.339 191.501 172.339Z" fill="#2F90B0"/>
<path d="M190.908 168.64C190.774 168.641 190.643 168.597 190.535 168.516L190.528 168.511L189.123 167.436C188.992 167.335 188.906 167.186 188.884 167.022C188.863 166.858 188.907 166.692 189.008 166.561C189.109 166.429 189.257 166.343 189.421 166.322C189.585 166.3 189.751 166.344 189.883 166.445L190.793 167.143L192.945 164.336C192.995 164.271 193.057 164.217 193.128 164.176C193.199 164.135 193.277 164.108 193.358 164.097C193.44 164.086 193.522 164.092 193.601 164.113C193.681 164.134 193.755 164.171 193.82 164.221L193.82 164.221L193.807 164.239L193.821 164.221C193.952 164.322 194.038 164.471 194.059 164.635C194.081 164.799 194.037 164.965 193.936 165.096L191.406 168.396C191.347 168.472 191.272 168.534 191.186 168.576C191.1 168.618 191.005 168.64 190.909 168.64L190.908 168.64Z" fill="white"/>
<path d="M154.177 76.5913C147.868 76.4838 145.001 71.6969 145.001 67.2948C145.001 62.8927 147.869 58.1065 154.164 57.9999H154.177C160.473 58.1073 163.34 62.8941 163.34 67.2962C163.34 71.6983 160.472 76.4847 154.177 76.5913ZM154.171 58.8011C148.421 58.9016 145.802 63.2738 145.802 67.2948C145.802 71.3176 148.422 75.6919 154.177 75.7901C159.917 75.6927 162.538 71.3188 162.539 67.2962C162.539 63.2751 159.92 58.903 154.171 58.8011Z" fill="#2F90B0"/>
<path d="M153.019 70.7652C152.819 70.7656 152.624 70.7008 152.464 70.5808L152.454 70.5733L150.364 68.9742C150.168 68.8243 150.04 68.6028 150.008 68.3586C149.976 68.1143 150.042 67.8672 150.192 67.6717C150.342 67.4761 150.563 67.3482 150.807 67.3159C151.052 67.2836 151.299 67.3497 151.494 67.4996L152.848 68.538L156.048 64.3636C156.122 64.2668 156.215 64.1856 156.32 64.1246C156.426 64.0636 156.542 64.024 156.663 64.008C156.784 63.992 156.907 64 157.025 64.0315C157.143 64.0631 157.253 64.1175 157.35 64.1917L157.35 64.1919L157.33 64.2194L157.351 64.1919C157.546 64.3419 157.674 64.5633 157.706 64.8074C157.738 65.0516 157.672 65.2985 157.522 65.4941L153.759 70.4018C153.672 70.5149 153.56 70.6064 153.432 70.6692C153.304 70.7321 153.163 70.7645 153.02 70.7641L153.019 70.7652Z" fill="#2F90B0"/>
<path d="M210.296 51.0398C208.457 51.0398 206.66 50.4946 205.131 49.4732C203.603 48.4517 202.411 46.9999 201.708 45.3014C201.004 43.6028 200.82 41.7337 201.179 39.9305C201.537 38.1273 202.423 36.471 203.723 35.171C205.023 33.871 206.679 32.9856 208.482 32.627C210.285 32.2683 212.155 32.4524 213.853 33.156C215.552 33.8595 217.003 35.051 218.025 36.5797C219.046 38.1084 219.591 39.9056 219.591 41.7441C219.589 44.2086 218.608 46.5714 216.866 48.3141C215.123 50.0568 212.76 51.0371 210.296 51.0398ZM210.296 33.2496C208.616 33.2496 206.973 33.7478 205.576 34.6812C204.179 35.6146 203.091 36.9413 202.448 38.4934C201.805 40.0456 201.637 41.7536 201.964 43.4014C202.292 45.0491 203.101 46.5627 204.289 47.7507C205.477 48.9386 206.991 49.7477 208.639 50.0754C210.286 50.4032 211.994 50.2349 213.546 49.592C215.099 48.9491 216.425 47.8603 217.359 46.4634C218.292 45.0665 218.79 43.4242 218.79 41.7441C218.788 39.492 217.892 37.3328 216.299 35.7403C214.707 34.1478 212.548 33.2521 210.296 33.2496Z" fill="#CCCCCC"/>
<path d="M210.019 45.1373C209.819 45.1376 209.624 45.0729 209.464 44.9528L209.454 44.9454L207.364 43.3462C207.168 43.1963 207.04 42.9749 207.008 42.7306C206.976 42.4864 207.042 42.2393 207.192 42.0438C207.342 41.8482 207.563 41.7202 207.807 41.688C208.052 41.6557 208.299 41.7218 208.494 41.8717L209.848 42.9101L213.048 38.7357C213.122 38.6389 213.215 38.5577 213.32 38.4967C213.426 38.4357 213.542 38.396 213.663 38.3801C213.784 38.3641 213.907 38.3721 214.025 38.4036C214.143 38.4351 214.253 38.4895 214.35 38.5637L214.35 38.5639L214.33 38.5915L214.351 38.5639C214.546 38.714 214.674 38.9354 214.706 39.1795C214.738 39.4237 214.672 39.6706 214.522 39.8661L210.759 44.7739C210.672 44.887 210.56 44.9785 210.432 45.0413C210.304 45.1041 210.163 45.1366 210.02 45.1362L210.019 45.1373Z" fill="#CCCCCC"/>
<path d="M268.296 18.5915C266.457 18.5914 264.66 18.0462 263.131 17.0248C261.603 16.0034 260.411 14.5516 259.708 12.853C259.004 11.1544 258.82 9.28535 259.179 7.48217C259.537 5.67898 260.423 4.02265 261.723 2.72263C263.023 1.42261 264.679 0.537281 266.482 0.178611C268.285 -0.180058 270.155 0.00403483 271.853 0.707609C273.552 1.41118 275.003 2.60264 276.025 4.13131C277.046 5.65999 277.591 7.45722 277.591 9.29573C277.589 11.7603 276.608 14.1231 274.866 15.8657C273.123 17.6084 270.76 18.5887 268.296 18.5915ZM268.296 0.801203C266.616 0.801223 264.973 1.29944 263.576 2.23284C262.179 3.16624 261.091 4.49291 260.448 6.04509C259.805 7.59726 259.637 9.30523 259.964 10.953C260.292 12.6008 261.101 14.1143 262.289 15.3023C263.477 16.4903 264.991 17.2993 266.639 17.6271C268.286 17.9548 269.994 17.7866 271.546 17.1436C273.099 16.5007 274.425 15.4119 275.359 14.015C276.292 12.6181 276.79 10.9758 276.79 9.29573C276.788 7.04361 275.892 4.88446 274.299 3.29197C272.707 1.69949 270.548 0.803727 268.296 0.801203Z" fill="#CCCCCC"/>
<path d="M268.019 12.7652C267.819 12.7656 267.624 12.7008 267.464 12.5808L267.454 12.5733L265.364 10.9742C265.168 10.8243 265.04 10.6028 265.008 10.3586C264.976 10.1143 265.042 9.86722 265.192 9.67168C265.342 9.47615 265.563 9.34817 265.807 9.31591C266.052 9.28364 266.299 9.34973 266.494 9.49963L267.848 10.538L271.048 6.36363C271.122 6.26685 271.215 6.18563 271.32 6.12461C271.426 6.06359 271.542 6.02396 271.663 6.008C271.784 5.99203 271.907 6.00003 272.025 6.03154C272.143 6.06306 272.253 6.11746 272.35 6.19166L272.35 6.19187L272.33 6.21944L272.351 6.19187C272.546 6.34193 272.674 6.56331 272.706 6.80745C272.738 7.05158 272.672 7.29852 272.522 7.49407L268.759 12.4018C268.672 12.5149 268.56 12.6064 268.432 12.6692C268.304 12.7321 268.163 12.7645 268.02 12.7641L268.019 12.7652Z" fill="#CCCCCC"/>
</svg>
