<svg width="18" height="18" viewBox="0 0 18 18" fill="none" xmlns="http://www.w3.org/2000/svg">
<g clip-path="url(#clip0_7997_3897)">
<g clip-path="url(#clip1_7997_3897)">
<g clip-path="url(#clip2_7997_3897)">
<path d="M1.67901 14.0332L3.88303 13.1018L5.14299 10.7531C5.03413 10.4447 4.95479 10.1267 4.90604 9.80328C4.28053 9.27233 3.91873 8.49323 3.91606 7.67173C3.91212 7.34892 4.02128 7.03493 4.22463 6.78451C3.42753 6.40532 2.92792 5.90097 2.92792 5.27694C2.92792 4.50755 3.6626 3.87801 5.07136 3.43624L5.78401 1.07828C5.91096 0.651376 6.21957 0.302471 6.62728 0.124983C7.03494 -0.0525052 7.50003 -0.0404498 7.89801 0.157921L9.00004 0.710135L10.102 0.157921C10.5 -0.0404498 10.9651 -0.0525052 11.3728 0.124983C11.7805 0.302471 12.0891 0.651376 12.2161 1.07828L12.9268 3.45281C14.3301 3.88537 15.0703 4.51673 15.0703 5.29354C15.0703 5.91937 14.5689 6.42372 13.7736 6.80106C13.9791 7.04998 14.091 7.36336 14.0895 7.68644C14.083 8.50254 13.7223 9.27531 13.1014 9.80328C13.0525 10.1388 12.9707 10.4687 12.8571 10.7881L14.0748 13.0945H14.0968L16.3229 14.0388C17.35 14.4683 18.0137 15.4802 17.9998 16.5955V17.5398C17.9998 17.794 17.7942 18 17.5406 18C17.287 18 17.0814 17.794 17.0814 17.5398V16.5918C17.0937 15.8474 16.6521 15.1707 15.9666 14.8837L14.7066 14.3536C14.7226 14.4747 14.6892 14.5971 14.6138 14.6931C14.5384 14.7892 14.4274 14.8506 14.3062 14.8634L12.5081 15.0678L12.2106 17.2766C12.1768 17.5025 11.9829 17.6694 11.7551 17.6687H6.21195C5.98407 17.6694 5.79014 17.5025 5.75645 17.2766L5.46072 15.0678L3.6626 14.8579C3.54283 14.845 3.43314 14.7846 3.35793 14.6902C3.28275 14.5959 3.24828 14.4753 3.26221 14.3554L2.03349 14.8837C1.34897 15.1708 0.907576 15.8464 0.918615 16.59V17.5398C0.918615 17.794 0.713034 18 0.459438 18C0.205845 18 0.000261307 17.794 0.000261307 17.5398V16.5955C-0.01507 15.4779 0.649603 14.4634 1.67901 14.0332ZM14.1538 5.27879C14.1538 5.11683 13.9021 4.82782 13.2574 4.5425L13.3364 4.80758C13.4095 5.05106 13.2717 5.30776 13.0288 5.38095C12.7859 5.45418 12.5297 5.3161 12.4567 5.07262L11.3381 1.33598C11.2878 1.16966 11.1667 1.03411 11.0073 0.965608C10.848 0.897102 10.6666 0.902634 10.5116 0.980723L9.20755 1.6305C9.07758 1.69613 8.9243 1.69613 8.79433 1.6305L7.49026 0.971517C7.33545 0.892752 7.1537 0.886869 6.99411 0.955462C6.83452 1.02406 6.71353 1.16006 6.66377 1.32678L5.54338 5.06529C5.47035 5.30877 5.21417 5.4468 4.97127 5.37361C4.72832 5.30038 4.59059 5.04369 4.66362 4.8002L4.7426 4.53517C4.0979 4.8168 3.84628 5.10761 3.84628 5.27145C3.84628 5.75737 5.66459 6.70166 9.00004 6.70166C12.3355 6.70166 14.1538 5.76474 14.1538 5.27879ZM13.173 7.67173C13.1761 7.5467 13.1284 7.42575 13.0407 7.33671C12.952 7.2479 12.8319 7.19763 12.7064 7.19684C12.6875 7.19802 12.6685 7.19802 12.6495 7.19684C11.4565 7.49691 10.23 7.64227 9.00004 7.62941C7.77176 7.6406 6.54711 7.49401 5.35602 7.19315C5.33709 7.19434 5.31808 7.19434 5.29911 7.19315C5.17124 7.19346 5.04885 7.24522 4.95931 7.33671C4.87121 7.42425 4.82219 7.54376 4.82338 7.66804C4.82841 8.2663 5.11679 8.82658 5.60033 9.17745C5.70349 9.2538 5.77007 9.36992 5.78401 9.49772C5.78401 9.53087 5.78401 9.56766 5.79684 9.60265C5.94171 10.6343 6.44745 11.5808 7.22396 12.2735L9.14697 14.0167L10.7375 12.3066L10.7669 12.279C11.5476 11.5879 12.0562 10.6401 12.2014 9.60634C12.2014 9.5695 12.2057 9.53394 12.2142 9.49957C12.2281 9.37177 12.2947 9.25564 12.3979 9.1793C12.8802 8.82839 13.1678 8.26902 13.173 7.67173ZM11.6448 14.5984C11.6728 14.3898 11.8385 14.2268 12.0471 14.2026L13.5311 14.0296L12.352 11.8097C12.0852 12.2355 11.7607 12.622 11.3877 12.9583L7.8521 16.7483H11.3547L11.6448 14.5984ZM5.91989 14.2026C6.1285 14.2268 6.29413 14.3898 6.32212 14.5984L6.61234 16.7244L8.51883 14.6885L6.61234 12.9675C6.23026 12.6211 5.89939 12.222 5.62972 11.7821L4.43587 14.0296L5.91989 14.2026Z" fill="white"/>
</g>
</g>
</g>
<defs>
<clipPath id="clip0_7997_3897">
<rect width="18" height="18" fill="white" transform="matrix(-1 0 0 1 18 0)"/>
</clipPath>
<clipPath id="clip1_7997_3897">
<rect width="18" height="18" fill="white" transform="matrix(-1 0 0 1 18 0)"/>
</clipPath>
<clipPath id="clip2_7997_3897">
<rect width="18" height="18" fill="white" transform="matrix(-1 0 0 1 18 0)"/>
</clipPath>
</defs>
</svg>
