<svg width="32" height="32" viewBox="0 0 32 32" fill="none" xmlns="http://www.w3.org/2000/svg">
<g clip-path="url(#clip0_133_125)">
<path d="M31.2177 17.0011L16.1161 1.92276C15.4941 1.3316 14.7619 0.868602 13.9611 0.560144C13.1823 0.213841 12.3432 0.023489 11.4912 -0.000154772H2.70212C2.34748 -0.0030955 1.996 0.0665678 1.66929 0.204548C1.34259 0.342528 1.04758 0.545906 0.80241 0.802166C0.546151 1.04733 0.342772 1.34234 0.204792 1.66905C0.066812 1.99575 -0.00285136 2.34724 8.93684e-05 2.70188V11.4876C0.0236477 12.3396 0.214003 13.1788 0.560388 13.9576C0.865349 14.7542 1.32893 15.4806 1.92301 16.0927L17.0245 31.2174C17.2709 31.4707 17.5666 31.6708 17.8934 31.8054C18.2201 31.94 18.5709 32.0061 18.9243 31.9998C19.2805 32.0025 19.6338 31.9347 19.9637 31.8004C20.2937 31.6661 20.594 31.468 20.8472 31.2174L31.2177 20.827C31.471 20.5806 31.6711 20.285 31.8056 19.9582C31.9402 19.6315 32.0064 19.2806 32.0001 18.9273C32.0031 18.5705 31.9356 18.2166 31.8013 17.886C31.667 17.5555 31.4687 17.2547 31.2177 17.0011ZM8.67311 8.66955C8.42532 8.92533 8.12772 9.12761 7.7987 9.26389C7.46968 9.40018 7.11622 9.46758 6.76014 9.46193C6.04379 9.46105 5.35702 9.17609 4.85048 8.66955C4.34395 8.16301 4.05899 7.47625 4.05811 6.75989C4.05899 6.04354 4.34395 5.35678 4.85048 4.85024C5.35702 4.3437 6.04379 4.05874 6.76014 4.05786C7.47649 4.05874 8.16326 4.3437 8.66979 4.85024C9.17633 5.35678 9.46129 6.04354 9.46217 6.75989C9.46737 7.11542 9.39975 7.46825 9.26348 7.79667C9.12721 8.12509 8.92517 8.42214 8.6698 8.66955H8.67311Z" fill="#2F90B0"/>
</g>
<defs>
<clipPath id="clip0_133_125">
<rect width="32" height="32" fill="white"/>
</clipPath>
</defs>
</svg>
