<svg width="307" height="139" viewBox="0 0 307 139" fill="none" xmlns="http://www.w3.org/2000/svg">
<path d="M302.311 138.589H4.68941C3.44612 138.588 2.25414 138.094 1.375 137.216C0.495854 136.339 0.00135711 135.149 0 133.907V4.68207C0.00135711 3.44072 0.495854 2.25061 1.375 1.37284C2.25414 0.495079 3.44612 0.00135498 4.68941 0H302.311C303.554 0.00135498 304.746 0.495079 305.625 1.37284C306.504 2.25061 306.999 3.44072 307 4.68207V133.907C306.999 135.149 306.504 136.339 305.625 137.216C304.746 138.094 303.554 138.588 302.311 138.589ZM4.68941 1.87283C3.94343 1.87364 3.22825 2.16988 2.70076 2.69653C2.17328 3.22319 1.87658 3.93726 1.87576 4.68207V133.907C1.87658 134.652 2.17328 135.366 2.70076 135.893C3.22825 136.419 3.94343 136.716 4.68941 136.716H302.311C303.057 136.716 303.772 136.419 304.299 135.893C304.827 135.366 305.123 134.652 305.124 133.907V4.68207C305.123 3.93726 304.827 3.22319 304.299 2.69653C303.772 2.16988 303.057 1.87364 302.311 1.87283H4.68941Z" fill="#E6E6E6"/>
<path d="M16.882 15.9194C16.1358 15.9194 15.4201 16.2154 14.8924 16.7422C14.3648 17.2691 14.0684 17.9836 14.0684 18.7287C14.0684 19.4737 14.3648 20.1883 14.8924 20.7151C15.4201 21.2419 16.1358 21.5379 16.882 21.5379H56.273C57.0193 21.5379 57.7349 21.2419 58.2626 20.7151C58.7903 20.1883 59.0867 19.4737 59.0867 18.7287C59.0867 17.9836 58.7903 17.2691 58.2626 16.7422C57.7349 16.2154 57.0193 15.9194 56.273 15.9194H16.882Z" fill="#E6E6E6"/>
<path d="M286.547 35.4556V87.5512H20.9199V60.122C22.7593 58.9426 24.6098 57.7688 26.477 56.6338C34.4514 51.7614 42.987 47.2047 52.2895 45.5159C56.6889 44.6969 61.1968 44.6407 65.6153 45.3498C70.2833 46.1194 74.7511 47.7251 79.1746 49.3363C83.5368 50.9309 87.9102 52.5753 92.4726 53.5C96.9185 54.3714 101.483 54.4613 105.96 53.7657C114.501 52.4867 122.525 49.0595 130.516 45.9589C138.557 42.8417 146.843 39.8961 155.545 39.5085C164.136 39.1209 172.622 41.1474 180.774 43.6611C197.395 48.7827 214.367 56.3791 231.966 51.169C249.837 45.8869 266.275 30.6386 286.08 35.1622C286.268 35.1968 286.435 35.3018 286.547 35.4556Z" fill="#E6E6E6"/>
<path d="M286.548 36.3637C286.464 36.5225 286.328 36.6482 286.163 36.7205C285.998 36.7928 285.813 36.8075 285.639 36.7623C283.279 36.2222 280.862 35.973 278.441 36.0204C258.96 36.3637 243.982 52.0217 224.933 54.3637C207.759 56.4733 191.594 48.1349 175.445 43.7774C167.055 41.5129 158.404 40.3114 149.77 41.8506C141.202 43.3732 133.161 46.8725 125.087 49.9786C117.312 52.9685 109.232 55.7479 100.814 55.8864C91.5591 56.0414 83.2242 52.232 74.6399 49.3308C70.1758 47.8193 65.5952 46.6233 60.865 46.507C56.2548 46.4519 51.6674 47.161 47.2897 48.6055C38.1674 51.5012 29.949 56.6615 21.9469 61.7885C21.8098 61.8852 21.6428 61.9304 21.4756 61.9159C21.3028 61.8928 21.1412 61.8179 21.0122 61.7009C20.8832 61.584 20.7928 61.4307 20.7531 61.2613C20.7134 61.0919 20.7262 60.9144 20.7899 60.7525C20.8535 60.5905 20.9651 60.4517 21.1096 60.3545L21.4756 60.122C23.3111 58.9426 25.1578 57.7688 27.021 56.6338C34.9788 51.7614 43.4966 47.2047 52.7797 45.5159C57.1698 44.6969 61.6685 44.6407 66.0777 45.3498C70.7359 46.1194 75.1944 47.7251 79.6086 49.3363C83.9618 50.9309 88.3261 52.5753 92.8789 53.5C97.3153 54.3714 101.87 54.4613 106.338 53.7657C114.861 52.4867 122.869 49.0595 130.843 45.9589C138.867 42.8417 147.136 39.8961 155.82 39.5085C164.393 39.1209 172.861 41.1474 180.996 43.6611C197.583 48.7827 214.518 56.3791 232.081 51.169C249.915 45.8869 266.319 30.6386 286.083 35.1622C286.27 35.1969 286.436 35.3019 286.548 35.4556C286.634 35.5916 286.679 35.749 286.679 35.9096C286.679 36.0703 286.634 36.2277 286.548 36.3637Z" fill="#2F90B0"/>
<path d="M57.5205 49.9014C59.6644 49.9014 61.4023 48.1662 61.4023 46.0256C61.4023 43.8851 59.6644 42.1499 57.5205 42.1499C55.3766 42.1499 53.6387 43.8851 53.6387 46.0256C53.6387 48.1662 55.3766 49.9014 57.5205 49.9014Z" fill="#2F90B0"/>
<path d="M155.675 44.918C157.819 44.918 159.557 43.1828 159.557 41.0422C159.557 38.9017 157.819 37.1665 155.675 37.1665C153.531 37.1665 151.793 38.9017 151.793 41.0422C151.793 43.1828 153.531 44.918 155.675 44.918Z" fill="#2F90B0"/>
<path d="M275.458 39.9356C277.602 39.9356 279.34 38.2003 279.34 36.0598C279.34 33.9193 277.602 32.1841 275.458 32.1841C273.314 32.1841 271.576 33.9193 271.576 36.0598C271.576 38.2003 273.314 39.9356 275.458 39.9356Z" fill="#2F90B0"/>
<path d="M55.3351 109.561C54.5889 109.561 53.8732 109.857 53.3456 110.383C52.8179 110.91 52.5215 111.625 52.5215 112.37C52.5215 113.115 52.8179 113.829 53.3456 114.356C53.8732 114.883 54.5889 115.179 55.3351 115.179H94.7262C95.4724 115.179 96.1881 114.883 96.7157 114.356C97.2434 113.829 97.5398 113.115 97.5398 112.37C97.5398 111.625 97.2434 110.91 96.7157 110.383C96.1881 109.857 95.4724 109.561 94.7262 109.561H55.3351Z" fill="#E6E6E6"/>
<path d="M30.0121 122.67C35.8826 122.67 40.6415 117.919 40.6415 112.058C40.6415 106.196 35.8826 101.445 30.0121 101.445C24.1417 101.445 19.3828 106.196 19.3828 112.058C19.3828 117.919 24.1417 122.67 30.0121 122.67Z" fill="#2F90B0"/>
<path d="M150.372 109.561C149.626 109.561 148.91 109.857 148.383 110.383C147.855 110.91 147.559 111.625 147.559 112.37C147.559 113.115 147.855 113.829 148.383 114.356C148.91 114.883 149.626 115.179 150.372 115.179H189.763C190.51 115.179 191.225 114.883 191.753 114.356C192.281 113.829 192.577 113.115 192.577 112.37C192.577 111.625 192.281 110.91 191.753 110.383C191.225 109.857 190.51 109.561 189.763 109.561H150.372Z" fill="#E6E6E6"/>
<path d="M125.051 122.67C130.922 122.67 135.681 117.919 135.681 112.058C135.681 106.196 130.922 101.445 125.051 101.445C119.181 101.445 114.422 106.196 114.422 112.058C114.422 117.919 119.181 122.67 125.051 122.67Z" fill="#2F90B0"/>
<path d="M245.411 109.561C244.665 109.561 243.949 109.857 243.422 110.383C242.894 110.91 242.598 111.625 242.598 112.37C242.598 113.115 242.894 113.829 243.422 114.356C243.949 114.883 244.665 115.179 245.411 115.179H284.802C285.549 115.179 286.264 114.883 286.792 114.356C287.32 113.829 287.616 113.115 287.616 112.37C287.616 111.625 287.32 110.91 286.792 110.383C286.264 109.857 285.549 109.561 284.802 109.561H245.411Z" fill="#E6E6E6"/>
<path d="M220.09 122.67C225.961 122.67 230.72 117.919 230.72 112.058C230.72 106.196 225.961 101.445 220.09 101.445C214.22 101.445 209.461 106.196 209.461 112.058C209.461 117.919 214.22 122.67 220.09 122.67Z" fill="#2F90B0"/>
</svg>
