<svg width="32" height="32" viewBox="0 0 32 32" fill="none" xmlns="http://www.w3.org/2000/svg">
<path d="M24.002 3.19998C21.3497 3.19998 19.1996 5.35009 19.1996 8.00241C19.1996 10.6547 21.3497 12.8048 24.002 12.8048C24.7378 12.8048 25.4262 12.6368 26.0551 12.3367C26.4538 12.1465 26.9314 12.3155 27.1217 12.7143C27.3119 13.1131 27.1428 13.5906 26.7441 13.7808C25.9108 14.1784 24.9879 14.4048 24.002 14.4048C20.466 14.4048 17.5996 11.5384 17.5996 8.00241C17.5996 4.46644 20.466 1.59998 24.002 1.59998C27.5359 1.59998 30.401 4.46298 30.4044 7.99601V7.99998V8.79674C30.4044 10.1236 29.3289 11.1992 28.002 11.1992C27.2681 11.1992 26.611 10.87 26.1703 10.3512C25.5998 10.8781 24.8374 11.2 23.9996 11.2C22.2322 11.2 20.7996 9.76729 20.7996 7.99998C20.7996 6.23266 22.2322 4.79998 23.9996 4.79998C24.6119 4.79998 25.1841 4.97198 25.6705 5.27031C25.7961 4.99294 26.0753 4.79998 26.3996 4.79998C26.8414 4.79998 27.1996 5.15815 27.1996 5.59998V8.79674C27.1996 9.23991 27.5588 9.59916 28.002 9.59916C28.4452 9.59916 28.8044 9.23991 28.8044 8.79674V8.00241C28.8044 5.35009 26.6543 3.19998 24.002 3.19998ZM22.3996 7.99998C22.3996 8.88362 23.1159 9.59998 23.9996 9.59998C24.8833 9.59998 25.5996 8.88362 25.5996 7.99998C25.5996 7.11633 24.8833 6.39998 23.9996 6.39998C23.1159 6.39998 22.3996 7.11633 22.3996 7.99998Z" fill="#2F90B0"/>
<path d="M24.0002 16C25.8012 16 27.4631 15.4049 28.8002 14.4006V19.6423C28.8002 21.9096 26.9376 23.7477 24.6402 23.7477H17.2962L10.8785 28.4855C10.1709 29.0077 9.1682 28.865 8.63893 28.1668C8.43202 27.8937 8.3202 27.562 8.3202 27.2213L8.31919 23.7477H7.3602C5.06269 23.7477 3.2002 21.9096 3.2002 19.6423V8.90536C3.2002 6.63807 5.06269 4.80005 7.3602 4.80005H16.6658C16.2376 5.77998 16.0002 6.86229 16.0002 8.00005C16.0002 12.4183 19.582 16 24.0002 16Z" fill="#2F90B0"/>
</svg>
