<svg width="18" height="18" viewBox="0 0 18 18" fill="none" xmlns="http://www.w3.org/2000/svg">
<path d="M2.77767 17.0998V17.0995H15.5215C16.3944 17.0995 17.1 16.3713 17.1 15.4815V2.98108C17.1 2.7145 16.8883 2.49356 16.6226 2.49356H14.6468V1.39845C14.6468 1.12596 14.4305 0.9 14.1588 0.9H1.38801C1.11628 0.9 0.9 1.12596 0.9 1.39845V15.277C0.9 16.2796 1.69494 17.0998 2.67767 17.0998H2.77767ZM14.6465 3.21033H16.3965V15.4815C16.3965 15.981 16.0015 16.3828 15.5215 16.3828C15.0416 16.3828 14.6465 15.9808 14.6465 15.4815V3.21033ZM1.60346 1.61677H13.9428V15.4813C13.9428 15.8144 14.0416 16.1247 14.2109 16.3825H2.67767C2.08779 16.3825 1.60346 15.8888 1.60346 15.2767V1.61677Z" fill="#D9D9D9" stroke="#D9D9D9" stroke-width="0.2"/>
<path d="M9.28794 4.93342V7.86204C9.28794 8.12862 9.49963 8.34956 9.76531 8.34956H12.6172C12.8832 8.34956 13.0946 8.1283 13.0946 7.86204V4.93342C13.0946 4.66683 12.8829 4.4459 12.6172 4.4459H9.76531C9.49932 4.4459 9.28794 4.66715 9.28794 4.93342ZM9.99117 5.16267H12.3913V7.63278H9.99117V5.16267Z" fill="#D9D9D9" stroke="#D9D9D9" stroke-width="0.2"/>
<path d="M2.803 5.16242H7.98941C8.18618 5.16242 8.34115 4.99942 8.34115 4.80392C8.34115 4.60841 8.18618 4.44541 7.98941 4.44541H2.803C2.60623 4.44541 2.45127 4.60841 2.45127 4.80392C2.45127 4.99942 2.60623 5.16242 2.803 5.16242Z" fill="#D9D9D9" stroke="#D9D9D9" stroke-width="0.2"/>
<path d="M2.803 7.0528H7.98941C8.18618 7.0528 8.34115 6.8898 8.34115 6.6943C8.34115 6.49879 8.18618 6.33579 7.98941 6.33579H2.803C2.60623 6.33579 2.45127 6.49879 2.45127 6.6943C2.45127 6.8898 2.60623 7.0528 2.803 7.0528Z" fill="#D9D9D9" stroke="#D9D9D9" stroke-width="0.2"/>
<path d="M2.803 10.6766H12.6726C12.8694 10.6766 13.0243 10.5136 13.0243 10.3181C13.0243 10.1226 12.8694 9.95957 12.6726 9.95957H2.803C2.60623 9.95957 2.45127 10.1226 2.45127 10.3181C2.45127 10.5136 2.60623 10.6766 2.803 10.6766Z" fill="#D9D9D9" stroke="#D9D9D9" stroke-width="0.2"/>
<path d="M2.803 13.044H12.6726C12.8694 13.044 13.0243 12.881 13.0243 12.6855C13.0243 12.49 12.8694 12.327 12.6726 12.327H2.803C2.60623 12.327 2.45127 12.49 2.45127 12.6855C2.45127 12.881 2.60623 13.044 2.803 13.044Z" fill="#D9D9D9" stroke="#D9D9D9" stroke-width="0.2"/>
</svg>
