<svg width="24" height="30" viewBox="0 0 24 30" fill="none" xmlns="http://www.w3.org/2000/svg">
<path d="M16.5225 8.30618C16.3586 8.30568 16.2015 8.24033 16.0856 8.12441C15.9698 8.00849 15.9045 7.85141 15.904 7.6875V0.9375H2.15884C1.7852 0.937503 1.42685 1.08594 1.16264 1.35014C0.898436 1.61435 0.750003 1.9727 0.75 2.34634V27.6577C0.750003 28.0303 0.898012 28.3876 1.16147 28.651C1.42492 28.9145 1.78224 29.0625 2.15482 29.0625H21.8426C22.0274 29.0625 22.2104 29.0261 22.3812 28.9554C22.5519 28.8846 22.7071 28.781 22.8378 28.6503C22.9685 28.5196 23.0721 28.3644 23.1429 28.1937C23.2136 28.0229 23.25 27.8399 23.25 27.6551V8.30618H16.5225ZM7.64062 10.6237C7.75709 10.5076 7.91488 10.4423 8.07939 10.4423C8.2439 10.4423 8.40169 10.5076 8.51816 10.6237L10.1551 12.2606C10.3973 12.0181 10.6849 11.8257 11.0015 11.6944C11.3181 11.5632 11.6574 11.4956 12.0001 11.4956C12.3429 11.4956 12.6822 11.5632 12.9988 11.6944C13.3154 11.8257 13.603 12.0181 13.8452 12.2606L15.4821 10.6237C15.5979 10.509 15.7544 10.4448 15.9175 10.4451C16.0805 10.4455 16.2367 10.5104 16.352 10.6257C16.4673 10.741 16.5322 10.8973 16.5325 11.0603C16.5329 11.2233 16.4687 11.3798 16.3539 11.4956L14.492 13.3631C14.5689 13.6051 14.6088 13.8573 14.6101 14.1112V14.3587H9.38447V14.1112C9.3877 13.857 9.42947 13.6048 9.50834 13.3631L7.64062 11.4956C7.52704 11.3789 7.46348 11.2225 7.46348 11.0597C7.46348 10.8968 7.52704 10.7404 7.64062 10.6237ZM17.6588 17.9587C17.7405 17.9581 17.8215 17.9736 17.8972 18.0043C17.9728 18.0351 18.0417 18.0806 18.0997 18.1381C18.1577 18.1956 18.2037 18.2641 18.2351 18.3395C18.2666 18.4149 18.2827 18.4958 18.2827 18.5775C18.2827 18.6592 18.2666 18.7401 18.2351 18.8155C18.2037 18.8909 18.1577 18.9593 18.0997 19.0168C18.0417 19.0744 17.9728 19.1198 17.8972 19.1506C17.8215 19.1814 17.7405 19.1969 17.6588 19.1962H15.9207V19.7812L17.94 20.7937C18.0645 20.8563 18.1642 20.9592 18.2229 21.0857C18.2816 21.2121 18.2957 21.3546 18.2632 21.4902C18.2306 21.6257 18.1532 21.7462 18.0434 21.8322C17.9337 21.9181 17.7982 21.9645 17.6588 21.9637C17.5637 21.962 17.47 21.941 17.3833 21.9019L15.8815 21.1481C15.7602 22.0918 15.2992 22.959 14.5849 23.5875C13.8705 24.2159 12.9516 24.5625 12.0001 24.5625C11.0487 24.5625 10.1298 24.2159 9.41542 23.5875C8.70104 22.959 8.24009 22.0918 8.11881 21.1481L6.61697 21.9019C6.5303 21.941 6.43657 21.962 6.34149 21.9637C6.20212 21.9645 6.06656 21.9181 5.95684 21.8322C5.84712 21.7462 5.76968 21.6257 5.7371 21.4902C5.70453 21.3547 5.71872 21.2121 5.77738 21.0857C5.83604 20.9592 5.93573 20.8563 6.06024 20.7937L8.07953 19.7812V19.1962H6.34149C6.2598 19.1969 6.17879 19.1814 6.10312 19.1506C6.02744 19.1198 5.95862 19.0744 5.90061 19.0168C5.8426 18.9593 5.79656 18.8909 5.76514 18.8155C5.73372 18.7401 5.71754 18.6592 5.71754 18.5775C5.71754 18.4958 5.73372 18.4149 5.76514 18.3395C5.79656 18.2641 5.8426 18.1957 5.90061 18.1381C5.95862 18.0806 6.02744 18.0351 6.10312 18.0044C6.17879 17.9736 6.2598 17.9581 6.34149 17.9588H8.07953V17.3738L6.06024 16.3669C5.98748 16.3303 5.92264 16.2798 5.8694 16.2182C5.81617 16.1566 5.77559 16.0851 5.74999 16.0078C5.72439 15.9305 5.71427 15.8489 5.7202 15.7677C5.72613 15.6865 5.74799 15.6072 5.78455 15.5345C5.8211 15.4617 5.87163 15.3969 5.93325 15.3436C5.99487 15.2904 6.06636 15.2498 6.14366 15.2242C6.22096 15.1986 6.30254 15.1885 6.38375 15.1944C6.46497 15.2003 6.54421 15.2222 6.61697 15.2588L8.07953 15.99V15.5963H11.3815V20.6419C11.3815 20.7231 11.3975 20.8036 11.4286 20.8786C11.4597 20.9537 11.5052 21.0219 11.5627 21.0793C11.6201 21.1368 11.6883 21.1824 11.7634 21.2134C11.8384 21.2445 11.9189 21.2605 12.0001 21.2605C12.0814 21.2605 12.1618 21.2445 12.2369 21.2134C12.312 21.1824 12.3802 21.1368 12.4376 21.0793C12.4951 21.0219 12.5406 20.9537 12.5717 20.8786C12.6028 20.8036 12.6188 20.7231 12.6188 20.6419V15.5963H15.9207V15.99L17.3833 15.2588C17.4561 15.2222 17.5353 15.2003 17.6165 15.1944C17.6977 15.1885 17.7793 15.1986 17.8566 15.2242C17.9339 15.2498 18.0054 15.2904 18.067 15.3436C18.1286 15.3968 18.1792 15.4617 18.2157 15.5344C18.2523 15.6072 18.2742 15.6865 18.2801 15.7677C18.286 15.8489 18.2759 15.9305 18.2503 16.0078C18.2247 16.0851 18.1841 16.1566 18.1309 16.2182C18.0776 16.2798 18.0128 16.3303 17.94 16.3669L15.9207 17.3738V17.9587H17.6588Z" fill="#2F90B0"/>
<path d="M17.1416 1.57861V7.06861H22.6318L17.1416 1.57861Z" fill="#2F90B0"/>
</svg>
