<svg width="28" height="32" viewBox="0 0 28 32" fill="none" xmlns="http://www.w3.org/2000/svg">
<path d="M7.55017 0.5H2.4502C1.62018 0.5 0.950195 1.16998 0.950195 2V7.09998C0.950195 7.93 1.62018 8.59998 2.4502 8.59998H7.55017C8.38019 8.59998 9.05017 7.93 9.05017 7.09998V2C9.05017 1.16998 8.38018 0.5 7.55017 0.5Z" fill="#2F90B0"/>
<path d="M25.5508 3.05176H13.4248C12.5962 3.05176 11.9248 3.72364 11.9248 4.55176C11.9248 5.37988 12.5962 6.05176 13.4248 6.05176H25.5508C26.3789 6.05176 27.0508 5.37988 27.0508 4.55176C27.0508 3.72364 26.3789 3.05176 25.5508 3.05176Z" fill="#2F90B0"/>
<path d="M7.55017 11.95H2.4502C1.62018 11.95 0.950195 12.6199 0.950195 13.45V18.5499C0.950195 19.38 1.62018 20.0499 2.4502 20.0499H7.55017C8.38019 20.0499 9.05017 19.38 9.05017 18.5499V13.45C9.05017 12.6199 8.38018 11.95 7.55017 11.95Z" fill="#2F90B0"/>
<path d="M25.5508 14.5H13.4248C12.5962 14.5 11.9248 15.1719 11.9248 16C11.9248 16.8281 12.5962 17.5 13.4248 17.5H25.5508C26.3789 17.5 27.0508 16.8281 27.0508 16C27.0508 15.1719 26.3789 14.5 25.5508 14.5Z" fill="#2F90B0"/>
<path d="M7.55017 23.3999H2.4502C1.62018 23.3999 0.950195 24.0699 0.950195 24.8999V29.9999C0.950195 30.8299 1.62018 31.4999 2.4502 31.4999H7.55017C8.38019 31.4999 9.05017 30.8299 9.05017 29.9999V24.8999C9.05017 24.07 8.38018 23.3999 7.55017 23.3999Z" fill="#2F90B0"/>
<path d="M25.5508 25.9482H13.4248C12.5962 25.9482 11.9248 26.6201 11.9248 27.4482C11.9248 28.2764 12.5962 28.9482 13.4248 28.9482H25.5508C26.3789 28.9482 27.0508 28.2764 27.0508 27.4482C27.0508 26.6201 26.3789 25.9482 25.5508 25.9482Z" fill="#2F90B0"/>
</svg>
