<svg width="116" height="110" viewBox="0 0 116 110" fill="none" xmlns="http://www.w3.org/2000/svg">
<g filter="url(#filter0_d_58_524)">
<rect x="5.30298" y="1" width="104.9" height="100" rx="10" fill="#0A2342"/>
</g>
<path d="M56.0176 57.2185H59.9948C60.7693 57.2185 61.3972 56.596 61.3972 55.8281C61.3972 55.0602 60.7693 54.4377 59.9948 54.4377H56.0176C55.2431 54.4377 54.6152 55.0602 54.6152 55.8281C54.6152 56.596 55.2431 57.2185 56.0176 57.2185Z" fill="#F2F2F5"/>
<path d="M80.3668 65.3991L73.6353 62.585L69.7871 55.4886C70.1197 54.557 70.362 53.5961 70.5108 52.6189C72.4212 51.0147 73.5263 48.6609 73.5343 46.1788C73.5465 45.2035 73.2129 44.2548 72.5919 43.4982C75.0265 42.3526 76.5523 40.8287 76.5523 38.9434C76.5523 36.6188 74.3085 34.7168 70.0059 33.382L67.8294 26.2578C67.4417 24.968 66.499 23.9139 65.2539 23.3776C64.0088 22.8414 62.5883 22.8778 61.3728 23.4771L58.0071 25.1456L54.6413 23.4771C53.4258 22.8778 52.0053 22.8414 50.7602 23.3776C49.5151 23.9139 48.5724 24.968 48.1847 26.2578L46.0138 33.4321C41.7281 34.739 39.4674 36.6466 39.4674 38.9935C39.4674 40.8844 40.9989 42.4082 43.4278 43.5483C42.7999 44.3003 42.4585 45.2471 42.4629 46.2233C42.4827 48.6889 43.5845 51.0238 45.4809 52.6189C45.63 53.6327 45.8799 54.6293 46.227 55.5943L42.5078 62.5628H42.4405L35.6417 65.4158C32.5047 66.7136 30.4778 69.7708 30.5202 73.1406V75.9936C30.5202 76.7614 31.1481 77.3839 31.9226 77.3839C32.6971 77.3839 33.325 76.7614 33.325 75.9936V73.1294C33.2874 70.8803 34.6364 68.8356 36.73 67.9684L40.5781 66.3668C40.5291 66.7327 40.6314 67.1028 40.8617 67.3928C41.092 67.6829 41.4307 67.8685 41.801 67.9073L47.2928 68.5246L48.2015 75.1983C48.3045 75.8807 48.8967 76.3849 49.5927 76.3829H66.5224C67.2183 76.3849 67.8105 75.8807 67.9135 75.1983L68.8167 68.5246L74.3085 67.8906C74.6743 67.8515 75.0093 67.6691 75.239 67.384C75.4686 67.0989 75.5738 66.7347 75.5313 66.3723L79.2841 67.9684C81.3747 68.8361 82.7228 70.8772 82.6891 73.1239V75.9936C82.6891 76.7614 83.317 77.3839 84.0915 77.3839C84.8661 77.3839 85.4939 76.7614 85.4939 75.9936V73.1406C85.5408 69.7639 83.5107 66.6987 80.3668 65.3991ZM42.2666 38.949C42.2666 38.4596 43.0351 37.5864 45.0041 36.7244L44.7629 37.5253C44.5398 38.2609 44.9605 39.0365 45.7025 39.2576C46.4445 39.4788 47.2268 39.0617 47.4499 38.3261L50.8661 27.0364C51.0198 26.5339 51.3895 26.1244 51.8763 25.9174C52.3631 25.7104 52.9172 25.7272 53.3904 25.9631L57.3732 27.9263C57.7701 28.1246 58.2384 28.1246 58.6353 27.9263L62.6181 25.9353C63.091 25.6973 63.646 25.6795 64.1334 25.8868C64.6208 26.094 64.9904 26.5049 65.1424 27.0086L68.5643 38.3039C68.7873 39.0395 69.5696 39.4565 70.3116 39.2354C71.0536 39.0143 71.4743 38.2386 71.2512 37.503L71.01 36.7022C72.979 37.5531 73.7475 38.4318 73.7475 38.9267C73.7475 40.395 68.194 43.248 58.0071 43.248C47.8201 43.248 42.2666 40.4172 42.2666 38.949ZM45.2621 46.1788C45.2524 45.801 45.3982 45.4356 45.666 45.1667C45.9371 44.8983 46.3039 44.7465 46.687 44.744C46.7449 44.7476 46.8029 44.7476 46.8608 44.744C50.5045 45.6506 54.2506 46.0899 58.0071 46.0509C61.7584 46.0848 65.4987 45.6419 69.1364 44.7329C69.1943 44.7365 69.2524 44.7365 69.3103 44.7329C69.7009 44.7339 70.0747 44.8901 70.3481 45.1667C70.6172 45.431 70.7669 45.7921 70.7633 46.1677C70.7479 47.9752 69.8671 49.668 68.3904 50.7281C68.0753 50.9588 67.8719 51.3097 67.8294 51.6958C67.8294 51.7959 67.8294 51.9071 67.7901 52.0128C67.3477 55.1297 65.8031 57.9896 63.4315 60.0824L57.5583 65.349L52.7004 60.1825L52.6107 60.099C50.2265 58.0108 48.6729 55.1471 48.2296 52.0239C48.2296 51.9126 48.2165 51.8051 48.1903 51.7013C48.1479 51.3152 47.9445 50.9644 47.6294 50.7336C46.1563 49.6735 45.2779 47.9834 45.2621 46.1788ZM49.9293 67.1064C49.8438 66.4762 49.3379 65.9839 48.7008 65.9107L44.1683 65.388L47.7696 58.6809C48.5843 59.9674 49.5754 61.1354 50.7146 62.1512L61.513 73.6022H50.8156L49.9293 67.1064ZM67.4143 65.9107C66.7772 65.9839 66.2713 66.4762 66.1858 67.1064L65.2995 73.5299L59.4768 67.3789L65.2995 62.179C66.4664 61.1325 67.4769 59.9266 68.3006 58.5975L71.9468 65.388L67.4143 65.9107Z" fill="#F2F2F5"/>
<path d="M83.3285 26.7536C83.3285 24.7694 81.7061 23.1609 79.7047 23.1609H76.7878C76.0132 23.1609 75.3854 23.7834 75.3854 24.5512C75.3854 25.3191 76.0132 25.9416 76.7878 25.9416H79.7047C80.1571 25.9416 80.5237 26.3051 80.5237 26.7536V29.6455C80.5237 30.4134 81.1516 31.0359 81.9261 31.0359C82.7007 31.0359 83.3285 30.4134 83.3285 29.6455V26.7536Z" fill="#2F90B0"/>
<path d="M40.6166 24.5512C40.6166 23.7834 39.9887 23.1609 39.2142 23.1609H36.2973C34.3003 23.167 32.6847 24.7737 32.6847 26.7536V29.6455C32.6847 30.4134 33.3126 31.0359 34.0871 31.0359C34.8616 31.0359 35.4895 30.4134 35.4895 29.6455V26.7536C35.4895 26.5382 35.5758 26.3317 35.7294 26.1794C35.8829 26.0271 36.0913 25.9416 36.3085 25.9416H39.2254C39.9956 25.9355 40.6166 25.3148 40.6166 24.5512Z" fill="#2F90B0"/>
<path d="M34.0871 52.3462C33.3126 52.3462 32.6847 52.9687 32.6847 53.7365V56.6285C32.6847 58.6127 34.3071 60.2212 36.3085 60.2212H39.2254C40 60.2212 40.6278 59.5987 40.6278 58.8308C40.6278 58.0629 40 57.4404 39.2254 57.4404H36.3085C36.0913 57.4404 35.8829 57.3549 35.7294 57.2026C35.5758 57.0504 35.4895 56.8438 35.4895 56.6285V53.7365C35.4895 53.3678 35.3417 53.0142 35.0787 52.7534C34.8157 52.4927 34.459 52.3462 34.0871 52.3462Z" fill="#2F90B0"/>
<path d="M81.9261 52.3462C81.1516 52.3462 80.5237 52.9687 80.5237 53.7365V56.6285C80.5237 57.0769 80.1571 57.4404 79.7047 57.4404H76.7878C76.0132 57.4404 75.3854 58.0629 75.3854 58.8308C75.3854 59.5987 76.0132 60.2212 76.7878 60.2212H79.7047C80.6658 60.2212 81.5875 59.8426 82.2671 59.1689C82.9467 58.4951 83.3285 57.5813 83.3285 56.6285V53.7365C83.3285 53.3678 83.1808 53.0142 82.9178 52.7534C82.6548 52.4927 82.2981 52.3462 81.9261 52.3462Z" fill="#2F90B0"/>
<defs>
<filter id="filter0_d_58_524" x="0.302979" y="0" width="114.9" height="110" filterUnits="userSpaceOnUse" color-interpolation-filters="sRGB">
<feFlood flood-opacity="0" result="BackgroundImageFix"/>
<feColorMatrix in="SourceAlpha" type="matrix" values="0 0 0 0 0 0 0 0 0 0 0 0 0 0 0 0 0 0 127 0" result="hardAlpha"/>
<feOffset dy="4"/>
<feGaussianBlur stdDeviation="2.5"/>
<feComposite in2="hardAlpha" operator="out"/>
<feColorMatrix type="matrix" values="0 0 0 0 0 0 0 0 0 0 0 0 0 0 0 0 0 0 0.19 0"/>
<feBlend mode="normal" in2="BackgroundImageFix" result="effect1_dropShadow_58_524"/>
<feBlend mode="normal" in="SourceGraphic" in2="effect1_dropShadow_58_524" result="shape"/>
</filter>
</defs>
</svg>
