<svg width="32" height="34" viewBox="0 0 32 34" fill="none" xmlns="http://www.w3.org/2000/svg">
<path d="M26 14.8941V15.4241C26 26.4241 16 31.0341 14 31.8541C12 31.0341 2 26.4141 2 15.4241V8.63414C4.10947 8.0277 6.17441 7.27591 8.18 6.38414C10.1857 5.51713 12.1302 4.51483 14 3.38414C15 4.02414 16.2 4.65414 17.43 5.27414L18.43 3.53414C17.0948 2.8784 15.7963 2.15067 14.54 1.35414L14 0.994141L13.46 1.34414C11.5182 2.56762 9.48556 3.64076 7.38 4.55414C5.23629 5.51058 3.01915 6.2931 0.75 6.89414L0 7.08414V15.4241C0 28.8141 13.53 33.8241 13.66 33.8741L14 33.9941L14.34 33.8741C14.48 33.8741 28 28.8241 28 15.4241V14.8941H26Z" fill="white"/>
<path d="M22.8504 0.633954L17.1304 10.494C16.9973 10.6893 16.9209 10.9176 16.9097 11.1537C16.8984 11.3898 16.9527 11.6244 17.0666 11.8315C17.1806 12.0386 17.3496 12.2101 17.555 12.327C17.7604 12.444 17.9942 12.5017 18.2304 12.494H29.6804C29.9166 12.5017 30.1504 12.444 30.3558 12.327C30.5612 12.2101 30.7302 12.0386 30.8441 11.8315C30.958 11.6244 31.0123 11.3898 31.0011 11.1537C30.9898 10.9176 30.9135 10.6893 30.7804 10.494L25.0604 0.633954C24.9476 0.44101 24.7862 0.280965 24.5923 0.169744C24.3985 0.058522 24.1789 0 23.9554 0C23.7319 0 23.5123 0.058522 23.3184 0.169744C23.1245 0.280965 22.9632 0.44101 22.8504 0.633954V0.633954Z" fill="#FF4562"/>
</svg>
