<svg width="31" height="32" viewBox="0 0 31 32" fill="none" xmlns="http://www.w3.org/2000/svg">
<path d="M12.86 14C11.4756 14 10.1222 13.5895 8.97104 12.8203C7.8199 12.0511 6.92269 10.9579 6.39288 9.67879C5.86306 8.3997 5.72444 6.99224 5.99454 5.63437C6.26463 4.2765 6.93132 3.02922 7.91029 2.05026C8.88925 1.07129 10.1365 0.404603 11.4944 0.134506C12.8523 -0.13559 14.2597 0.00303298 15.5388 0.532846C16.8179 1.06266 17.9112 1.95987 18.6803 3.11101C19.4495 4.26216 19.86 5.61553 19.86 7C19.86 8.85652 19.1225 10.637 17.8098 11.9498C16.497 13.2625 14.7165 14 12.86 14ZM12.86 2.08C11.8711 2.08 10.9044 2.37325 10.0822 2.92266C9.25994 3.47206 8.61907 4.25296 8.24064 5.16659C7.8622 6.08022 7.76318 7.08555 7.95611 8.05546C8.14903 9.02536 8.62524 9.91628 9.3245 10.6155C10.0238 11.3148 10.9147 11.791 11.8846 11.9839C12.8545 12.1769 13.8598 12.0778 14.7734 11.6994C15.6871 11.321 16.468 10.6801 17.0174 9.85785C17.5668 9.03561 17.86 8.06891 17.86 7.08C17.86 6.42339 17.7307 5.77321 17.4794 5.16659C17.2282 4.55996 16.8599 4.00876 16.3956 3.54447C15.9313 3.08018 15.3801 2.71188 14.7734 2.46061C14.1668 2.20933 13.5166 2.08 12.86 2.08V2.08ZM18.43 15.21C13.0185 13.9923 7.35706 14.5788 2.31003 16.88C1.61593 17.2116 1.0303 17.7335 0.621333 18.385C0.21237 19.0365 -0.00309301 19.7908 3.35493e-05 20.56V26.51C3.35465e-05 26.6413 0.0258995 26.7714 0.0761542 26.8927C0.126409 27.014 0.200068 27.1243 0.292927 27.2171C0.385785 27.31 0.496024 27.3836 0.61735 27.4339C0.738676 27.4841 0.868712 27.51 1.00003 27.51C1.13136 27.51 1.26139 27.4841 1.38272 27.4339C1.50404 27.3836 1.61428 27.31 1.70714 27.2171C1.8 27.1243 1.87366 27.014 1.92391 26.8927C1.97417 26.7714 2.00003 26.6413 2.00003 26.51V20.56C1.99133 20.1707 2.09645 19.7873 2.30251 19.4569C2.50857 19.1265 2.8066 18.8635 3.16003 18.7C6.2003 17.2962 9.51135 16.576 12.86 16.59C14.7363 16.5876 16.6062 16.8092 18.43 17.25V15.21ZM18.57 24.72H24.71V26.12H18.57V24.72Z" fill="white"/>
<path d="M29.5997 18.7801H24.4297V20.7801H28.5997V29.1501H14.4297V20.7801H20.7297V21.2001C20.7297 21.4653 20.835 21.7196 21.0226 21.9072C21.2101 22.0947 21.4645 22.2001 21.7297 22.2001C21.9949 22.2001 22.2493 22.0947 22.4368 21.9072C22.6243 21.7196 22.7297 21.4653 22.7297 21.2001V17.3101C22.7297 17.0448 22.6243 16.7905 22.4368 16.603C22.2493 16.4154 21.9949 16.3101 21.7297 16.3101C21.4645 16.3101 21.2101 16.4154 21.0226 16.603C20.835 16.7905 20.7297 17.0448 20.7297 17.3101V18.7801H13.4297C13.1645 18.7801 12.9101 18.8854 12.7226 19.073C12.535 19.2605 12.4297 19.5148 12.4297 19.7801V30.1501C12.4297 30.4153 12.535 30.6696 12.7226 30.8572C12.9101 31.0447 13.1645 31.1501 13.4297 31.1501H29.5997C29.8649 31.1501 30.1193 31.0447 30.3068 30.8572C30.4943 30.6696 30.5997 30.4153 30.5997 30.1501V19.7801C30.5997 19.5148 30.4943 19.2605 30.3068 19.073C30.1193 18.8854 29.8649 18.7801 29.5997 18.7801Z" fill="#2F90B0"/>
</svg>
