<svg width="38" height="34" viewBox="0 0 38 34" fill="none" xmlns="http://www.w3.org/2000/svg">
<path d="M34.5455 14.0717V29.7668L26.0703 21.2917L24.4467 22.9153L32.7721 31.2523H4.21455L12.2752 22.9153L10.617 21.3147L2.30303 29.9165V9.97228L16.6164 24.2165C17.0479 24.6455 17.6316 24.8862 18.24 24.8862C18.8484 24.8862 19.4321 24.6455 19.8636 24.2165L30.0315 14.1062C29.2201 13.8944 28.4441 13.5647 27.7285 13.1274L18.217 22.5814L3.81152 8.22198H23.963C23.7404 7.47398 23.6203 6.69924 23.6061 5.91895H2.30303C1.69223 5.91895 1.10644 6.16159 0.674542 6.59349C0.24264 7.02539 0 7.61117 0 8.22198V31.2523C0 31.8631 0.24264 32.4489 0.674542 32.8808C1.10644 33.3127 1.69223 33.5553 2.30303 33.5553H34.5455C35.1563 33.5553 35.742 33.3127 36.1739 32.8808C36.6058 32.4489 36.8485 31.8631 36.8485 31.2523V13.0583C36.1348 13.5075 35.3588 13.8489 34.5455 14.0717Z" fill="white"/>
<path d="M32.242 11.5152C35.4218 11.5152 37.9995 8.9374 37.9995 5.75758C37.9995 2.57775 35.4218 0 32.242 0C29.0621 0 26.4844 2.57775 26.4844 5.75758C26.4844 8.9374 29.0621 11.5152 32.242 11.5152Z" fill="#FF4562"/>
</svg>
