<svg width="18" height="18" viewBox="0 0 18 18" fill="none" xmlns="http://www.w3.org/2000/svg">
<path d="M15.5272 9.228C15.6274 9.09278 15.6274 8.90769 15.5272 8.77247C15.4689 8.69216 14.8058 7.79943 13.6767 6.92507C12.5458 6.04922 10.9396 5.18589 9.0008 5.18589C7.06195 5.18589 5.45577 6.04922 4.32485 6.92507C3.19565 7.79958 2.53247 8.69247 2.47435 8.77251C2.37424 8.90771 2.37424 9.09275 2.47435 9.22796C2.53251 9.30804 3.19639 10.2009 4.32594 11.0754C5.45719 11.9512 7.06336 12.8146 9.0008 12.8146C10.9396 12.8146 12.5458 11.9512 13.6767 11.0754C14.8057 10.201 15.4689 9.30832 15.5272 9.228ZM15.5272 9.228C15.5271 9.22815 15.527 9.22829 15.5269 9.22844L15.4466 9.16881L15.5276 9.22753C15.5274 9.22768 15.5273 9.22784 15.5272 9.228ZM9.0008 12.0431C7.49945 12.0431 6.19486 11.4369 5.19344 10.7424C4.25144 10.0891 3.58321 9.36152 3.27946 9.00037C3.58448 8.6391 4.25276 7.91143 5.19452 7.25808C6.19559 6.56359 7.49946 5.95733 9.0008 5.95733C10.5021 5.95733 11.8067 6.5636 12.8082 7.25809C13.7502 7.91137 14.4184 8.63894 14.7221 9.00009C14.4171 9.36137 13.7488 10.089 12.8071 10.7424C11.806 11.4369 10.5021 12.0431 9.0008 12.0431Z" fill="#D9D9D9" stroke="#D9D9D9" stroke-width="0.2"/>
<path d="M7.12241 8.99917C7.12241 10.0353 7.96468 10.8783 9.00022 10.8783C10.0358 10.8783 10.878 10.0326 10.878 8.99917C10.878 7.96555 10.0357 7.12266 9.00022 7.12266C7.96487 7.12266 7.12241 7.96288 7.12241 8.99917ZM7.83697 8.99917C7.83697 8.35931 8.35815 7.83759 9.00022 7.83759C9.64242 7.83759 10.1635 8.35687 10.1635 8.99917C10.1635 9.64175 9.64215 10.1633 9.00022 10.1633C8.35842 10.1633 7.83697 9.63931 7.83697 8.99917Z" fill="#D9D9D9" stroke="#D9D9D9" stroke-width="0.2"/>
<path d="M13.857 17.1002H16.7142C16.9266 17.1002 17.0999 16.9268 17.0999 16.7144V13.8573C17.0999 13.6449 16.9266 13.4715 16.7142 13.4715C16.5018 13.4715 16.3285 13.6449 16.3285 13.8573V16.3287H13.857C13.6446 16.3287 13.4713 16.5021 13.4713 16.7144C13.4713 16.9268 13.6446 17.1002 13.857 17.1002Z" fill="#D9D9D9" stroke="#D9D9D9" stroke-width="0.2"/>
<path d="M16.3285 4.14291C16.3285 4.35528 16.5018 4.52862 16.7142 4.52862C16.9266 4.52862 17.0999 4.35528 17.0999 4.14291V1.28572C17.0999 1.07334 16.9266 0.9 16.7142 0.9H13.857C13.6446 0.9 13.4713 1.07334 13.4713 1.28572C13.4713 1.49809 13.6446 1.67144 13.857 1.67144H16.3285V4.14291Z" fill="#D9D9D9" stroke="#D9D9D9" stroke-width="0.2"/>
<path d="M0.9 4.14291C0.9 4.35528 1.07334 4.52862 1.28572 4.52862C1.49809 4.52862 1.67144 4.35528 1.67144 4.14291V1.67144H4.14291C4.35528 1.67144 4.52862 1.49809 4.52862 1.28572C4.52862 1.07334 4.35528 0.9 4.14291 0.9H1.28572C1.07334 0.9 0.9 1.07334 0.9 1.28572V4.14291Z" fill="#D9D9D9" stroke="#D9D9D9" stroke-width="0.2"/>
<path d="M1.28572 17.1002H4.14291C4.35528 17.1002 4.52862 16.9268 4.52862 16.7144C4.52862 16.5021 4.35528 16.3287 4.14291 16.3287H1.67144V13.8573C1.67144 13.6449 1.49809 13.4715 1.28572 13.4715C1.07334 13.4715 0.9 13.6449 0.9 13.8573V16.7144C0.9 16.9268 1.07334 17.1002 1.28572 17.1002Z" fill="#D9D9D9" stroke="#D9D9D9" stroke-width="0.2"/>
</svg>
