<svg width="20" height="16" viewBox="0 0 20 16" fill="none" xmlns="http://www.w3.org/2000/svg">
<path d="M0 8C0.868842 3.44889 5.01618 0 10 0C14.9838 0 19.1302 3.44889 20 8C19.1312 12.5511 14.9838 16 10 16C5.01618 16 0.869766 12.5511 0 8ZM10 12.4444C11.2257 12.4444 12.4012 11.9762 13.2679 11.1427C14.1346 10.3092 14.6215 9.17874 14.6215 8C14.6215 6.82126 14.1346 5.6908 13.2679 4.8573C12.4012 4.02381 11.2257 3.55556 10 3.55556C8.7743 3.55556 7.59881 4.02381 6.73211 4.8573C5.86541 5.6908 5.3785 6.82126 5.3785 8C5.3785 9.17874 5.86541 10.3092 6.73211 11.1427C7.59881 11.9762 8.7743 12.4444 10 12.4444ZM10 10.6667C9.26458 10.6667 8.55928 10.3857 8.03926 9.88562C7.51924 9.38552 7.2271 8.70724 7.2271 8C7.2271 7.29276 7.51924 6.61448 8.03926 6.11438C8.55928 5.61428 9.26458 5.33333 10 5.33333C10.7354 5.33333 11.4407 5.61428 11.9607 6.11438C12.4808 6.61448 12.7729 7.29276 12.7729 8C12.7729 8.70724 12.4808 9.38552 11.9607 9.88562C11.4407 10.3857 10.7354 10.6667 10 10.6667Z" fill="#2F90B0"/>
</svg>
