<svg width="73" height="72" viewBox="0 0 73 72" fill="none" xmlns="http://www.w3.org/2000/svg">
<g filter="url(#filter0_d_59_12)">
<rect x="5" y="1.71143" width="63" height="60.5769" rx="10" fill="#0A2342"/>
</g>
<path d="M50.6646 23.8349C52.4648 26.9579 53.1858 30.5885 52.7159 34.1638C52.2459 37.739 50.6112 41.0591 48.0653 43.609C45.5194 46.1589 42.2045 47.7961 38.6349 48.2668C35.0652 48.7375 31.4402 48.0154 28.3222 46.2123C25.2041 44.4093 22.7671 41.6261 21.3893 38.2945C20.0114 34.9628 19.7697 31.269 20.7016 27.7857C21.6335 24.3025 23.6869 21.2246 26.5434 19.0294C29.3998 16.8342 32.8997 15.6443 36.5001 15.6443" stroke="white" stroke-width="2" stroke-linecap="round" stroke-linejoin="round"/>
<path d="M36.5 15.6443V29.6854" stroke="white" stroke-width="2" stroke-linecap="round" stroke-linejoin="round"/>
<path d="M38.8363 32.0256C38.8363 32.6463 38.5902 33.2415 38.152 33.6803C37.7138 34.1192 37.1195 34.3658 36.4999 34.3658C36.193 34.3658 35.8892 34.3053 35.6057 34.1877C35.3222 34.0701 35.0646 33.8977 34.8476 33.6804C34.6306 33.4631 34.4585 33.2051 34.3411 32.9212C34.2236 32.6372 34.1632 32.3329 34.1632 32.0256C34.1632 31.7183 34.2236 31.4139 34.341 31.13C34.4585 30.846 34.6306 30.588 34.8476 30.3707C35.0645 30.1534 35.3221 29.981 35.6056 29.8634C35.8891 29.7458 36.193 29.6853 36.4999 29.6853C36.8067 29.6853 37.1105 29.7458 37.394 29.8635C37.6775 29.9811 37.9351 30.1535 38.1521 30.3708C38.369 30.5881 38.5411 30.8461 38.6585 31.13C38.7759 31.414 38.8364 31.7183 38.8363 32.0256V32.0256Z" stroke="#FF4562" stroke-width="2" stroke-linecap="round" stroke-linejoin="round"/>
<path d="M44.5926 27.3451C45.6213 29.1297 46.0333 31.2043 45.7648 33.2473C45.4962 35.2903 44.5621 37.1875 43.1073 38.6446C41.6525 40.1017 39.7583 41.0372 37.7185 41.3062C35.6787 41.5752 33.6073 41.1625 31.8255 40.1322C30.0437 39.1019 28.6512 37.5115 27.8639 35.6077C27.0766 33.7039 26.9384 31.5932 27.4709 29.6027C28.0035 27.6124 29.1768 25.8536 30.809 24.5992C32.4412 23.3448 34.4411 22.6648 36.4985 22.6648" stroke="white" stroke-width="2" stroke-linecap="round" stroke-linejoin="round"/>
<defs>
<filter id="filter0_d_59_12" x="0" y="0.711426" width="73" height="70.5769" filterUnits="userSpaceOnUse" color-interpolation-filters="sRGB">
<feFlood flood-opacity="0" result="BackgroundImageFix"/>
<feColorMatrix in="SourceAlpha" type="matrix" values="0 0 0 0 0 0 0 0 0 0 0 0 0 0 0 0 0 0 127 0" result="hardAlpha"/>
<feOffset dy="4"/>
<feGaussianBlur stdDeviation="2.5"/>
<feComposite in2="hardAlpha" operator="out"/>
<feColorMatrix type="matrix" values="0 0 0 0 0 0 0 0 0 0 0 0 0 0 0 0 0 0 0.19 0"/>
<feBlend mode="normal" in2="BackgroundImageFix" result="effect1_dropShadow_59_12"/>
<feBlend mode="normal" in="SourceGraphic" in2="effect1_dropShadow_59_12" result="shape"/>
</filter>
</defs>
</svg>
