<svg width="36" height="36" viewBox="0 0 36 36" fill="none" xmlns="http://www.w3.org/2000/svg">
<path fill-rule="evenodd" clip-rule="evenodd" d="M5.40002 9C5.40002 8.00589 6.20592 7.2 7.20002 7.2H28.8C29.7942 7.2 30.6 8.00589 30.6 9C30.6 9.9941 29.7942 10.8 28.8 10.8H7.20002C6.20592 10.8 5.40002 9.9941 5.40002 9Z" fill="white"/>
<path fill-rule="evenodd" clip-rule="evenodd" d="M5.40002 18C5.40002 17.0059 6.20592 16.2 7.20002 16.2H28.8C29.7942 16.2 30.6 17.0059 30.6 18C30.6 18.9941 29.7942 19.8 28.8 19.8H7.20002C6.20592 19.8 5.40002 18.9941 5.40002 18Z" fill="white"/>
<path fill-rule="evenodd" clip-rule="evenodd" d="M5.40002 27C5.40002 26.0059 6.20592 25.2 7.20002 25.2H28.8C29.7942 25.2 30.6 26.0059 30.6 27C30.6 27.9941 29.7942 28.8 28.8 28.8H7.20002C6.20592 28.8 5.40002 27.9941 5.40002 27Z" fill="white"/>
</svg>
