<svg width="20" height="21" viewBox="0 0 20 21" fill="none" xmlns="http://www.w3.org/2000/svg">
<path d="M4.16797 12.5196V6.67712" stroke="#4D4D70" stroke-width="1.4" stroke-linecap="round" stroke-linejoin="round"/>
<path d="M4.3763 18.362C5.87207 18.362 7.08463 17.1476 7.08463 15.6495C7.08463 14.1513 5.87207 12.9369 4.3763 12.9369C2.88053 12.9369 1.66797 14.1513 1.66797 15.6495C1.66797 17.1476 2.88053 18.362 4.3763 18.362Z" stroke="#4D4D70" stroke-width="1.4" stroke-linecap="round" stroke-linejoin="round"/>
<path d="M4.16797 6.67713C5.54868 6.67713 6.66797 5.55609 6.66797 4.17322C6.66797 2.79035 5.54868 1.66931 4.16797 1.66931C2.78726 1.66931 1.66797 2.79035 1.66797 4.17322C1.66797 5.55609 2.78726 6.67713 4.16797 6.67713Z" stroke="#4D4D70" stroke-width="1.4" stroke-linecap="round" stroke-linejoin="round"/>
<path d="M15.832 6.67713C17.2127 6.67713 18.332 5.55609 18.332 4.17322C18.332 2.79035 17.2127 1.66931 15.832 1.66931C14.4513 1.66931 13.332 2.79035 13.332 4.17322C13.332 5.55609 14.4513 6.67713 15.832 6.67713Z" stroke="#4D4D70" stroke-width="1.4" stroke-linecap="round" stroke-linejoin="round"/>
<path d="M4.27539 12.5195C4.65039 11.0589 5.98372 9.97388 7.55872 9.98222L10.4171 9.99058C12.6004 9.99893 14.4587 8.59673 15.1421 6.64368" stroke="#4D4D70" stroke-width="1.4" stroke-linecap="round" stroke-linejoin="round"/>
</svg>
