<svg width="35" height="35" viewBox="0 0 35 35" fill="none" xmlns="http://www.w3.org/2000/svg">
<path d="M33.0133 12.4808C32.371 12.7748 31.6921 12.981 30.9948 13.0937C32.11 16.2689 32.1136 19.7286 31.0049 22.9061C29.8962 26.0835 27.7411 28.79 24.8927 30.5822C22.0443 32.3743 18.6716 33.1457 15.3273 32.7698C11.9831 32.394 8.86571 30.8934 6.48609 28.5137C4.10648 26.1341 2.60579 23.0167 2.22999 19.6725C1.85418 16.3283 2.62555 12.9556 4.41767 10.1072C6.20979 7.25875 8.91635 5.1036 12.0938 3.99493C15.2712 2.88626 18.731 2.88983 21.9061 4.00506C22.0187 3.30771 22.2249 2.62874 22.5191 1.98654C18.8902 0.73178 14.9432 0.744537 11.3225 2.02272C7.70191 3.30091 4.62166 5.76898 2.58486 9.02386C0.548058 12.2787 -0.324917 16.1281 0.108508 19.9431C0.541933 23.7582 2.25615 27.3136 4.97117 30.0287C7.6862 32.7437 11.2416 34.4579 15.0567 34.8913C18.8718 35.3247 22.7211 34.4518 25.976 32.415C29.2308 30.3782 31.6989 27.2979 32.9771 23.6773C34.2553 20.0566 34.268 16.1096 33.0133 12.4808V12.4808Z" fill="#0A2342"/>
<path d="M19.4119 5.04099C21.2701 7.03758 22.6728 9.41378 23.5229 12.0054H17.8267V4.86133H16.2414V12.016H10.5452C11.397 9.41966 12.8034 7.03965 14.6668 5.04099C13.746 5.20765 12.846 5.4734 11.9824 5.8336C10.6207 7.70906 9.58129 9.79854 8.90708 12.016H5.34559C5.06508 12.5723 4.82491 13.1479 4.62695 13.7386H8.46322C8.1655 15.1281 8.0132 16.5449 8.00878 17.9659C8.0117 19.5203 8.18895 21.0694 8.53719 22.5842H4.79604C5.01468 23.1766 5.27605 23.7523 5.57809 24.3068H8.99163C9.63862 26.3315 10.5978 28.2427 11.8345 29.9714C12.7201 30.3513 13.6452 30.6313 14.5928 30.8063C12.868 28.9249 11.5415 26.7141 10.6931 24.3068H16.252V31.0071H17.8372V24.3068H23.375C22.5237 26.7151 21.1936 28.926 19.4647 30.8063C20.4168 30.6252 21.3455 30.3381 22.2336 29.9503C23.4683 28.2281 24.4274 26.3241 25.0765 24.3068H28.4583C28.7589 23.7626 29.0203 23.1975 29.2403 22.6159H25.4886C25.8369 21.1011 26.0141 19.552 26.017 17.9976C26.0126 16.5766 25.8603 15.1599 25.5626 13.7703H29.3672C29.3037 13.5907 29.2403 13.4216 29.1664 13.2525C27.8657 13.171 26.6057 12.7679 25.4992 12.0794H25.1187C25.1187 11.9632 25.0342 11.8575 25.0025 11.7412C24.0577 11.0521 23.2776 10.1619 22.7184 9.13484C22.1591 8.10779 21.8348 6.96945 21.7686 5.8019C21.0088 5.4745 20.2197 5.21972 19.4119 5.04099V5.04099ZM16.2414 22.5737H10.1753C9.43123 19.6651 9.39861 16.6202 10.0802 13.6964H16.2414V22.5737ZM24.4318 17.9659C24.4266 19.5233 24.2314 21.0742 23.8505 22.5842H17.8267V13.7386H23.9879C24.2915 15.127 24.4404 16.5448 24.4318 17.9659Z" fill="#0A2342"/>
<path d="M29.7157 10.5682C32.6341 10.5682 34.9999 8.20244 34.9999 5.28411C34.9999 2.36578 32.6341 0 29.7157 0C26.7974 0 24.4316 2.36578 24.4316 5.28411C24.4316 8.20244 26.7974 10.5682 29.7157 10.5682Z" fill="#2F90B0"/>
</svg>
