<svg width="49" height="50" viewBox="0 0 49 50" fill="none" xmlns="http://www.w3.org/2000/svg">
<path d="M10.2109 30.6948V16.3808" stroke="white" stroke-width="2" stroke-linecap="round" stroke-linejoin="round"/>
<path d="M10.7214 45.0088C14.386 45.0088 17.3568 42.0334 17.3568 38.3631C17.3568 34.6927 14.386 31.7173 10.7214 31.7173C7.05671 31.7173 4.08594 34.6927 4.08594 38.3631C4.08594 42.0334 7.05671 45.0088 10.7214 45.0088Z" stroke="white" stroke-width="2" stroke-linecap="round" stroke-linejoin="round"/>
<path d="M10.2109 16.3808C13.5937 16.3808 16.3359 13.6342 16.3359 10.2462C16.3359 6.85816 13.5937 4.11161 10.2109 4.11161C6.82819 4.11161 4.08594 6.85816 4.08594 10.2462C4.08594 13.6342 6.82819 16.3808 10.2109 16.3808Z" stroke="white" stroke-width="2" stroke-linecap="round" stroke-linejoin="round"/>
<path d="M38.7891 16.3808C42.1718 16.3808 44.9141 13.6342 44.9141 10.2462C44.9141 6.85816 42.1718 4.11161 38.7891 4.11161C35.4063 4.11161 32.6641 6.85816 32.6641 10.2462C32.6641 13.6342 35.4063 16.3808 38.7891 16.3808Z" stroke="white" stroke-width="2" stroke-linecap="round" stroke-linejoin="round"/>
<path d="M10.4707 30.6948C11.3895 27.1163 14.6561 24.458 18.5149 24.4784L25.5178 24.4989C30.867 24.5193 35.4199 21.0839 37.094 16.299" stroke="white" stroke-width="2" stroke-linecap="round" stroke-linejoin="round"/>
</svg>
