<svg width="545" height="435" viewBox="0 0 545 435" fill="none" xmlns="http://www.w3.org/2000/svg">
<path d="M32.5786 411.14C32.5786 411.14 9.25339 409.733 12.0014 426.083C12.0014 426.083 11.4496 428.969 14.0707 430.283C14.0707 430.283 14.1149 429.069 16.4656 429.482C17.3021 429.623 18.1523 429.664 18.9984 429.604C20.1438 429.526 21.2325 429.076 22.0996 428.324V428.324C22.0996 428.324 28.6552 425.614 31.2101 414.898C31.2101 414.898 33.0973 412.558 33.02 411.957L29.0856 413.612C29.0856 413.612 30.4265 416.454 29.3725 418.81C29.3725 418.81 29.2401 413.717 28.4841 413.844C28.3296 413.872 26.4424 414.832 26.4424 414.832C26.4424 414.832 28.7545 419.798 26.9942 423.374C26.9942 423.374 27.6564 417.276 25.703 415.185L22.9439 416.807C22.9439 416.807 25.6533 421.917 23.8158 426.083C23.8158 426.083 24.2848 419.688 22.3645 417.199L19.8537 419.158C19.8537 419.158 22.3921 424.196 20.8415 427.65C20.8415 427.65 20.6428 420.206 19.3074 419.644C19.3074 419.644 17.1002 421.58 16.7746 422.403C16.7746 422.403 18.5183 426.056 17.4368 427.987C17.4368 427.987 16.7746 423.021 16.2338 423.021C16.2338 423.021 14.0266 426.304 13.8169 428.539C13.8169 428.539 13.9107 425.184 15.6986 422.684C14.4366 422.921 13.272 423.524 12.3491 424.417C12.3491 424.417 12.6912 422.094 16.2394 421.889C16.2394 421.889 18.0493 419.401 18.5349 419.246C18.5349 419.246 15.0033 418.954 12.8623 419.903C12.8623 419.903 14.7439 417.696 19.1805 418.706L21.6637 416.68C21.6637 416.68 17.0119 416.046 15.0419 416.747C15.0419 416.747 17.3099 414.81 22.3314 416.222L25.0298 414.611C25.0298 414.611 21.0622 413.756 18.7004 414.059C18.7004 414.059 21.1946 412.713 25.8188 414.17L27.7502 413.303C27.7502 413.303 24.8421 412.751 23.9923 412.641C23.1425 412.531 23.0984 412.316 23.0984 412.316C24.9387 412.009 26.828 412.219 28.5558 412.922C28.5558 412.922 32.6503 411.399 32.5786 411.14Z" fill="#EC647C"/>
<path opacity="0.1" d="M16.5103 434.498C25.6287 434.498 33.0206 433.248 33.0206 431.706C33.0206 430.164 25.6287 428.914 16.5103 428.914C7.3919 428.914 0 430.164 0 431.706C0 433.248 7.3919 434.498 16.5103 434.498Z" fill="#EC647C"/>
<path d="M544.734 374.009C544.734 374.009 531.579 373.214 533.146 382.429C533.066 382.898 533.136 383.379 533.346 383.806C533.556 384.232 533.896 384.581 534.316 384.802C534.316 384.802 534.316 384.118 535.663 384.35C536.135 384.427 536.614 384.449 537.092 384.416C537.737 384.373 538.351 384.121 538.841 383.698C538.841 383.698 542.538 382.17 543.978 376.128C543.978 376.128 545.038 374.809 544.999 374.472L542.792 375.421C542.792 375.421 543.548 377.021 542.952 378.357C542.952 378.357 542.88 375.482 542.455 375.548C542.367 375.548 541.297 376.1 541.297 376.1C541.297 376.1 542.604 378.859 541.622 380.912C541.622 380.912 541.992 377.479 540.894 376.299L539.327 377.209C539.327 377.209 540.855 380.095 539.818 382.446C539.818 382.446 540.088 378.837 539.001 377.435L537.583 378.539C537.583 378.539 539.018 381.375 538.135 383.329C538.135 383.329 538.019 379.129 537.268 378.815C536.731 379.268 536.251 379.785 535.839 380.354C535.839 380.354 536.821 382.413 536.214 383.505C536.214 383.505 535.839 380.708 535.53 380.697C535.53 380.697 534.3 382.545 534.173 383.814C534.229 382.637 534.595 381.495 535.232 380.503C534.52 380.639 533.864 380.98 533.345 381.486C533.345 381.486 533.538 380.172 535.552 380.056C535.552 380.056 536.573 378.655 536.849 378.567C536.849 378.567 534.857 378.401 533.648 378.936C533.648 378.936 534.713 377.7 537.213 378.263L538.609 377.121C538.609 377.121 535.988 376.762 534.879 377.159C534.879 377.159 536.159 376.056 538.984 376.861L540.507 375.951C539.338 375.695 538.139 375.593 536.943 375.647C536.943 375.647 538.344 374.886 540.954 375.708L542.058 375.217C542.058 375.217 540.403 374.897 539.945 374.847C539.487 374.798 539.437 374.665 539.437 374.665C540.475 374.493 541.541 374.611 542.516 375.007C542.516 375.007 544.773 374.152 544.734 374.009Z" fill="#EC647C"/>
<path opacity="0.1" d="M535.673 387.175C540.815 387.175 544.982 386.471 544.982 385.602C544.982 384.734 540.815 384.03 535.673 384.03C530.532 384.03 526.364 384.734 526.364 385.602C526.364 386.471 530.532 387.175 535.673 387.175Z" fill="#EC647C"/>
<path d="M517.684 399.1C517.684 399.1 501.803 398.145 503.701 409.281C503.605 409.846 503.69 410.427 503.943 410.942C504.197 411.456 504.607 411.877 505.114 412.144C505.114 412.144 505.114 411.317 506.77 411.593C507.34 411.689 507.92 411.717 508.497 411.675C509.275 411.621 510.015 411.315 510.605 410.804C510.605 410.804 515.069 408.96 516.802 401.666C516.802 401.666 518.087 400.071 518.038 399.662L515.356 400.81C515.356 400.81 516.272 402.742 515.554 404.347C515.554 404.347 515.466 400.876 514.953 400.959C514.848 400.959 513.557 401.627 513.557 401.627C513.557 401.627 515.135 404.998 513.943 407.443C513.943 407.443 514.396 403.293 513.066 401.875L511.179 402.979C511.179 402.979 513.022 406.461 511.775 409.297C511.775 409.297 512.095 404.943 510.781 403.227L509.076 404.557C509.076 404.557 510.803 407.989 509.749 410.34C509.749 410.34 509.611 405.274 508.701 404.894C508.701 404.894 507.205 406.207 506.979 406.753C506.979 406.753 508.166 409.242 507.432 410.555C507.432 410.555 506.979 407.178 506.61 407.162C506.61 407.162 505.12 409.396 504.954 410.93C505.029 409.513 505.472 408.14 506.24 406.946C505.38 407.109 504.586 407.52 503.955 408.127C503.955 408.127 504.187 406.549 506.604 406.411C506.604 406.411 507.835 404.712 508.166 404.607C508.166 404.607 505.76 404.408 504.303 405.054C504.303 405.054 505.589 403.564 508.607 404.242L510.296 402.863C510.296 402.863 507.128 402.427 505.787 402.907C505.787 402.907 507.332 401.588 510.754 402.548L512.591 401.445C512.591 401.445 509.893 400.865 508.287 401.075C508.287 401.075 509.981 400.159 513.132 401.152L514.445 400.562C514.445 400.562 512.464 400.17 511.89 400.109C511.317 400.049 511.278 399.889 511.278 399.889C512.53 399.68 513.816 399.824 514.992 400.303C514.992 400.303 517.729 399.276 517.684 399.1Z" fill="#EC647C"/>
<path opacity="0.1" d="M506.742 414.997C512.95 414.997 517.983 414.147 517.983 413.099C517.983 412.051 512.95 411.201 506.742 411.201C500.534 411.201 495.502 412.051 495.502 413.099C495.502 414.147 500.534 414.997 506.742 414.997Z" fill="#EC647C"/>
<path opacity="0.1" d="M444.481 408.8C472.62 408.8 495.43 405.24 495.43 400.849C495.43 396.457 472.62 392.897 444.481 392.897C416.343 392.897 393.532 396.457 393.532 400.849C393.532 405.24 416.343 408.8 444.481 408.8Z" fill="#EC647C"/>
<path opacity="0.1" d="M283.258 429.493C314.876 429.493 340.508 426.922 340.508 423.749C340.508 420.577 314.876 418.005 283.258 418.005C251.639 418.005 226.007 420.577 226.007 423.749C226.007 426.922 251.639 429.493 283.258 429.493Z" fill="#EC647C"/>
<path opacity="0.1" d="M109.806 423.788C133.806 423.788 153.261 422.587 153.261 421.106C153.261 419.625 133.806 418.424 109.806 418.424C85.8062 418.424 66.3506 419.625 66.3506 421.106C66.3506 422.587 85.8062 423.788 109.806 423.788Z" fill="#EC647C"/>
<path opacity="0.1" d="M186.96 18.8996C203.079 4.55247 228.385 1.6113 251.412 2.75355C323.749 6.34587 389.045 41.2702 445.529 80.7745C465.979 95.0721 486.11 110.484 499.381 130.178C526.42 170.262 518.385 225.797 480.818 258.823C468.032 270.058 452.537 278.688 436.628 286.309C408.342 299.889 377.822 310.787 345.723 313.899C322.828 316.107 299.652 314.313 276.895 311.223C213.304 302.593 150.888 283.522 98.576 250.91C75.6316 236.563 54.0005 218.794 44.5424 195.646C35.0843 172.497 41.1377 143.163 64.5677 129.461C74.2576 123.794 85.8457 121.234 97.1855 118.833C113.883 115.296 130.846 111.809 145.916 104.613C161.477 97.1855 179.902 82.8218 176.818 66.3832C173.518 48.7417 170.864 33.2468 186.96 18.8996Z" fill="#EC647C"/>
<path opacity="0.9" d="M320.527 216.19V110.826H334.874V79.3729H232.071V110.826H246.418V216.19C226.605 223.715 209.548 237.086 197.51 254.531C185.473 271.975 179.024 292.667 179.02 313.861C179.02 371.553 225.791 418.319 283.483 418.319C341.176 418.319 387.942 371.553 387.942 313.861C387.937 292.664 381.486 271.971 369.445 254.526C357.405 237.082 340.344 223.711 320.527 216.19V216.19Z" fill="#FFFDFB"/>
<path opacity="0.1" d="M320.526 110.501H246.396V111.919H320.526V110.501Z" fill="black"/>
<path d="M225.035 311.058C225.035 311.058 287.942 309.954 319.395 294.211C350.849 278.467 368.821 292.522 367.133 302.074C365.444 311.626 356.466 330.15 320.521 332.424C284.576 334.697 225.035 311.058 225.035 311.058Z" fill="#EC647C"/>
<path opacity="0.1" d="M225.035 311.058C225.035 311.058 287.942 309.954 319.395 294.211C350.849 278.467 368.821 292.522 367.133 302.074C365.444 311.626 356.466 330.15 320.521 332.424C284.576 334.697 225.035 311.058 225.035 311.058Z" fill="black"/>
<path d="M198.095 300.959C198.095 300.959 191.374 394.188 279.526 395.871C367.679 397.554 367.138 302.063 367.138 302.063C367.138 302.063 334.581 337.44 257.625 308.238C257.625 308.26 217.751 297.588 198.095 300.959Z" fill="#EC647C"/>
<path opacity="0.1" d="M366.852 302.4C365.091 323.876 353.674 391.104 279.56 389.686C206.908 388.312 198.681 324.798 198.035 302.455C197.632 314.446 197.991 394.304 279.544 395.866C367.718 397.521 367.155 302.057 367.155 302.057C367.155 302.057 367.045 302.195 366.852 302.4Z" fill="black"/>
<path opacity="0.3" d="M280.062 272.171C286.38 272.171 291.501 267.05 291.501 260.732C291.501 254.415 286.38 249.293 280.062 249.293C273.745 249.293 268.623 254.415 268.623 260.732C268.623 267.05 273.745 272.171 280.062 272.171Z" fill="#EC647C"/>
<path opacity="0.3" d="M286.595 222.05C290.505 222.05 293.675 218.88 293.675 214.97C293.675 211.06 290.505 207.89 286.595 207.89C282.685 207.89 279.516 211.06 279.516 214.97C279.516 218.88 282.685 222.05 286.595 222.05Z" fill="#EC647C"/>
<path opacity="0.3" d="M270.798 181.188C274.708 181.188 277.877 178.018 277.877 174.108C277.877 170.198 274.708 167.029 270.798 167.029C266.887 167.029 263.718 170.198 263.718 174.108C263.718 178.018 266.887 181.188 270.798 181.188Z" fill="#EC647C"/>
<path opacity="0.2" d="M210.136 269.556C209.529 274.379 209.65 280.415 213.96 282.667C210.346 280.78 225.162 259.38 223.06 255.01C218.562 245.684 210.688 265.075 210.136 269.556Z" fill="white"/>
<path opacity="0.3" d="M265.075 58.3489C271.392 58.3489 276.514 53.2274 276.514 46.9097C276.514 40.5921 271.392 35.4706 265.075 35.4706C258.757 35.4706 253.636 40.5921 253.636 46.9097C253.636 53.2274 258.757 58.3489 265.075 58.3489Z" fill="#EC647C"/>
<path opacity="0.3" d="M299.392 35.8017C304.088 35.8017 307.896 31.9946 307.896 27.2983C307.896 22.602 304.088 18.7948 299.392 18.7948C294.696 18.7948 290.889 22.602 290.889 27.2983C290.889 31.9946 294.696 35.8017 299.392 35.8017Z" fill="#EC647C"/>
<path opacity="0.3" d="M274.881 8.84006C277.322 8.84006 279.301 6.86115 279.301 4.42003C279.301 1.97892 277.322 0 274.881 0C272.44 0 270.461 1.97892 270.461 4.42003C270.461 6.86115 272.44 8.84006 274.881 8.84006Z" fill="#EC647C"/>
<path opacity="0.9" d="M156.61 145.226H64.165V172.646H78.2529V386.562C78.1971 390.819 78.9872 395.043 80.5774 398.992C82.1676 402.94 84.5262 406.533 87.5162 409.563C90.5062 412.592 94.0682 414.998 97.9954 416.639C101.923 418.281 106.137 419.127 110.393 419.127C114.65 419.127 118.864 418.281 122.791 416.639C126.718 414.998 130.28 412.592 133.27 409.563C136.26 406.533 138.619 402.94 140.209 398.992C141.799 395.043 142.589 390.819 142.534 386.562V172.646H156.61V145.226Z" fill="#FFFDFB"/>
<path d="M99.6689 221.112C99.6689 221.112 122.547 212.94 128.915 218.75C128.915 218.75 119.65 232.369 111.119 231.823C102.588 231.276 99.6689 221.112 99.6689 221.112Z" fill="#EC647C"/>
<path opacity="0.1" d="M99.6689 221.112C99.6689 221.112 122.547 212.94 128.915 218.75C128.915 218.75 119.65 232.369 111.119 231.823C102.588 231.276 99.6689 221.112 99.6689 221.112Z" fill="black"/>
<path d="M128.904 218.772V374.031C128.904 376.606 128.396 379.156 127.411 381.536C126.425 383.915 124.981 386.077 123.16 387.898C121.338 389.719 119.176 391.164 116.797 392.149C114.418 393.135 111.868 393.642 109.292 393.642C104.091 393.642 99.1026 391.576 95.4247 387.898C91.7469 384.22 89.6807 379.232 89.6807 374.031V218.772C89.6807 218.772 99.1222 216.228 108.017 221.68C116.913 227.132 128.904 218.772 128.904 218.772Z" fill="#EC647C"/>
<path opacity="0.1" d="M142.523 172.475H78.2422V173.739H142.523V172.475Z" fill="black"/>
<path opacity="0.1" d="M109.292 384.201C106.716 384.201 104.166 383.693 101.786 382.707C99.4062 381.721 97.2439 380.276 95.4228 378.455C93.6016 376.633 92.1572 374.47 91.1719 372.09C90.1867 369.71 89.6799 367.159 89.6807 364.584V374.389C89.6807 379.591 91.7469 384.579 95.4247 388.257C99.1026 391.935 104.091 394.001 109.292 394.001C114.493 394.001 119.482 391.935 123.16 388.257C126.837 384.579 128.904 379.591 128.904 374.389V364.584C128.904 367.159 128.398 369.71 127.412 372.09C126.427 374.47 124.983 376.633 123.162 378.455C121.34 380.276 119.178 381.721 116.798 382.707C114.419 383.693 111.868 384.201 109.292 384.201V384.201Z" fill="black"/>
<path opacity="0.3" d="M109.298 203.526C111.504 203.526 113.293 201.737 113.293 199.53C113.293 197.324 111.504 195.535 109.298 195.535C107.091 195.535 105.303 197.324 105.303 199.53C105.303 201.737 107.091 203.526 109.298 203.526Z" fill="#EC647C"/>
<path opacity="0.3" d="M122.37 187.909C123.775 187.909 124.914 186.77 124.914 185.365C124.914 183.96 123.775 182.822 122.37 182.822C120.965 182.822 119.826 183.96 119.826 185.365C119.826 186.77 120.965 187.909 122.37 187.909Z" fill="#EC647C"/>
<path opacity="0.3" d="M104.574 182.827C105.979 182.827 107.118 181.688 107.118 180.283C107.118 178.878 105.979 177.739 104.574 177.739C103.169 177.739 102.03 178.878 102.03 180.283C102.03 181.688 103.169 182.827 104.574 182.827Z" fill="#EC647C"/>
<path opacity="0.2" d="M83.219 250.49C82.612 255.313 82.7334 261.35 87.0431 263.602C83.4232 261.714 98.245 240.321 96.1425 235.945C91.6342 226.63 83.7709 246.015 83.219 250.49Z" fill="white"/>
<path opacity="0.3" d="M117.586 128.071C122.947 128.071 127.293 123.725 127.293 118.364C127.293 113.003 122.947 108.658 117.586 108.658C112.226 108.658 107.88 113.003 107.88 118.364C107.88 123.725 112.226 128.071 117.586 128.071Z" fill="#EC647C"/>
<path opacity="0.3" d="M88.4668 108.939C92.453 108.939 95.6845 105.708 95.6845 101.721C95.6845 97.7352 92.453 94.5037 88.4668 94.5037C84.4805 94.5037 81.249 97.7352 81.249 101.721C81.249 105.708 84.4805 108.939 88.4668 108.939Z" fill="#EC647C"/>
<path opacity="0.3" d="M109.265 86.0609C111.337 86.0609 113.017 84.3809 113.017 82.3086C113.017 80.2362 111.337 78.5562 109.265 78.5562C107.193 78.5562 105.513 80.2362 105.513 82.3086C105.513 84.3809 107.193 86.0609 109.265 86.0609Z" fill="#EC647C"/>
<path opacity="0.2" d="M443.471 50.8662C449.502 50.8662 454.392 45.977 454.392 39.9458C454.392 33.9147 449.502 29.0254 443.471 29.0254C437.44 29.0254 432.551 33.9147 432.551 39.9458C432.551 45.977 437.44 50.8662 443.471 50.8662Z" stroke="#EC647C" stroke-miterlimit="10"/>
<g opacity="0.2" filter="url(#filter0_d)">
<path d="M443.472 59.6842C454.373 59.6842 463.21 50.847 463.21 39.9458C463.21 29.0446 454.373 20.2074 443.472 20.2074C432.571 20.2074 423.733 29.0446 423.733 39.9458C423.733 50.847 432.571 59.6842 443.472 59.6842Z" stroke="#EC647C" stroke-miterlimit="10"/>
</g>
<path opacity="0.2" d="M443.471 71.0626C460.657 71.0626 474.588 57.1312 474.588 39.9458C474.588 22.7605 460.657 8.82904 443.471 8.82904C426.286 8.82904 412.354 22.7605 412.354 39.9458C412.354 57.1312 426.286 71.0626 443.471 71.0626Z" stroke="#EC647C" stroke-miterlimit="10"/>
<path d="M518.916 408.74C518.624 406.566 517.128 403.773 517.128 403.773L509.144 392.103H509.215C509.215 392.103 507.952 386.237 509.215 383.367C510.479 380.498 504.724 373.402 504.724 373.402C504.724 373.402 504.023 371.625 505.827 369.44C507.632 367.254 504.724 360.842 504.724 360.842C504.724 360.842 503.316 347.461 503.178 345.392C503.041 343.322 501.915 332.016 501.915 332.016L499.244 307.984L494.498 244.305L494.41 243.113C495.001 242.831 495.31 242.655 495.31 242.655L494.316 207.466L495.139 206.743C502.312 200.413 518.817 185.774 518.657 185.437C518.442 185.029 516.654 160.964 516.45 154.922C516.27 150.623 515.314 146.393 513.63 142.434C513.216 141.629 512.024 136.364 511.527 134.113L511.312 133.114C511.312 133.114 506.467 124.103 506.898 120.009C507.328 115.914 508.161 112.835 497.837 111.406C497.837 111.406 489.129 110.142 484.003 106.693C480.942 104.63 477.61 103 474.103 101.848C474.103 101.848 472.205 98.5375 470.357 99.1776V92.1475C471.776 91.5914 472.997 90.6242 473.863 89.3697C474.729 88.1152 475.201 86.6307 475.218 85.1063V59.7836C475.189 57.7268 474.344 55.7657 472.87 54.3315C471.395 52.8973 469.412 52.1074 467.355 52.1354H445.398C445.08 52.1433 444.763 52.171 444.449 52.2182V40.6301C444.449 40.4626 444.414 40.297 444.348 40.1433C444.282 39.9896 444.184 39.851 444.063 39.7361C443.817 39.495 443.486 39.3603 443.141 39.3609C442.8 39.3565 442.47 39.4876 442.225 39.7254C441.98 39.9633 441.839 40.2886 441.833 40.6301V53.0404C440.609 53.6792 439.582 54.6392 438.861 55.8173C438.141 56.9955 437.755 58.3475 437.744 59.7284V85.0511C437.761 86.5748 438.232 88.0589 439.097 89.3133C439.962 90.5677 441.182 91.5354 442.6 92.0923V98.7747C441.712 98.6699 440.393 99.2824 438.892 102.339C438.892 102.339 431.376 106.572 428.777 107.052C426.178 107.532 416.98 110.666 416.98 110.666C415.581 111.647 413.914 112.171 412.206 112.167C409.326 112.167 406.937 118.314 407.29 121.658C407.643 125.002 407.075 127.458 404.409 127.596C401.744 127.734 403.201 133.076 403.212 133.114C403.179 133.263 403.09 133.666 402.964 134.251C402.445 136.585 401.308 141.59 400.911 142.374C399.214 146.33 398.249 150.561 398.063 154.861C397.854 160.931 396.06 184.968 395.856 185.376C395.724 185.647 407.036 195.751 414.999 202.808L416.146 203.824L412.488 237.225C412.488 237.225 412.488 240.966 416.251 243.769C416.251 244.15 416.251 244.553 416.207 244.961C416.047 248.824 415.727 253.597 415.103 254.839C414 257.046 414.259 268.761 414.259 268.761C414.259 268.761 413.156 292.66 411.732 295.248C410.308 297.836 410.043 303.305 410.468 304.397C410.893 305.49 409.061 334.162 409.061 334.162L407.654 346.992C407.654 346.992 408.079 359.281 406.815 359.557C405.552 359.832 404.845 368.292 404.845 368.292C404.845 368.292 400.353 374.301 402.318 376.486C404.282 378.671 402.025 379.626 401.821 380.172C401.617 380.719 397.539 382.766 400.491 390.409C400.519 390.486 400.558 390.552 400.591 390.624C397.832 394.359 389.074 406.455 389.604 408.282C390.005 409.465 390.842 410.452 391.944 411.041C394.002 412.244 397.539 412.801 403.157 411.041C412.499 408.105 411.798 405.986 411.798 405.986C411.798 405.986 411.87 402.576 415.732 402.3C419.595 402.024 422.476 398.548 422.476 398.548L422.023 396.892L421.4 394.613C421.477 393.935 421.951 392.82 424.087 392.185C427.321 391.231 426.476 385.227 426.476 385.227C426.476 385.227 426.195 378.942 427.58 378.125C428.965 377.308 428.419 366.929 428.419 366.929C428.419 366.929 429.969 359.419 432.215 354.364C434.461 349.309 437.132 319.28 437.132 319.28C437.132 319.28 438.953 304.535 440.641 300.303C442.33 296.07 443.875 284.19 443.875 284.19C443.875 284.19 454.271 264.529 454.409 260.158C454.409 260.158 455.756 256.064 457.052 260.572C458.349 265.08 462.135 275.863 462.135 275.863L465.788 289.106L470.141 308.9L472.95 325.559C472.95 325.559 472.536 331.905 473.656 334.112C474.777 336.32 476.327 341.347 475.483 342.307C474.639 343.267 477.171 347.764 477.872 348.719C478.573 349.674 477.872 369.887 477.872 369.887C477.872 369.887 481.1 387.087 485.736 390.088C486.061 390.293 486.404 390.467 486.762 390.607C486.696 392.472 486.63 394.967 486.718 396.269C486.709 396.561 486.757 396.851 486.861 397.124C487.281 397.676 492.059 401.351 493.042 401.351C494.024 401.351 497.533 403.746 497.677 404.905C497.82 406.063 507.946 410.975 509.375 411.118C510.805 411.262 517.763 412.481 518.756 410.566C518.993 409.988 519.049 409.351 518.916 408.74V408.74ZM494.04 162.713L494.763 163.32C494.763 163.32 495.497 168.954 496.027 170.637C496.557 172.321 495.922 175.604 495.922 175.604C495.922 175.604 496.027 177.96 496.656 179.185C497.285 180.41 495.42 183.081 495.42 183.081H493.709L493.158 161.991L494.04 162.713ZM417.978 180.923C417.716 180.381 417.676 179.757 417.868 179.185C418.019 178.878 418.139 178.556 418.227 178.225C418.434 177.365 418.562 176.487 418.607 175.604C418.609 175.595 418.609 175.585 418.607 175.576C418.552 175.256 418.011 172.265 418.508 170.61C419.005 168.954 419.772 163.293 419.772 163.293L420.252 162.89L421.355 161.963C421.355 161.963 421.389 161.61 421.433 161.03C421.67 165.997 421.858 171.427 421.554 171.725C421.002 172.276 418.955 177.596 419.446 177.795C419.606 177.861 419.386 180.002 419.016 182.86C418.601 182.256 418.253 181.608 417.978 180.929V180.923Z" fill="url(#paint0_linear)"/>
<path d="M444.736 41.2095V57.946C444.736 58.2826 444.602 58.6054 444.364 58.8434C444.126 59.0815 443.803 59.2152 443.466 59.2152C443.13 59.2152 442.807 59.0815 442.569 58.8434C442.331 58.6054 442.197 58.2826 442.197 57.946V41.2095C442.197 41.0428 442.23 40.8778 442.294 40.7238C442.358 40.5698 442.451 40.4299 442.569 40.312C442.687 40.1942 442.827 40.1007 442.981 40.0369C443.135 39.9731 443.3 39.9403 443.466 39.9403C443.802 39.9432 444.123 40.0778 444.361 40.3152C444.598 40.5526 444.733 40.8738 444.736 41.2095Z" fill="#6F758D"/>
<path d="M469.864 85.9506V111.958C469.859 114.035 469.031 116.027 467.561 117.496C466.092 118.965 464.101 119.793 462.023 119.799H450.788C448.709 119.794 446.717 118.967 445.246 117.498C443.776 116.028 442.947 114.036 442.941 111.958V85.9506C442.949 83.8722 443.778 81.8812 445.248 80.4121C446.718 78.943 448.71 78.1151 450.788 78.1093H462.023C464.101 78.1151 466.092 78.9431 467.561 80.4124C469.031 81.8817 469.859 83.8727 469.864 85.9506V85.9506Z" fill="#6F758D"/>
<path d="M425.687 183.406L423.54 209.894C423.54 209.894 420.318 206.974 416.146 203.167C408.421 196.12 397.44 186.028 397.567 185.763C397.771 185.354 399.509 161.323 399.713 155.291C399.894 151.003 400.828 146.78 402.472 142.815C402.858 142.037 403.962 137.043 404.464 134.709C404.624 133.98 404.718 133.511 404.718 133.511L408.299 132.077C408.299 132.077 423.331 148.846 423.331 149.155C423.331 149.464 422.31 162.344 422.31 162.344L421.239 163.276L420.776 163.674C420.776 163.674 420.058 169.302 419.545 170.985C419.065 172.585 419.589 175.604 419.645 175.918V175.946C419.599 176.827 419.473 177.703 419.269 178.561C419.187 178.894 419.072 179.217 418.927 179.527C418.742 180.097 418.78 180.716 419.032 181.26C419.316 182.017 419.686 182.739 420.136 183.412L425.687 183.406Z" fill="#424266"/>
<path d="M516.785 185.757C516.945 186.077 500.91 200.711 493.962 207.03L490.812 209.888L488.665 183.401H494.183C494.183 183.401 496.026 180.741 495.414 179.538C494.801 178.335 494.696 175.957 494.696 175.957C494.696 175.957 495.309 172.685 494.801 170.991C494.294 169.297 493.571 163.679 493.571 163.679L492.87 163.05L492.037 162.322C492.037 162.322 491.005 149.459 491.005 149.15C491.005 148.841 506.036 132.071 506.036 132.071L509.612 133.506C509.612 133.506 509.695 133.892 509.822 134.505C510.307 136.712 511.477 142.009 511.863 142.809C513.51 146.774 514.444 150.997 514.622 155.286C514.843 161.317 516.581 185.349 516.785 185.757Z" fill="#424266"/>
<path d="M516.852 410.544C515.897 412.453 509.126 411.228 507.758 411.096C506.389 410.964 496.539 406.047 496.401 404.894C496.263 403.74 492.853 401.345 491.904 401.345C490.955 401.345 486.314 397.665 485.9 397.119C485.802 396.846 485.755 396.558 485.762 396.269C485.619 394.028 485.9 388.256 485.9 388.256L505.672 389.36L515.284 403.796C515.284 403.796 516.73 406.555 517.017 408.762C517.133 409.36 517.076 409.978 516.852 410.544V410.544Z" fill="#424266"/>
<path opacity="0.1" d="M516.852 410.544C515.897 412.453 509.126 411.228 507.758 411.096C506.389 410.964 496.539 406.047 496.401 404.894C496.263 403.74 492.853 401.345 491.904 401.345C490.955 401.345 486.314 397.665 485.9 397.119C485.802 396.846 485.755 396.558 485.762 396.269C485.619 394.028 485.9 388.256 485.9 388.256L505.672 389.36L515.284 403.796C515.284 403.796 516.73 406.555 517.017 408.762C517.133 409.36 517.076 409.978 516.852 410.544V410.544Z" fill="black"/>
<path opacity="0.1" d="M516.852 410.544C515.897 412.453 509.126 411.228 507.758 411.096C506.389 410.964 496.539 406.047 496.402 404.894C496.264 403.74 492.853 401.345 491.904 401.345C490.955 401.345 486.314 397.665 485.9 397.119C485.802 396.846 485.755 396.558 485.763 396.269L492.175 400.33C492.175 400.33 496.264 402.924 497.356 404.491C498.449 406.058 507.046 409.264 507.758 409.325C508.31 409.38 513.938 408.298 517.017 408.773C517.131 409.367 517.074 409.981 516.852 410.544V410.544Z" fill="black"/>
<path d="M423.392 398.614C423.392 398.614 420.594 402.09 416.847 402.361C415.861 402.371 414.916 402.758 414.206 403.442C413.496 404.126 413.075 405.056 413.029 406.041C413.029 406.041 413.713 408.16 404.647 411.09C399.189 412.856 395.757 412.299 393.754 411.09C392.676 410.493 391.867 409.506 391.491 408.331C390.879 406.152 402.941 389.57 402.941 389.57L413.917 388.885L421.758 392.434L422.956 396.92L423.392 398.614Z" fill="#424266"/>
<path opacity="0.1" d="M423.392 398.614C423.392 398.614 420.594 402.09 416.847 402.361C415.861 402.371 414.916 402.758 414.206 403.442C413.496 404.126 413.075 405.056 413.029 406.041C413.029 406.041 413.713 408.16 404.647 411.09C399.189 412.856 395.757 412.299 393.754 411.09C392.676 410.493 391.867 409.506 391.491 408.331C390.879 406.152 402.941 389.57 402.941 389.57L413.917 388.885L421.758 392.434L422.956 396.92L423.392 398.614Z" fill="black"/>
<path opacity="0.1" d="M423.391 398.614C423.391 398.614 420.593 402.09 416.846 402.361C415.86 402.371 414.916 402.758 414.206 403.442C413.496 404.126 413.074 405.056 413.028 406.041C413.028 406.041 413.712 408.16 404.646 411.09C399.188 412.856 395.756 412.299 393.753 411.09C398.901 410.539 410.269 407.305 411.411 406.179C412.774 404.811 414.479 401.064 415.638 400.998C416.438 400.948 420.521 398.487 422.971 396.964L423.391 398.614Z" fill="black"/>
<path d="M507.56 383.412C506.335 386.275 507.56 392.136 507.56 392.136C507.56 392.136 489.289 393.096 484.792 390.094C480.295 387.092 477.155 369.914 477.155 369.914C477.155 369.914 477.834 349.74 477.155 348.78C476.476 347.819 474.021 343.328 474.837 342.379C475.654 341.429 474.153 336.375 473.066 334.195C471.979 332.016 472.382 325.741 472.382 325.741L469.656 309.11L465.429 289.338L461.886 276.095C461.886 276.095 458.206 265.323 456.953 260.82C455.7 256.318 454.387 260.412 454.387 260.412C454.255 264.777 444.162 284.411 444.162 284.411C444.162 284.411 442.661 296.269 441.022 300.496C439.383 304.723 437.618 319.451 437.618 319.451C437.618 319.451 435.03 349.442 432.844 354.485C430.659 359.529 429.202 367.05 429.202 367.05C429.202 367.05 429.754 377.413 428.386 378.23C427.017 379.047 427.282 385.321 427.282 385.321C427.282 385.321 428.099 391.319 424.959 392.279C421.819 393.239 422.371 395.276 422.371 395.276C422.371 395.276 404.923 398.123 402.053 390.502C399.184 382.882 403.157 380.823 403.344 380.277C403.532 379.731 405.739 378.782 403.824 376.597C401.91 374.411 406.28 368.413 406.28 368.413C406.28 368.413 406.964 359.965 408.189 359.689C409.414 359.413 409.006 347.146 409.006 347.146L410.369 334.333C410.369 334.333 412.146 305.7 411.737 304.607C411.329 303.514 411.599 298.062 412.962 295.474C414.325 292.886 415.407 269.026 415.407 269.026C415.407 269.026 415.131 257.3 416.224 255.12C416.842 253.884 417.151 249.133 417.327 245.254C417.438 242.302 417.471 239.852 417.471 239.852L432.734 234.124L452.379 227.855L468.878 235.757L493.009 240.392L493.312 244.559L497.898 308.177L500.491 332.176C500.491 332.176 501.595 343.488 501.722 345.529C501.849 347.571 503.217 360.942 503.217 360.942C503.217 360.942 506.081 367.348 504.321 369.528C502.561 371.708 503.217 373.484 503.217 373.484C503.217 373.484 508.807 380.548 507.56 383.412Z" fill="#424266"/>
<path opacity="0.1" d="M478.954 108.829L472.685 220.56L438.594 213.403L431.846 168.612L438.528 108.487L443.561 109.132L452.439 110.263L461.23 110.81L470.754 109.745L478.954 108.829Z" fill="black"/>
<path d="M478.954 109.651L472.685 221.377L438.594 214.22L431.846 169.429L438.528 109.309L443.561 109.949L452.439 111.08L461.23 111.626L470.754 110.561L478.954 109.651Z" fill="white"/>
<path d="M450.933 112.647L463.205 113.056L459.756 117.884C459.756 117.884 459.999 127.64 461.638 130.438C463.277 133.236 462.797 176.454 462.797 176.454L459.552 182.656L453.962 175.703L454.028 118.646L450.933 112.647Z" fill="#424266"/>
<path opacity="0.1" d="M450.933 112.647L463.205 113.056L459.756 117.884C459.756 117.884 459.999 127.64 461.638 130.438C463.277 133.236 462.797 176.454 462.797 176.454L459.552 182.656L453.962 175.703L454.028 118.646L450.933 112.647Z" fill="black"/>
<path opacity="0.1" d="M470.157 99.9667L458.707 112.647L465.252 119.462L476.089 108.901L470.157 99.9667Z" fill="black"/>
<path d="M469.402 99.9832L458.702 111.825L465.247 118.646L476.106 108.078L470.803 100.088C470.731 99.972 470.632 99.8747 470.515 99.8039C470.398 99.7332 470.266 99.691 470.129 99.6808C469.993 99.6706 469.856 99.6926 469.729 99.7452C469.603 99.7977 469.491 99.8793 469.402 99.9832Z" fill="white"/>
<path opacity="0.1" d="M453.868 112.035L442.28 100.447L441.188 106.511L446.507 119.804L453.868 112.035Z" fill="black"/>
<path d="M454.276 111.218L442.688 99.6245L441.596 105.694L446.915 118.988L454.276 111.218Z" fill="white"/>
<path opacity="0.1" d="M493.295 244.559C487.741 247.216 481.789 248.948 475.676 249.685C464.43 251.12 457.068 236.806 457.068 236.806L452.775 242.395C451.412 248.327 430.614 249.823 422.166 247.571C420.413 247.141 418.765 246.36 417.321 245.276C417.432 242.324 417.465 239.874 417.465 239.874L432.733 234.124L452.378 227.855L468.877 235.757L493.008 240.392L493.295 244.559Z" fill="black"/>
<path opacity="0.1" d="M478.949 109.645L472.68 221.371L438.594 214.198L431.846 169.412L438.528 109.265L443.561 109.905C443.431 112.089 443.184 114.264 442.821 116.422C442.005 120.24 447.048 147.373 447.048 147.373C447.048 147.373 456.633 177.795 460.954 173.413C465.275 169.032 471.383 145.872 471.383 145.872C475.544 137.28 471.455 113.221 471.146 112.708C470.931 111.99 470.799 111.249 470.754 110.501L478.949 109.645Z" fill="black"/>
<path opacity="0.1" d="M493.676 196.082L493.962 207.03L490.812 209.888L488.665 183.401H493.367L493.676 196.082Z" fill="black"/>
<path opacity="0.1" d="M419.65 175.913V175.94C419.605 176.822 419.479 177.697 419.275 178.556C419.275 178.313 419.275 178.175 419.231 178.159C419.032 178.07 419.27 177.072 419.65 175.913Z" fill="black"/>
<path opacity="0.1" d="M425.687 183.406L423.541 209.894C423.541 209.894 420.318 206.974 416.146 203.167L416.643 198.476C416.643 198.476 418.403 186.944 419.044 181.26C419.327 182.017 419.698 182.739 420.147 183.412L425.687 183.406Z" fill="black"/>
<path d="M444.178 100.033C444.178 100.033 442.136 97.0365 439.344 102.831C439.344 102.831 432.049 107.057 429.527 107.532C427.006 108.007 418.077 111.146 418.077 111.146C416.728 112.124 415.103 112.65 413.436 112.647C410.644 112.647 408.327 118.778 408.669 122.122C409.011 125.466 408.465 127.916 405.871 128.054C403.278 128.192 404.712 133.572 404.712 133.572L421.962 153.344C421.962 153.344 423.066 171.553 422.514 172.105C421.962 172.657 419.986 177.966 420.467 178.175C420.947 178.385 417.873 198.493 417.873 198.493L413.712 237.545C413.712 237.545 413.712 244.084 422.166 246.335C430.62 248.587 451.412 247.086 452.775 241.154L457.068 235.564C457.068 235.564 464.43 249.911 475.676 248.449C486.921 246.986 494.084 242.931 494.084 242.931L492.853 196.098L492.037 162.355L509.623 133.522C509.623 133.522 504.922 124.522 505.33 120.433C505.738 116.344 506.561 113.26 496.54 111.842C496.54 111.842 488.086 110.584 483.108 107.14C480.148 105.083 476.912 103.453 473.496 102.301C473.496 102.301 471.233 98.2174 469.28 99.9832C469.28 99.9832 470.704 106.252 470.533 107.377C470.362 108.503 470.836 113.481 471.145 113.999C471.454 114.518 475.56 138.572 471.382 147.163C471.382 147.163 465.274 170.339 460.953 174.699C456.632 179.058 447.047 148.659 447.047 148.659C447.047 148.659 442.004 121.532 442.821 117.713C443.637 113.894 444.178 100.033 444.178 100.033Z" fill="#424266"/>
<path d="M458.773 189.41C460.431 189.41 461.775 188.066 461.775 186.408C461.775 184.75 460.431 183.406 458.773 183.406C457.115 183.406 455.771 184.75 455.771 186.408C455.771 188.066 457.115 189.41 458.773 189.41Z" fill="#424266"/>
<path d="M458.773 203.553C460.431 203.553 461.775 202.209 461.775 200.551C461.775 198.893 460.431 197.549 458.773 197.549C457.115 197.549 455.771 198.893 455.771 200.551C455.771 202.209 457.115 203.553 458.773 203.553Z" fill="#424266"/>
<path opacity="0.1" d="M458.773 189.41C460.431 189.41 461.775 188.066 461.775 186.408C461.775 184.75 460.431 183.406 458.773 183.406C457.115 183.406 455.771 184.75 455.771 186.408C455.771 188.066 457.115 189.41 458.773 189.41Z" fill="black"/>
<path opacity="0.1" d="M458.773 203.553C460.431 203.553 461.775 202.209 461.775 200.551C461.775 198.893 460.431 197.549 458.773 197.549C457.115 197.549 455.771 198.893 455.771 200.551C455.771 202.209 457.115 203.553 458.773 203.553Z" fill="black"/>
<path opacity="0.1" d="M485.725 379.323C485.725 379.323 498.036 380.277 499.266 381.232C500.497 382.186 485.725 379.323 485.725 379.323Z" fill="black"/>
<path opacity="0.1" d="M412.415 369.644C412.415 369.644 415.009 372.916 413.916 374.417C412.823 375.918 412.415 369.644 412.415 369.644Z" fill="black"/>
<path opacity="0.1" d="M415.55 381.425C415.55 381.425 420.323 378.291 422.232 380.377C424.142 382.462 415.55 381.425 415.55 381.425Z" fill="black"/>
<path opacity="0.1" d="M469.864 85.9506V93.825C468.88 94.2573 467.816 94.4809 466.741 94.4816H446.076C444.996 94.4823 443.928 94.2568 442.941 93.8195V85.9506C442.949 83.8722 443.778 81.8812 445.248 80.4121C446.718 78.943 448.71 78.1151 450.788 78.1093H462.023C464.101 78.1166 466.091 78.945 467.56 80.414C469.029 81.883 469.857 83.8732 469.864 85.9506V85.9506Z" fill="black"/>
<path opacity="0.1" d="M444.736 52.1354V57.9515C444.736 58.2881 444.602 58.6109 444.364 58.8489C444.126 59.087 443.803 59.2207 443.466 59.2207C443.13 59.2207 442.807 59.087 442.569 58.8489C442.331 58.6109 442.197 58.2881 442.197 57.9515V53.0569C442.981 52.5984 443.841 52.2862 444.736 52.1354V52.1354Z" fill="black"/>
<path d="M467.961 52.6651H444.851C441.194 52.6651 438.229 55.6298 438.229 59.2869V86.552C438.229 90.2091 441.194 93.1738 444.851 93.1738H467.961C471.618 93.1738 474.583 90.2091 474.583 86.552V59.2869C474.583 55.6298 471.618 52.6651 467.961 52.6651Z" fill="#DCDFED"/>
<path opacity="0.1" d="M466.725 79.7261V96.2419H446.076V79.693C447.432 78.6647 449.087 78.1085 450.789 78.1093H462.024C463.725 78.1228 465.375 78.6904 466.725 79.7261V79.7261Z" fill="black"/>
<path opacity="0.1" d="M466.968 52.6651H445.662V94.9065H466.968V52.6651Z" fill="black"/>
<path d="M466.742 52.6651H446.076V94.9065H466.742V52.6651Z" fill="#6F758D"/>
<path d="M454.276 67.2385H447.594V68.4746H454.276V67.2385Z" fill="#DCDFED"/>
<path d="M465.389 67.2385H458.707V68.4746H465.389V67.2385Z" fill="#DCDFED"/>
<path d="M462.046 80.8904H450.767V81.6298H462.046V80.8904Z" fill="#DCDFED"/>
<defs>
<filter id="filter0_d" x="419.233" y="19.7074" width="48.4768" height="48.4768" filterUnits="userSpaceOnUse" color-interpolation-filters="sRGB">
<feFlood flood-opacity="0" result="BackgroundImageFix"/>
<feColorMatrix in="SourceAlpha" type="matrix" values="0 0 0 0 0 0 0 0 0 0 0 0 0 0 0 0 0 0 127 0"/>
<feOffset dy="4"/>
<feGaussianBlur stdDeviation="2"/>
<feColorMatrix type="matrix" values="0 0 0 0 0 0 0 0 0 0 0 0 0 0 0 0 0 0 0.25 0"/>
<feBlend mode="normal" in2="BackgroundImageFix" result="effect1_dropShadow"/>
<feBlend mode="normal" in="SourceGraphic" in2="effect1_dropShadow" result="shape"/>
</filter>
<linearGradient id="paint0_linear" x1="454.266" y1="412.216" x2="454.266" y2="39.4161" gradientUnits="userSpaceOnUse">
<stop stop-color="#808080" stop-opacity="0.25"/>
<stop offset="0.54" stop-color="#808080" stop-opacity="0.12"/>
<stop offset="1" stop-color="#808080" stop-opacity="0.1"/>
</linearGradient>
</defs>
</svg>
