<svg width="17" height="17" viewBox="0 0 17 17" fill="none" xmlns="http://www.w3.org/2000/svg">
<g clip-path="url(#clip0_8440_38025)">
<path d="M14.6796 0H2.40007C1.12848 0 0.0976562 1.03082 0.0976562 2.30241V14.5819C0.0976562 15.8535 1.12848 16.8843 2.40007 16.8843H14.6796C15.9512 16.8843 16.982 15.8535 16.982 14.5819V2.30241C16.982 1.03082 15.9512 0 14.6796 0Z" fill="#9897B0"/>
<path d="M5.37226 4.22129C5.37226 4.43 5.31037 4.63403 5.19442 4.80756C5.07846 4.9811 4.91365 5.11636 4.72082 5.19623C4.528 5.2761 4.31582 5.297 4.11112 5.25628C3.90641 5.21556 3.71838 5.11506 3.5708 4.96748C3.42322 4.81989 3.32271 4.63186 3.282 4.42716C3.24128 4.22246 3.26218 4.01028 3.34205 3.81745C3.42192 3.62463 3.55717 3.45982 3.73071 3.34386C3.90425 3.22791 4.10828 3.16602 4.31699 3.16602C4.59687 3.16602 4.86528 3.2772 5.06318 3.4751C5.26108 3.673 5.37226 3.94141 5.37226 4.22129Z" fill="#F2F2F5"/>
<path d="M5.37226 6.70454V13.3449C5.3725 13.3939 5.36396 13.4425 5.34713 13.4878C5.33031 13.5331 5.30553 13.5744 5.27422 13.6091C5.24291 13.6438 5.20569 13.6714 5.16469 13.6902C5.12369 13.709 5.07973 13.7187 5.03533 13.7187H3.59955C3.55515 13.7188 3.51117 13.7093 3.47013 13.6906C3.42909 13.6719 3.3918 13.6444 3.3604 13.6098C3.32901 13.5752 3.30413 13.534 3.28719 13.4887C3.27026 13.4435 3.2616 13.3949 3.26172 13.3459V6.70454C3.26172 6.60568 3.29731 6.51087 3.36067 6.44096C3.42402 6.37106 3.50995 6.33179 3.59955 6.33179H5.03533C5.12477 6.33205 5.21047 6.37144 5.27363 6.44132C5.33679 6.51119 5.37226 6.60585 5.37226 6.70454Z" fill="#F2F2F5"/>
<path d="M13.8127 10.2141V13.3813C13.8128 13.4257 13.8039 13.4696 13.7863 13.5106C13.7688 13.5517 13.743 13.5889 13.7105 13.6203C13.6779 13.6517 13.6393 13.6766 13.5967 13.6935C13.5542 13.7104 13.5086 13.7191 13.4626 13.7189H11.7226C11.6766 13.7191 11.631 13.7104 11.5885 13.6935C11.546 13.6766 11.5073 13.6517 11.4748 13.6203C11.4423 13.5889 11.4165 13.5517 11.3989 13.5106C11.3814 13.4696 11.3724 13.4257 11.3726 13.3813V10.3118C11.3726 9.85369 11.5118 8.30562 10.131 8.30562C9.0614 8.30562 8.84339 9.36498 8.8004 9.84086V13.3813C8.80041 13.47 8.76423 13.5551 8.69969 13.6183C8.63514 13.6815 8.54741 13.7176 8.45546 13.7189H6.77481C6.72889 13.7189 6.68342 13.7102 6.64101 13.6932C6.59859 13.6762 6.56007 13.6513 6.52765 13.62C6.49522 13.5886 6.46954 13.5514 6.45206 13.5104C6.43458 13.4695 6.42565 13.4256 6.42578 13.3813V6.77927C6.42565 6.73498 6.43458 6.69109 6.45206 6.65013C6.46954 6.60917 6.49522 6.57194 6.52765 6.54058C6.56007 6.50921 6.59859 6.48432 6.64101 6.46734C6.68342 6.45036 6.72889 6.44162 6.77481 6.44162H8.45546C8.5483 6.44162 8.63734 6.47719 8.70299 6.54052C8.76864 6.60384 8.80552 6.68972 8.80552 6.77927V7.34993C9.20265 6.77532 9.79119 6.33203 11.0471 6.33203C13.8291 6.33203 13.8127 8.83777 13.8127 10.2141Z" fill="#F2F2F5"/>
</g>
<defs>
<clipPath id="clip0_8440_38025">
<rect width="16.8843" height="16.8843" fill="white" transform="translate(0.0976562)"/>
</clipPath>
</defs>
</svg>
