<svg width="20" height="21" viewBox="0 0 20 21" fill="none" xmlns="http://www.w3.org/2000/svg">
<path d="M9.99805 16.2754C13.4498 16.2754 16.248 13.4728 16.248 10.0156C16.248 6.55846 13.4498 3.75586 9.99805 3.75586C6.54627 3.75586 3.74805 6.55846 3.74805 10.0156C3.74805 13.4728 6.54627 16.2754 9.99805 16.2754Z" stroke="#6E6E6E" stroke-width="1.5" stroke-linecap="round" stroke-linejoin="round"/>
<path d="M10 12.5195C11.3807 12.5195 12.5 11.3985 12.5 10.0156C12.5 8.63276 11.3807 7.51172 10 7.51172C8.61929 7.51172 7.5 8.63276 7.5 10.0156C7.5 11.3985 8.61929 12.5195 10 12.5195Z" stroke="#6E6E6E" stroke-width="1.5" stroke-linecap="round" stroke-linejoin="round"/>
<path d="M10 3.33856V1.66928" stroke="#6E6E6E" stroke-width="1.5" stroke-linecap="round" stroke-linejoin="round"/>
<path d="M3.33268 10.0157H1.66602" stroke="#6E6E6E" stroke-width="1.5" stroke-linecap="round" stroke-linejoin="round"/>
<path d="M10 16.6927V18.362" stroke="#6E6E6E" stroke-width="1.5" stroke-linecap="round" stroke-linejoin="round"/>
<path d="M16.666 10.0157H18.3327" stroke="#6E6E6E" stroke-width="1.5" stroke-linecap="round" stroke-linejoin="round"/>
</svg>
