<svg width="36" height="36" viewBox="0 0 36 36" fill="none" xmlns="http://www.w3.org/2000/svg">
<path fill-rule="evenodd" clip-rule="evenodd" d="M9.09042 26.0919C8.38746 25.3889 8.38748 24.2492 9.09042 23.5463L24.3639 8.27279C25.0669 7.56983 26.2065 7.56983 26.9095 8.27279C27.6125 8.97576 27.6125 10.1154 26.9095 10.8184L11.636 26.0919C10.9331 26.7948 9.79338 26.7948 9.09042 26.0919Z" fill="white"/>
<path fill-rule="evenodd" clip-rule="evenodd" d="M9.09042 8.27279C8.38746 8.97575 8.38748 10.1154 9.09042 10.8184L24.3639 26.0919C25.0669 26.7948 26.2065 26.7948 26.9095 26.0919C27.6125 25.3889 27.6125 24.2493 26.9095 23.5463L11.636 8.27279C10.9331 7.56985 9.79338 7.56982 9.09042 8.27279Z" fill="white"/>
</svg>
