<svg width="61" height="61" viewBox="0 0 61 61" fill="none" xmlns="http://www.w3.org/2000/svg">
<rect width="61" height="61" rx="6" fill="#0A2342"/>
<g clip-path="url(#clip0_5059_8627)">
<path d="M37.152 20.7531V20.8255H37.2172C43.0547 23.2702 46.9349 28.9842 46.9349 35.2527C46.9349 43.9028 39.7933 50.9348 31.0036 50.9348C22.214 50.9348 15.0724 43.8956 15.0724 35.2527C15.0724 28.9795 18.9585 23.2614 24.8107 20.8199L24.8552 20.8014V20.7531V15.124C24.8552 14.6846 25.2224 14.3215 25.6715 14.3215H30.115H30.1874V14.2491V12.4994C30.1874 10.6115 31.7491 9.07241 33.6697 9.07241H38.1131C38.3868 9.07241 38.5872 9.1738 38.7199 9.32175C38.8538 9.47098 38.9226 9.67188 38.923 9.875C38.9235 10.0781 38.8555 10.2789 38.722 10.428C38.5895 10.5758 38.3888 10.6773 38.1131 10.6773H33.6697C32.6549 10.6773 31.8199 11.4901 31.8199 12.4994V14.2491V14.3215H31.8923H36.3358C36.7849 14.3215 37.152 14.6846 37.152 15.124V20.7531ZM26.5602 15.9264H26.4878V15.9988C26.4878 17.1211 26.4951 18.0285 26.5011 18.7646C26.5103 19.8961 26.5162 20.6228 26.487 21.1028C26.4629 21.5001 26.4151 21.7126 26.3355 21.8432C26.2593 21.9681 26.1486 22.027 25.9593 22.098C20.4321 24.1592 16.7122 29.442 16.7122 35.2527C16.7122 43.0096 23.1195 49.3227 31.0036 49.3227C38.8805 49.3227 45.295 43.0168 45.295 35.2527C45.295 29.4421 41.5825 24.1592 36.048 22.098C35.8585 22.0269 35.7478 21.9685 35.6717 21.8441C35.5922 21.7141 35.5444 21.5024 35.5203 21.1055C35.4911 20.6261 35.497 19.8998 35.5062 18.7678C35.5121 18.0312 35.5195 17.1228 35.5195 15.9988V15.9264H35.4471H26.5602Z" fill="white" stroke="white" stroke-width="0.144828"/>
<path d="M31.0019 26.5039C26.5002 26.5039 22.6833 29.8169 22.1296 34.2198C22.0058 35.1735 22.3992 36.034 22.7998 36.8228C22.9746 37.167 22.8799 37.3607 22.6905 38.1208C22.3118 39.6123 23.3024 41.0608 24.7811 41.3333C24.7811 42.8966 26.0268 44.0009 27.4472 44.0009H34.5567C36.0281 44.0009 37.2227 42.8249 37.2227 41.3764C37.2227 41.2043 38.0386 41.362 38.8253 40.3653C39.6921 39.2681 39.3498 38.257 39.1312 37.418C39.022 37.0021 39.2551 36.7009 39.4153 36.3854C41.2146 32.8286 37.2446 26.5039 30.9947 26.5039H31.0019ZM37.8273 35.5966L37.6088 36.0269C36.8148 37.583 38.0167 38.5367 37.4194 39.2896C37.2519 39.5048 36.9969 39.6267 36.7201 39.6267H36.3268C35.8387 39.6267 35.4381 40.0211 35.4381 40.5015V41.3764C35.4381 41.8568 35.0375 42.2512 34.5494 42.2512H33.6607V41.3764C33.6607 40.2219 31.8833 40.2147 31.8833 41.3764V42.2512H30.106V41.3764C30.106 40.2219 28.3286 40.2147 28.3286 41.3764V42.2512H27.4399C26.9519 42.2512 26.5512 41.8568 26.5512 41.3764V40.5015C26.5512 40.0211 26.1506 39.6267 25.6625 39.6267H25.2692C24.6937 39.6267 24.264 39.0888 24.4096 38.5367C25.1235 35.7257 23.9216 36.2061 23.8852 34.4708C24.2858 30.9714 27.3452 28.2464 30.9947 28.2464C36.0354 28.2464 38.971 33.3378 37.8273 35.5966Z" fill="#2F90B0"/>
<path d="M27.8846 33.5039C26.1218 33.5039 26.1218 36.1285 27.8846 36.1285C29.6474 36.1285 29.6474 33.5039 27.8846 33.5039Z" fill="#2F90B0"/>
<path d="M34.1112 33.5039C32.3484 33.5039 32.3484 36.1285 34.1112 36.1285C35.874 36.1285 35.874 33.5039 34.1112 33.5039Z" fill="#2F90B0"/>
<path d="M31.7998 37.4835C31.5011 36.8883 30.5104 36.8883 30.2118 37.4835L29.7674 38.3583C29.3741 39.1328 30.2482 39.9359 31.0058 39.5057C31.7633 39.9359 32.6375 39.1328 32.2441 38.3583L31.7998 37.4835Z" fill="#2F90B0"/>
</g>
<defs>
<clipPath id="clip0_5059_8627">
<rect width="32" height="42" fill="white" transform="translate(15 9)"/>
</clipPath>
</defs>
</svg>
