<svg width="25" height="35" viewBox="0 0 25 35" fill="none" xmlns="http://www.w3.org/2000/svg">
<path d="M19.6475 4.5V2" stroke="white" stroke-width="3" stroke-linecap="round" stroke-linejoin="round"/>
<path d="M19.6471 13.5898V24.1781C19.6471 26.5182 18.7174 28.7625 17.0627 30.4173C15.408 32.072 13.1637 33.0016 10.8235 33.0016C8.48338 33.0016 6.23908 32.072 4.58435 30.4173C2.92962 28.7625 2 26.5182 2 24.1781V17.1193L7.29412 22.4134" stroke="white" stroke-width="3" stroke-linecap="round" stroke-linejoin="round"/>
<path d="M19.6466 12.5881C21.5958 12.5881 23.176 11.0079 23.176 9.05871C23.176 7.10947 21.5958 5.5293 19.6466 5.5293C17.6974 5.5293 16.1172 7.10947 16.1172 9.05871C16.1172 11.0079 17.6974 12.5881 19.6466 12.5881Z" stroke="#FD4561" stroke-width="2" stroke-linecap="round" stroke-linejoin="round"/>
<rect x="16.3984" y="6.62207" width="5.59863" height="5.41157" transform="rotate(-6.37755 16.3984 6.62207)" fill="#FD4561"/>
</svg>
