<svg width="49" height="50" viewBox="0 0 49 50" fill="none" xmlns="http://www.w3.org/2000/svg">
<path d="M24.5016 30.9169C22.6436 30.9169 21.1328 29.4036 21.1328 27.5428V22.492C21.1328 20.6312 22.6436 19.118 24.5016 19.118C26.3595 19.118 27.8703 20.6312 27.8703 22.492V27.5428C27.8703 29.4036 26.3595 30.9169 24.5016 30.9169Z" stroke="white" stroke-width="2" stroke-linecap="round"/>
<path d="M34.6649 28.0336C34.2566 33.3093 29.8466 37.44 24.4974 37.44C18.8624 37.44 14.2891 32.8595 14.2891 27.2157V22.8397C14.2891 17.1958 18.8624 12.6154 24.4974 12.6154C29.7853 12.6154 34.1341 16.6437 34.6445 21.7968" stroke="white" stroke-width="2" stroke-linecap="round"/>
<path d="M30.625 4.57903H34.7083C40.8333 4.57903 44.9167 8.66875 44.9167 14.8033V18.8931" stroke="white" stroke-width="2" stroke-miterlimit="10" stroke-linecap="round" stroke-linejoin="round"/>
<path d="M4.08594 18.8931V14.8033C4.08594 8.66875 8.16927 4.57903 14.2943 4.57903H18.3776" stroke="white" stroke-width="2" stroke-miterlimit="10" stroke-linecap="round" stroke-linejoin="round"/>
<path d="M30.625 45.4763H34.7083C40.8333 45.4763 44.9167 41.3866 44.9167 35.252V31.1622" stroke="white" stroke-width="2" stroke-miterlimit="10" stroke-linecap="round" stroke-linejoin="round"/>
<path d="M4.08594 31.1622V35.252C4.08594 41.3866 8.16927 45.4763 14.2943 45.4763H18.3776" stroke="white" stroke-width="2" stroke-miterlimit="10" stroke-linecap="round" stroke-linejoin="round"/>
</svg>
