<svg width="20" height="21" viewBox="0 0 20 21" fill="none" xmlns="http://www.w3.org/2000/svg">
<path d="M7.49935 18.362H12.4993C16.666 18.362 18.3327 16.6927 18.3327 12.5196V7.51174C18.3327 3.33856 16.666 1.66928 12.4993 1.66928H7.49935C3.33268 1.66928 1.66602 3.33856 1.66602 7.51174V12.5196C1.66602 16.6927 3.33268 18.362 7.49935 18.362Z" stroke="#4D4D70" stroke-width="1.5" stroke-linecap="round" stroke-linejoin="round"/>
<path d="M12.9167 15.4408C13.8333 15.4408 14.5833 14.6896 14.5833 13.7715V6.25979C14.5833 5.34169 13.8333 4.59052 12.9167 4.59052C12 4.59052 11.25 5.34169 11.25 6.25979V13.7715C11.25 14.6896 11.9917 15.4408 12.9167 15.4408Z" stroke="#4D4D70" stroke-width="1.5" stroke-linecap="round" stroke-linejoin="round"/>
<path d="M7.08268 15.4408C7.99935 15.4408 8.74935 14.6896 8.74935 13.7715V10.8503C8.74935 9.9322 7.99935 9.18103 7.08268 9.18103C6.16602 9.18103 5.41602 9.9322 5.41602 10.8503V13.7715C5.41602 14.6896 6.15768 15.4408 7.08268 15.4408Z" stroke="#4D4D70" stroke-width="1.5" stroke-linecap="round" stroke-linejoin="round"/>
</svg>
