<svg xmlns="http://www.w3.org/2000/svg" width="326" height="303" viewBox="0 0 326 303" fill="none">
<path d="M223.984 68.1117L229.969 61.9293C230.197 60.8265 231.233 60.376 231.838 59.5708C233.488 57.9424 235.111 56.2906 236.757 54.6648C237.177 54.2505 237.555 53.7405 238.241 53.7457C238.896 53.9373 239.276 54.4758 239.735 54.9237C244.567 59.7425 249.392 64.5632 254.209 69.3855C254.903 70.1182 255.628 70.8224 256.348 71.5292C261.181 76.3722 266.021 81.2161 270.869 86.0609C271.333 86.5269 272.011 86.8997 271.905 87.736L265.924 93.9132C265.776 94.4021 265.51 94.8469 265.148 95.2082C264.787 95.5694 264.342 95.836 263.853 95.9843L257.663 101.939C256.923 101.91 256.558 101.315 256.11 100.872C251.289 96.0724 246.476 91.2664 241.671 86.4544C240.977 85.7218 240.255 85.0176 239.535 84.3134C234.703 79.4686 229.864 74.6298 225.019 69.7971C224.563 69.3208 223.885 68.948 223.984 68.1117Z" fill="#2F90B0"/>
<path d="M240.853 130.378C239.714 131.331 238.393 131.033 237.176 130.756C233.417 129.9 230.274 127.779 227.155 125.643C222.298 122.322 217.92 118.42 213.664 114.379C213.482 113.636 214.08 113.297 214.479 112.89C216.222 111.106 218.005 109.361 219.758 107.588C220.354 106.98 221.229 106.239 220.454 105.416C219.61 104.523 218.901 105.514 218.319 106.079C216.556 107.78 214.847 109.537 213.104 111.257C212.68 111.676 212.294 112.165 211.634 112.243C210.117 111.767 209.405 110.332 208.268 109.395C204.266 104.877 200.455 100.215 197.348 95.0161C196.292 93.0588 195.277 91.0809 194.715 88.9139C194.485 87.5288 194.029 86.1101 195.277 84.9373C197.014 83.8732 198.808 84.0519 200.618 84.6991C204.478 86.0738 207.846 88.3236 211.121 90.7106C217.542 95.407 223.243 100.893 228.597 106.762C232.672 111.228 236.364 115.971 239.387 121.227C240.315 122.932 241.053 124.735 241.588 126.601C242.031 127.997 241.65 129.229 240.853 130.378Z" fill="#ECF4F6"/>
<path d="M271.912 87.736C266.952 82.7497 261.993 77.7633 257.036 72.777C256.707 72.4456 256.407 72.0884 256.094 71.7415C256.109 71.1615 256.539 70.8301 256.896 70.4729C261.934 65.4261 266.976 60.3846 272.021 55.3483C272.352 55.0169 272.668 54.6518 273.15 54.5224C273.735 54.4913 274.092 54.8848 274.444 55.2421C276.95 57.699 279.376 60.2388 281.952 62.6361C282.876 63.8892 284.075 64.8807 285.157 65.9836C287.705 68.5726 287.746 72.0133 285.193 74.553C280.773 78.9543 276.346 83.3486 271.912 87.736Z" fill="white"/>
<path d="M293.345 140.501C292.638 140.005 292.024 139.387 291.533 138.676C291.114 137.936 291.735 137.56 292.121 137.161C293.827 135.406 295.58 133.697 297.299 131.955C298.259 130.984 298.254 130.876 297.278 129.884C296.043 128.628 294.769 127.412 293.555 126.138C292.944 125.501 292.478 125.48 291.849 126.138C290.114 127.924 288.346 129.677 286.568 131.422C286.161 131.82 285.819 132.413 285.079 132.237C284.368 131.746 283.75 131.133 283.254 130.425C282.834 129.685 283.456 129.309 283.844 128.911C285.548 127.155 287.303 125.447 289.022 123.704C289.982 122.733 289.98 122.625 289.001 121.633C287.766 120.377 286.493 119.161 285.278 117.887C284.67 117.25 284.201 117.229 283.575 117.887C281.84 119.673 280.072 121.428 278.293 123.173C277.884 123.572 277.543 124.165 276.802 123.986C276.094 123.496 275.48 122.882 274.99 122.174C274.57 121.434 275.189 121.058 275.578 120.66C277.284 118.904 279.036 117.196 280.755 115.453C281.713 114.482 281.711 114.374 280.735 113.382C279.5 112.126 278.226 110.91 277.009 109.636C276.401 108.996 275.935 108.978 275.306 109.636C273.571 111.422 271.803 113.178 270.024 114.92C269.615 115.321 269.273 115.914 268.536 115.735C267.736 115.16 267.032 114.461 266.452 113.664C266.275 112.926 266.866 112.585 267.264 112.178C268.973 110.433 270.69 108.693 272.442 107C273.154 106.317 273.242 105.789 272.46 105.116C271.78 104.528 271.166 103.855 270.542 103.215C268.883 101.543 269.149 100.367 271.399 99.4354H271.49H271.583C272.877 99.803 273.504 100.968 274.394 101.807C276.049 103.36 276.015 103.402 277.581 101.835C279.148 100.269 280.67 98.7286 282.241 97.1934C282.643 96.8076 283.018 96.1837 283.759 96.6031C284.466 97.0947 285.079 97.7084 285.571 98.4153C285.99 99.1584 285.372 99.5312 284.983 99.9325C283.277 101.688 281.524 103.396 279.805 105.136C278.847 106.11 278.85 106.216 279.826 107.207C281.061 108.46 282.335 109.68 283.551 110.954C284.16 111.59 284.626 111.611 285.255 110.954C286.99 109.167 288.758 107.412 290.536 105.67C290.946 105.271 291.287 104.678 292.025 104.854C292.732 105.346 293.346 105.959 293.837 106.666C294.257 107.407 293.635 107.782 293.25 108.181C291.544 109.936 289.788 111.645 288.072 113.387C287.111 114.358 287.114 114.467 288.093 115.458C289.327 116.714 290.601 117.931 291.815 119.205C292.424 119.841 292.892 119.862 293.519 119.205C295.256 117.418 297.022 115.663 298.803 113.921C299.209 113.522 299.551 112.929 300.292 113.105C301.071 113.695 301.775 114.379 302.389 115.14C302.35 115.769 301.871 116.111 301.483 116.502C299.756 118.247 298.037 119.997 296.271 121.703C295.569 122.381 295.479 122.904 296.235 123.616C297.55 124.854 298.828 126.132 300.069 127.45C300.745 128.167 301.229 128.072 301.881 127.406C303.593 125.623 305.337 123.906 307.088 122.179C307.497 121.778 307.838 121.183 308.581 121.361C309.376 121.938 310.075 122.637 310.653 123.432C310.831 124.116 310.3 124.452 309.925 124.833C308.206 126.586 306.487 128.338 304.714 130.034C303.963 130.749 303.854 131.274 304.672 132.022C305.938 133.187 307.113 134.451 308.341 135.647C309.317 136.607 309.407 136.605 310.412 135.611C312.136 133.936 313.819 132.222 315.543 130.526C315.937 130.138 316.278 129.659 316.907 129.62C317.668 130.233 318.351 130.937 318.94 131.717C319.121 132.398 318.593 132.734 318.22 133.112C316.478 134.886 314.748 136.672 312.936 138.373C312.183 139.08 312.027 139.546 312.9 140.253C313.641 140.9 314.342 141.592 314.999 142.324C315.357 142.691 315.745 143.049 315.776 143.618C315.393 144.706 314.694 145.475 313.56 145.796C312.265 145.216 311.51 144.012 310.508 143.093C309.376 142.057 309.34 142.016 308.247 143.093C306.541 144.783 304.864 146.502 303.139 148.175C302.741 148.563 302.363 149.182 301.625 148.763C300.916 148.268 300.302 147.65 299.813 146.937C299.634 146.2 300.227 145.858 300.626 145.449C302.339 143.701 304.053 141.954 305.824 140.271C306.567 139.561 306.539 139.059 305.824 138.378C304.571 137.206 303.391 135.952 302.166 134.754C301.174 133.778 301.066 133.773 300.095 134.733C298.352 136.452 296.644 138.207 294.888 139.911C294.461 140.299 294.088 140.921 293.345 140.501Z" fill="white"/>
<path d="M240.851 130.378C242.226 127.16 240.574 124.424 239.207 121.812C237.32 118.187 234.915 114.876 232.328 111.715C229.215 107.965 225.906 104.382 222.415 100.981C217.886 96.4527 212.925 92.3774 207.604 88.8129C205.336 87.3113 202.975 85.9651 200.355 85.0874C198.724 84.5438 197.186 84.4065 195.612 85.1392C195.444 84.2486 196.13 83.9276 196.715 83.6221C198.554 82.6659 200.634 82.2724 202.695 82.4907C208.22 82.98 213.142 85.1418 217.794 88.0052C218.63 88.523 219.088 88.7637 219.58 87.6013C219.989 86.6123 220.859 85.8978 221.771 85.3023C222.653 85.0046 223.132 85.6441 223.64 86.1437C225.992 88.4755 228.335 90.8168 230.669 93.1675C231.383 93.8899 232.09 94.6199 232.825 95.3215C235.184 97.6852 237.563 100.031 239.898 102.415C240.307 102.832 241.001 103.207 240.561 104.01C240.166 104.334 239.793 104.684 239.445 105.059C238.669 105.998 237.739 106.542 236.287 106.387C237.874 108.668 239.01 110.951 240.129 113.247C242.081 117.263 243.249 121.447 242.894 125.951C242.801 127.633 242.07 129.216 240.851 130.378Z" fill="#99A5A7"/>
<path d="M240.551 104.007C240.639 103.417 240.114 103.215 239.808 102.905C237.39 100.435 234.951 97.9856 232.52 95.5261C232.349 94.9047 232.808 94.5708 233.152 94.2083C233.835 93.4912 234.553 92.8077 235.252 92.1035C235.951 91.3993 236.652 91.4148 237.369 92.1242C238.993 93.7294 240.598 95.3526 242.221 96.9604C242.629 97.4054 243.096 97.7922 243.609 98.1098C244.07 98.3687 244.525 98.3998 244.903 97.9959C245.281 97.5921 245.247 97.139 244.994 96.6833C244.741 96.2815 244.435 95.9164 244.082 95.5986C242.441 93.9494 240.776 92.3261 239.163 90.6563C238.146 89.6077 238.115 89.1961 239.197 88.1916C240.013 87.433 240.525 86.2318 241.871 86.1567L257.664 101.949C255.734 104.148 253.675 106.23 251.497 108.183C249.76 109.776 246.366 109.631 244.44 107.971C243.022 106.775 241.72 105.448 240.551 104.007Z" fill="#ECF4F6"/>
<path d="M263.353 44.0501C263.659 43.8282 263.941 43.5767 264.197 43.2993C265.406 41.7226 266.96 41.4145 268.772 41.9349C273.735 46.8695 278.711 51.7884 283.648 56.7463C284.697 57.8 284.49 59.8944 283.345 61.1475C282.884 61.6497 282.416 62.1442 281.95 62.6413C281.328 62.8303 281.018 62.3824 280.655 62.0225C278.161 59.5596 275.667 57.1001 273.173 54.6441C272.096 54.3852 271.62 53.3651 270.828 52.7541C268.531 50.4629 266.222 48.1872 263.962 45.8675C263.491 45.3938 262.722 44.9251 263.353 44.0501Z" fill="#2F90B0"/>
<path d="M313.547 145.653C314.309 145.039 315.003 144.344 315.618 143.582C315.71 143.118 315.959 142.7 316.322 142.396C318.222 140.493 320.117 138.585 322.033 136.701C322.388 136.351 322.724 135.924 323.328 136.053C323.98 136.672 324.643 137.281 325.277 137.915C326.227 138.865 326.209 140.059 325.241 141.022C320.596 145.685 315.948 150.336 311.297 154.973C309.935 156.34 309.138 156.351 307.732 155.01C307.214 154.507 306.727 153.956 306.228 153.428C305.94 152.91 306.248 152.517 306.577 152.177C308.571 150.122 310.603 148.105 312.646 146.099C312.758 145.967 312.895 145.86 313.05 145.783C313.205 145.707 313.374 145.662 313.547 145.653Z" fill="#2F90B0"/>
<path d="M276.797 123.95C279.095 121.693 281.418 119.456 283.675 117.157C284.268 116.553 284.584 116.556 285.159 117.157C286.666 118.751 288.206 120.32 289.819 121.817C290.57 122.511 290.445 122.894 289.777 123.533C287.82 125.408 285.925 127.347 284.017 129.276C283.696 129.597 283.227 129.84 283.24 130.404C280.981 128.367 278.83 126.213 276.797 123.95Z" fill="#3E4546"/>
<path d="M300.307 113.084C298.008 115.344 295.685 117.581 293.428 119.88C292.835 120.481 292.519 120.481 291.947 119.88C290.438 118.285 288.897 116.717 287.287 115.22C286.536 114.526 286.66 114.143 287.328 113.504C289.285 111.629 291.181 109.688 293.089 107.761C293.41 107.438 293.865 107.197 293.865 106.633C296.124 108.669 298.274 110.823 300.307 113.084Z" fill="#3E4546"/>
<path d="M285.082 132.227C287.381 129.967 289.704 127.73 291.961 125.431C292.554 124.83 292.867 124.83 293.442 125.431C294.949 127.026 296.492 128.595 298.102 130.091C298.853 130.785 298.729 131.168 298.061 131.808C296.103 133.682 294.206 135.624 292.3 137.55C291.979 137.873 291.511 138.114 291.524 138.679C289.265 136.642 287.115 134.488 285.082 132.227Z" fill="#3E4546"/>
<path d="M268.512 115.676C270.808 113.416 273.131 111.181 275.391 108.882C275.981 108.279 276.297 108.282 276.872 108.882C278.378 110.477 279.921 112.044 281.532 113.543C282.283 114.236 282.158 114.622 281.49 115.262C279.533 117.136 277.635 119.075 275.727 121.001C275.409 121.325 274.938 121.568 274.951 122.133C272.693 120.094 270.544 117.939 268.512 115.676Z" fill="#3E4546"/>
<path d="M292.031 104.81C289.743 107.078 287.413 109.307 285.152 111.606C284.562 112.207 284.246 112.207 283.672 111.606C282.165 110.014 280.622 108.445 279.011 106.946C278.263 106.252 278.385 105.869 279.053 105.229C281.01 103.352 282.908 101.413 284.816 99.4871C285.134 99.1635 285.605 98.9227 285.58 98.3558C287.841 100.394 289.994 102.548 292.031 104.81Z" fill="#3E4546"/>
<path d="M293.346 140.501C293.91 140.525 294.153 140.056 294.477 139.725C296.434 137.788 298.394 135.841 300.312 133.876C300.872 133.301 301.224 133.18 301.843 133.835C303.406 135.505 305.017 137.11 306.676 138.686C307.194 139.189 307.194 139.463 306.676 139.981C304.362 142.275 302.088 144.618 299.8 146.948C297.537 144.914 295.382 142.762 293.346 140.501Z" fill="#3E4546"/>
<path d="M316.908 129.62C314.578 131.978 312.248 134.321 309.957 136.701C309.439 137.239 309.139 137.053 308.712 136.62C307.088 134.963 305.457 133.307 303.793 131.701C303.259 131.184 303.275 130.925 303.793 130.407C305.828 128.432 307.821 126.41 309.822 124.398C310.123 124.095 310.387 123.761 310.669 123.44C312.869 125.377 314.878 127.51 316.908 129.62Z" fill="#3E4546"/>
<path d="M308.584 121.361C306.285 123.619 303.968 125.853 301.708 128.149C301.128 128.737 300.812 128.773 300.229 128.149C298.663 126.492 297.032 124.9 295.404 123.305C294.969 122.881 294.785 122.583 295.323 122.063C297.703 119.764 300.046 117.434 302.404 115.119C304.514 117.149 306.647 119.158 308.584 121.361Z" fill="#3E4546"/>
<path d="M271.391 99.3654C270.925 100.189 269.553 100.66 269.706 101.47C269.859 102.281 270.928 102.928 271.601 103.637C272.341 104.414 273.729 105.235 273.672 105.934C273.597 106.798 272.326 107.565 271.557 108.357C269.856 110.11 268.145 111.849 266.439 113.594C265.481 112.678 264.479 111.803 263.575 110.837C262.54 109.724 262.47 108.165 263.754 107.055C265.538 105.501 267.12 103.723 268.813 102.073C269.289 101.613 269.33 101.333 268.833 100.849C267.151 99.2515 265.514 97.6049 263.857 95.9791C264.472 95.2168 265.166 94.5224 265.929 93.9079L271.391 99.3654Z" fill="#3E4546"/>
<path d="M283.756 96.5358C283.194 96.5099 282.953 96.9785 282.63 97.2944C280.654 99.2516 278.676 101.206 276.737 103.2C276.219 103.743 275.873 103.855 275.311 103.236C274.104 101.91 272.823 100.647 271.575 99.3681C273.568 97.3461 275.549 95.306 277.568 93.31C278.459 92.4271 279.673 92.3702 280.538 93.2116C281.641 94.286 282.824 95.2931 283.756 96.5358Z" fill="#3E4546"/>
<path d="M313.547 145.653C311.4 147.84 309.254 150.023 307.111 152.201C306.756 152.561 306.285 152.848 306.228 153.428C304.601 151.968 303.063 150.412 301.622 148.768C302.184 148.791 302.425 148.325 302.746 148.007C304.724 146.057 306.704 144.1 308.641 142.109C309.159 141.563 309.511 141.462 310.07 142.078C311.188 143.31 312.384 144.475 313.547 145.653Z" fill="#3E4546"/>
<path d="M323.336 136.074L315.618 143.608C314.456 142.417 313.319 141.19 312.11 140.043C311.559 139.525 311.507 139.235 312.09 138.663C314.42 136.385 316.662 134.044 318.94 131.727C320.497 133.08 321.965 134.532 323.336 136.074Z" fill="#3E4546"/>
<path d="M204.07 119.562C203.048 116.429 205.432 112.978 209.522 114.141C211.019 114.348 211.565 114.873 211.653 116.194C212.329 118.48 211.86 120.209 210.273 121.286C208.308 122.619 205.908 122.143 204.552 120.16C204.409 119.948 204.231 119.764 204.07 119.562Z" fill="#2F90B0"/>
<path d="M211.655 116.194C211.277 115.158 210.373 114.682 209.524 114.141C210.305 113.549 211.008 112.861 211.616 112.093L217.829 105.954C218.073 105.714 218.311 105.468 218.557 105.229C219.295 104.512 220.198 104.194 220.905 105.046C221.48 105.737 221.327 106.62 220.602 107.334C218.58 109.317 216.589 111.329 214.593 113.335C214.262 113.667 213.964 114.032 213.651 114.371L211.655 116.194Z" fill="#99A5A7"/>
<path d="M172.56 19.7787C171.697 19.0886 170.925 18.2908 170.264 17.4046C169.705 16.2318 170.07 15.3335 170.965 14.4584C173.865 11.6106 176.708 8.67988 179.574 5.78544C181.165 4.23207 182.757 2.67008 184.35 1.09945C185.816 -0.347767 186.981 -0.368479 188.392 1.05026C188.909 1.56805 189.391 2.10396 189.891 2.6321C189.867 3.26122 189.388 3.60555 189.003 3.99389C186.887 6.12459 184.759 8.23976 182.642 10.3679C181.911 11.0591 181.21 11.7788 180.508 12.4986C178.352 14.6448 176.213 16.8092 174.036 18.9451C173.637 19.3489 173.288 19.9159 172.56 19.7787Z" fill="#2F90B0"/>
<path d="M182.35 10.1763C184.787 7.58738 187.301 5.07265 189.892 2.63214L193.221 5.78547L194.27 7.06441C194.27 7.59773 193.886 7.9084 193.558 8.23979C191.688 10.1271 189.817 12.0145 187.919 13.8759C186.821 14.9529 186.49 14.94 185.366 13.8526C184.565 13.0777 183.778 12.2889 183.005 11.4863C182.658 11.1239 182.215 10.7873 182.35 10.1763Z" fill="#3E4546"/>
<path d="M182.35 10.1763C183.58 11.4345 184.835 12.6643 186.024 13.9613C186.542 14.5231 186.821 14.4377 187.318 13.9328C189.294 11.9031 191.31 9.91221 193.319 7.91354C193.622 7.61323 193.956 7.34657 194.275 7.06438C194.992 7.5574 195.612 8.1778 196.105 8.89476C196.519 9.63779 195.898 10.0106 195.51 10.4093C193.806 12.1646 192.053 13.8707 190.332 15.6131C189.374 16.5813 189.376 16.6901 190.355 17.6842C191.559 18.9088 192.809 20.0868 193.98 21.3398C194.66 22.0647 195.163 22.0984 195.872 21.3554C197.56 19.5845 199.31 17.8732 201.05 16.1593C201.459 15.7606 201.803 15.1704 202.539 15.3412C203.357 15.8953 203.994 16.6357 204.638 17.371C204.605 18.0001 204.12 18.3444 203.74 18.7353C202.044 20.4441 200.333 22.1372 198.637 23.8485C197.638 24.8556 197.635 24.9566 198.583 25.9197C199.82 27.1762 201.067 28.4223 202.324 29.6581C203.287 30.6057 203.388 30.6031 204.395 29.6063C206.119 27.9106 207.802 26.1993 209.513 24.4906C209.904 24.1048 210.248 23.6259 210.878 23.5948C211.613 24.2369 212.356 24.8737 212.91 25.6918C213.076 26.4323 212.485 26.774 212.084 27.1831C210.368 28.9358 208.641 30.6807 206.875 32.3843C206.207 33.0289 206.129 33.513 206.841 34.1965C208.157 35.434 209.435 36.7121 210.676 38.0308C211.39 38.7867 211.913 38.6858 212.589 37.9867C214.295 36.2237 216.045 34.5046 217.788 32.7778C218.178 32.3894 218.523 31.9131 219.152 31.8794C219.887 32.5241 220.63 33.1584 221.187 33.9791C221.35 34.7143 220.762 35.0586 220.363 35.4651C218.65 37.2127 216.938 38.9602 215.167 40.643C214.422 41.355 214.463 41.8572 215.188 42.5355C216.439 43.7083 217.619 44.9588 218.841 46.16C219.835 47.1361 219.944 47.1387 220.912 46.1808C222.655 44.4617 224.361 42.7116 226.116 41.0029C226.515 40.6145 226.893 39.9932 227.631 40.4048C228.349 40.8974 228.97 41.5189 229.461 42.2378C229.632 42.9213 229.104 43.2578 228.728 43.641C227.04 45.3626 225.324 47.0558 223.623 48.7619C222.541 49.8467 222.543 49.8467 223.662 50.9755C224.439 51.7703 225.277 52.5288 226.02 53.3651C226.859 54.31 226.784 54.9184 225.777 55.9048C224.85 56.8084 224.304 56.8317 223.346 55.9359C222.466 55.1152 221.609 54.2634 220.788 53.3806C220.136 52.6816 219.62 52.7282 218.976 53.3987C217.233 55.1868 215.466 56.9516 213.676 58.6931C213.275 59.0815 212.9 59.7028 212.157 59.2938C211.436 58.8009 210.814 58.1774 210.324 57.4556C210.16 56.7203 210.746 56.3786 211.147 55.9696C212.858 54.222 214.572 52.4745 216.34 50.7917C217.088 50.0797 217.044 49.5775 216.322 48.9017C215.069 47.7264 213.891 46.4759 212.667 45.2772C211.675 44.3012 211.566 44.296 210.595 45.2539C208.856 46.973 207.147 48.7257 205.394 50.4318C204.996 50.8176 204.618 51.4389 203.88 51.0273C203.16 50.5362 202.538 49.9145 202.047 49.1943C201.884 48.4564 202.469 48.1147 202.87 47.7056C204.581 45.9607 206.295 44.2132 208.063 42.5278C208.809 41.8158 208.77 41.3135 208.048 40.6352C206.795 39.4624 205.617 38.212 204.392 37.0107C203.398 36.0321 203.292 36.0295 202.321 36.9874C200.581 38.7039 198.873 40.4566 197.12 42.1653C196.721 42.5536 196.343 43.175 195.605 42.7633C194.885 42.2721 194.263 41.6493 193.772 40.9278C193.609 40.1899 194.197 39.8482 194.598 39.4391C196.338 37.6528 198.093 35.8819 199.885 34.1473C200.545 33.5156 200.519 33.0859 199.885 32.4749C198.475 31.1407 197.101 29.7737 195.763 28.374C195.15 27.7268 194.728 27.7086 194.088 28.374C192.361 30.1862 190.583 31.9208 188.804 33.6684C188.395 34.0697 188.051 34.6574 187.313 34.4943C186.593 34.0025 185.972 33.3809 185.48 32.6613C185.068 31.9183 185.69 31.5454 186.076 31.1467C187.782 29.394 189.534 27.6853 191.253 25.9456C192.209 24.9747 192.206 24.8686 191.228 23.8744C190.024 22.6498 188.773 21.4719 187.603 20.2188C186.922 19.4939 186.42 19.4603 185.71 20.2033C184.022 21.9741 182.275 23.6854 180.533 25.3993C180.124 25.798 179.782 26.3883 179.044 26.2174C178.325 25.7259 177.704 25.1052 177.211 24.387C176.799 23.644 177.423 23.2712 177.812 22.8699C179.458 21.1715 181.151 19.5043 182.821 17.837C183.986 16.6642 183.984 16.6331 182.852 15.4888C182.187 14.8131 181.501 14.1607 180.851 13.472C180.533 13.1329 180.144 12.8118 180.276 12.2526C180.891 11.4884 181.587 10.7923 182.35 10.1763Z" fill="white"/>
<path d="M179.043 26.2071C181.34 23.9469 183.659 21.7101 185.917 19.4111C186.51 18.8079 186.826 18.8131 187.398 19.4111C188.905 21.0033 190.445 22.5696 192.058 24.0712C192.804 24.7599 192.692 25.1456 192.022 25.7877C190.062 27.6621 188.169 29.6012 186.261 31.5248C185.94 31.8484 185.485 32.0918 185.485 32.6536C183.551 31.0407 181.909 29.1274 180.087 27.4006C179.747 27.0796 179.398 26.7715 179.051 26.4556C179.027 26.3748 179.025 26.2892 179.043 26.2071Z" fill="#3E4546"/>
<path d="M180.277 12.2423C181.447 13.4384 182.578 14.6708 183.795 15.8151C184.437 16.4183 184.492 16.7937 183.821 17.4357C181.835 19.3334 179.914 21.2985 177.98 23.2505C177.662 23.5741 177.204 23.8149 177.204 24.3767C175.557 22.9415 174.001 21.4059 172.544 19.7787L180.277 12.2423Z" fill="#3E4546"/>
<path d="M221.986 85.4447C220.31 83.9986 218.746 82.4269 217.308 80.7432C216.096 77.5381 216.883 74.8482 219.379 72.5854C219.743 72.2285 220.089 71.8535 220.415 71.4618L223.982 68.1117C228.943 73.0946 233.901 78.0783 238.858 83.0629C239.187 83.3943 239.488 83.7542 239.801 84.0985C239.255 85.5353 238.051 86.4001 236.896 87.257C236.249 87.736 235.682 87.156 235.218 86.7055C233.616 85.1522 232.049 83.547 230.465 81.973C230.147 81.6218 229.789 81.309 229.398 81.0409C228.93 80.7562 228.443 80.6034 227.974 81.0409C227.506 81.4785 227.638 81.9652 227.915 82.4441C228.215 82.9199 228.575 83.355 228.987 83.7386C230.473 85.2324 231.98 86.7056 233.45 88.2149C234.571 89.3644 234.607 89.8149 233.471 90.8919C232.523 91.7928 231.827 93.007 230.486 93.4575C228.021 91.0343 225.567 88.6058 223.087 86.2085C222.778 85.8771 222.584 85.3308 221.986 85.4447Z" fill="#ECF4F6"/>
<path d="M212.15 59.3093C212.711 59.3222 212.955 58.8536 213.278 58.5326C215.233 56.5961 217.195 54.6621 219.111 52.6842C219.676 52.1042 220.038 51.9903 220.639 52.6505C221.674 53.7974 222.857 54.8175 223.896 55.9644C224.53 56.666 224.931 56.332 225.307 55.8013C225.682 55.2705 226.976 54.9158 225.969 53.8777C224.859 52.7385 223.748 51.5942 222.583 50.512C222.065 50.0176 222.05 49.7354 222.583 49.2176C224.913 46.9238 227.178 44.5782 229.47 42.2507L232.284 44.8397C233.923 45.6164 234.223 47.2681 232.918 48.7542C231.696 50.1444 230.314 51.3845 229.022 52.7101C226.987 54.7812 226.95 54.2298 228.983 56.2983C229.736 57.075 230.51 57.8155 231.261 58.587C231.616 58.952 232.038 59.2834 232.051 59.8685L229.98 61.9397C228.387 60.3863 226.772 58.8329 225.213 57.2355C224.696 56.7048 224.39 56.7178 223.885 57.2355C222.244 58.9365 220.556 60.6012 218.878 62.2633C217.638 63.4956 216.486 63.6069 215.192 62.4419C214.107 61.4711 213.019 60.4769 212.15 59.3093Z" fill="#3E4546"/>
<path d="M203.872 51.0324C204.434 51.0506 204.677 50.582 205.001 50.2558C206.955 48.3192 208.915 46.3723 210.834 44.4099C211.393 43.8326 211.745 43.7187 212.361 44.3711C213.914 46.028 215.548 47.6332 217.195 49.2098C217.712 49.7095 217.731 49.9865 217.195 50.5043C214.865 52.7981 212.599 55.1437 210.308 57.4686L205.689 53.0855L203.872 51.0324Z" fill="#3E4546"/>
<path d="M187.321 34.4839C189.612 32.2264 191.924 29.9921 194.182 27.7035C194.743 27.1339 195.057 27.0355 195.657 27.6724C197.247 29.3604 198.887 31.0001 200.576 32.5914C201.211 33.1895 201.12 33.5053 200.548 34.0671C198.259 36.3247 196.022 38.634 193.767 40.9252L190.958 38.3518L187.321 34.4839Z" fill="#3E4546"/>
<path d="M195.596 42.7582C196.158 42.7737 196.401 42.3051 196.722 41.9815C198.68 40.0424 200.64 38.111 202.558 36.1331C203.117 35.5557 203.472 35.447 204.085 36.0968C205.639 37.7538 207.272 39.3589 208.916 40.9356C209.434 41.4378 209.45 41.7123 208.916 42.23C206.586 44.5264 204.321 46.8694 202.03 49.1969C199.769 47.1705 197.621 45.021 195.596 42.7582Z" fill="#3E4546"/>
<path d="M263.353 44.05C263.187 44.6662 263.625 44.9847 263.985 45.3445C266.366 47.7436 268.747 50.147 271.128 52.5547C271.296 53.1761 270.848 53.5178 270.496 53.8725C265.453 58.9365 260.398 63.9901 255.332 69.0334C254.978 69.3881 254.633 69.8282 254.017 69.6806L238.225 53.888C238.012 53.2563 238.496 52.9301 238.841 52.5936C241.171 50.2324 243.522 47.8972 245.865 45.5516C246.185 45.2009 246.601 44.9509 247.061 44.8319C248.381 43.5374 249.74 42.2947 251.017 40.964C253.567 38.3052 257.686 38.2042 260.119 40.9278C261.089 42.0751 262.172 43.1212 263.353 44.05Z" fill="white"/>
<path d="M230.488 93.4393C231.467 92.4167 232.409 91.3682 233.439 90.3869C234.079 89.7863 234.151 89.4006 233.47 88.7559C231.751 87.1275 230.105 85.4291 228.437 83.7437C228.083 83.3813 227.798 82.9489 227.474 82.5502C226.957 81.9159 226.993 81.3256 227.555 80.7198C228.116 80.114 228.743 80.1321 229.413 80.4946C230.149 80.8933 230.63 81.5742 231.213 82.1437C232.72 83.6169 234.229 85.0926 235.676 86.6252C236.272 87.2543 236.647 87.2207 237.214 86.6097C238.029 85.7294 238.936 84.932 239.803 84.0984C240.565 84.708 241.26 85.3981 241.874 86.1566C240.947 87.0498 240.044 87.9689 239.086 88.8258C238.581 89.2789 238.609 89.5663 239.086 90.0323C241.053 91.9533 242.987 93.9157 244.924 95.8574C245.514 96.4528 246.058 97.0897 245.509 97.9959C245.022 98.7933 244.393 99.1687 243.5 98.568C241.846 97.4548 240.652 95.8574 239.202 94.5189C238.229 93.6128 237.305 91.9584 236.329 91.93C235.215 91.9041 234.364 93.6309 233.367 94.5603C233.068 94.8649 232.786 95.1846 232.52 95.5182C231.765 94.9064 231.082 94.2087 230.488 93.4393Z" fill="#99A5A7"/>
<path d="M254.014 69.6832C257.918 65.8154 261.82 61.9449 265.719 58.0718C267.531 56.2596 269.325 54.3981 271.125 52.5574C271.883 53.1705 272.567 53.8709 273.162 54.6441C272.401 55.4518 271.655 56.2751 270.871 57.0621C266.299 61.6446 261.72 66.2227 257.134 70.7965C256.803 71.1279 256.438 71.4282 256.098 71.7415C255.33 71.134 254.631 70.4437 254.014 69.6832Z" fill="white"/>
<path d="M227.631 40.4204C227.066 40.4048 226.826 40.8734 226.502 41.1971C224.545 43.1362 222.585 45.0675 220.669 47.0455C220.107 47.6202 219.755 47.7367 219.139 47.0843C217.586 45.4248 215.952 43.8222 214.308 42.2456C213.79 41.7433 213.772 41.4689 214.308 40.9511C216.638 38.6573 218.906 36.3117 221.197 33.9868C223.457 36.0129 225.605 38.1606 227.631 40.4204Z" fill="#3E4546"/>
<path d="M219.152 31.882C216.822 34.2353 214.492 36.5783 212.198 38.955C211.681 39.4935 211.38 39.3097 210.956 38.8773C209.33 37.2178 207.701 35.5635 206.024 33.9583C205.493 33.4405 205.506 33.1816 206.024 32.6638C208.183 30.5668 210.293 28.4231 212.418 26.2924C212.597 26.1112 212.742 25.8989 212.905 25.7022L217.268 29.8315L219.152 31.882Z" fill="#3E4546"/>
<path d="M210.877 23.6077C208.547 25.9637 206.217 28.3118 203.913 30.6859C203.483 31.126 203.196 31.1286 202.761 30.6859C201.047 28.9341 199.313 27.2003 197.559 25.4847C197.114 25.0498 197.122 24.7624 197.559 24.3352C199.933 22.0259 202.282 19.6958 204.64 17.371L205.373 17.9405L210.877 23.6077Z" fill="#3E4546"/>
<path d="M202.543 15.3412C200.247 17.6013 197.927 19.8382 195.669 22.1372C195.076 22.7404 194.761 22.7352 194.188 22.1372C192.682 20.5424 191.141 18.9761 189.528 17.4771C188.78 16.7858 188.897 16.4001 189.567 15.7606C191.524 13.8862 193.42 11.9471 195.325 10.0209C195.646 9.69729 196.115 9.45652 196.102 8.89213C198.364 10.9231 200.515 13.076 202.543 15.3412Z" fill="#3E4546"/>


<path d="M74.7747 261.354C74.7747 278.396 60.4541 292.211 42.7887 292.211C25.1233 292.211 10.8027 278.396 10.8027 261.354C10.8027 244.312 25.1233 230.497 42.7887 230.497C60.4541 230.497 74.7747 244.312 74.7747 261.354ZM16.4474 261.354C16.4474 275.388 28.2408 286.766 42.7887 286.766C57.3366 286.766 69.1299 275.388 69.1299 261.354C69.1299 247.32 57.3366 235.942 42.7887 235.942C28.2408 235.942 16.4474 247.32 16.4474 261.354Z" fill="#2F90B0" fill-opacity="0.69"/>
<path d="M86 261.5C86 284.41 66.7482 302.982 43 302.982C19.2518 302.982 0 284.41 0 261.5C0 238.589 19.2518 220.017 43 220.017C66.7482 220.017 86 238.589 86 261.5ZM5.46471 261.5C5.46471 281.498 22.2698 297.71 43 297.71C63.7302 297.71 80.5353 281.498 80.5353 261.5C80.5353 241.501 63.7302 225.289 43 225.289C22.2698 225.289 5.46471 241.501 5.46471 261.5Z" fill="#2F90B0" fill-opacity="0.69"/>
<path fill-rule="evenodd" clip-rule="evenodd" d="M42.7905 286.763C28.2426 286.763 16.4492 275.386 16.4492 261.351C16.4492 247.317 28.2426 235.94 42.7905 235.94C57.3383 235.94 69.1317 247.317 69.1317 261.351C69.1317 275.386 57.3383 286.763 42.7905 286.763Z" fill="#2F90B0" fill-opacity="0.51"/>
<path fill-rule="evenodd" clip-rule="evenodd" d="M225.225 110.763L214.783 99.9997L23.0508 224.746C29.013 221.729 35.7998 220.022 42.9999 220.022C66.7482 220.022 85.9999 238.591 85.9999 261.497C85.9999 272.189 81.8054 281.936 74.9169 289.291L75.0683 289.447L225.225 110.763Z" fill="white" fill-opacity="0.26"/>
</svg>