<svg width="28" height="29" viewBox="0 0 28 29" fill="none" xmlns="http://www.w3.org/2000/svg">
<path d="M22.0417 20.8484L27.7523 26.7361L25.8657 28.6817L20.1563 22.7926C18.032 24.5488 15.3897 25.504 12.667 25.5C6.04299 25.5 0.666992 19.956 0.666992 13.125C0.666992 6.294 6.04299 0.75 12.667 0.75C19.291 0.75 24.667 6.294 24.667 13.125C24.6709 15.9328 23.7446 18.6576 22.0417 20.8484ZM19.367 19.8281C21.0591 18.0336 22.0041 15.6281 22.0003 13.125C22.0003 7.8065 17.823 3.5 12.667 3.5C7.50966 3.5 3.33366 7.8065 3.33366 13.125C3.33366 18.4421 7.50966 22.75 12.667 22.75C15.0942 22.7539 17.4268 21.7794 19.167 20.0344L19.367 19.8281ZM14.2377 7.867C13.8445 8.05015 13.5003 8.32893 13.2346 8.67943C12.9689 9.02992 12.7896 9.44167 12.7121 9.87933C12.6346 10.317 12.6613 10.7675 12.7898 11.1922C12.9183 11.6169 13.1448 12.0031 13.4498 12.3177C13.7549 12.6323 14.1294 12.8659 14.5412 12.9984C14.9531 13.1309 15.3899 13.1584 15.8143 13.0785C16.2387 12.9986 16.638 12.8137 16.9779 12.5397C17.3177 12.2657 17.5881 11.9107 17.7657 11.5052C18.1161 12.679 18.0754 13.9399 17.6503 15.0871C17.2251 16.2342 16.4399 17.2017 15.4197 17.8352C14.3995 18.4687 13.2031 18.7319 12.021 18.5829C10.8389 18.4338 9.73926 17.881 8.89718 17.0126C8.0551 16.1442 7.51907 15.0102 7.37452 13.7912C7.22996 12.5721 7.48519 11.3383 8.09953 10.2862C8.71387 9.23417 9.65199 8.4244 10.7644 7.98597C11.8768 7.54753 13.0995 7.50565 14.2377 7.867Z" fill="white"/>
</svg>
