<svg width="18" height="16" viewBox="0 0 18 16" fill="none" xmlns="http://www.w3.org/2000/svg">
<mask id="path-1-outside-1_7997_3922" maskUnits="userSpaceOnUse" x="0" y="0" width="18" height="16" fill="black">
<rect fill="white" width="18" height="16"/>
<path d="M16.8821 4.99647L16.3632 4.48027C16.2233 4.34106 15.9892 4.3312 15.8332 4.44824C15.6982 4.47657 15.432 4.37802 15.2116 4.15872C15.089 4.03676 14.8178 3.70535 14.9552 3.2717C15.006 3.11154 14.9664 2.94029 14.8525 2.82695C14.8203 2.79369 14.05 2.01015 13.2315 1.55185C12.7684 1.2919 12.2668 1.13791 11.7418 1.09356C10.7412 1.00732 9.43358 1.33872 8.24233 1.97812C8.13335 2.03602 8.0863 2.17154 8.13459 2.28488C8.17917 2.3896 8.29433 2.44873 8.40454 2.42533C8.49247 2.40685 10.5803 1.99537 11.5845 2.78999C11.6489 2.8405 11.6886 2.91689 11.6935 2.99697C11.6985 3.07704 11.6687 3.1522 11.6118 3.20887L10.7375 4.07864L8.28195 6.42803L6.13471 4.29178C6.38361 3.38874 6.131 2.42656 5.46231 1.76252C4.79609 1.09725 3.81659 0.842232 2.90642 1.09725C2.85813 1.1108 2.81974 1.149 2.80736 1.19827C2.79498 1.24632 2.8086 1.2993 2.84451 1.33379L4.19056 2.67295C4.50137 2.98218 4.50137 3.48606 4.19056 3.79529L3.80916 4.17474C3.65932 4.32381 3.45871 4.40635 3.24572 4.40635C3.03273 4.40635 2.83213 4.32381 2.68229 4.17474L1.335 2.83434C1.29909 2.79862 1.24708 2.78507 1.19879 2.79738C1.14926 2.8097 1.11087 2.8479 1.09725 2.89594C0.842153 3.80145 1.09725 4.77595 1.7647 5.43875C2.43215 6.10279 3.39927 6.35534 4.30696 6.10772L6.41829 8.20824L1.59257 12.8257C1.26566 13.1509 1.26566 13.6819 1.59257 14.0072L2.41853 14.8277C2.57703 14.9854 2.78755 15.0728 3.01168 15.0728C3.23582 15.0728 3.44633 14.9854 3.60731 14.8264L8.24604 10.0266L10.0936 11.8648C9.84471 12.7678 10.0986 13.73 10.766 14.394C11.2626 14.888 11.9313 15.1554 12.6161 15.1554C12.8513 15.1554 13.0891 15.1234 13.3219 15.0593C13.3702 15.0457 13.4086 15.0075 13.421 14.9583C13.4333 14.9102 13.421 14.8572 13.3838 14.8227L12.0378 13.4836C11.8879 13.3345 11.805 13.1349 11.805 12.923C11.805 12.7111 11.8879 12.5116 12.0378 12.3625L12.4192 11.983C12.569 11.834 12.7696 11.7514 12.9826 11.7514C13.1956 11.7514 13.3962 11.834 13.546 11.983L14.8921 13.3222C14.928 13.3579 14.98 13.3715 15.0283 13.3592C15.0778 13.3468 15.1162 13.3086 15.1298 13.2606C15.3849 12.3551 15.1298 11.3806 14.4624 10.7178C13.7949 10.0538 12.8278 9.80119 11.9201 10.0488L10.0366 8.17498L12.3932 5.73566C12.4266 5.70855 12.5715 5.58782 12.7944 5.36606C13.1498 5.01249 13.6525 5.19359 13.8952 5.43505C14.1912 5.7295 14.1912 5.92908 14.1862 6.08924C14.0723 6.2457 14.0847 6.46622 14.2271 6.6079L14.746 7.1241C14.8215 7.20048 14.923 7.24114 15.0308 7.24114C15.1385 7.24114 15.24 7.19925 15.3156 7.1241L16.8821 5.56565C17.0393 5.40918 17.0393 5.1554 16.8821 4.99893V4.99647ZM9.63791 8.17498L8.24109 9.62009L8.04419 9.8246L3.40423 14.6269C3.29897 14.7316 3.16028 14.7883 3.01168 14.7883C2.86308 14.7883 2.72439 14.7303 2.61914 14.6269L1.79442 13.8064C1.57771 13.5908 1.57771 13.2409 1.79194 13.0278L6.62137 8.40906L6.82693 8.21317L8.27947 6.8235L8.48503 6.62761L10.8378 4.37678L12.0972 5.62971L9.8348 7.97047L9.63791 8.17498ZM4.44937 5.849C4.42212 5.8219 4.38621 5.80711 4.34906 5.80711C4.33544 5.80711 4.32058 5.80958 4.30696 5.81327C3.47729 6.06952 2.58075 5.849 1.96778 5.23917C1.43283 4.70695 1.19383 3.95052 1.31767 3.21749L2.48044 4.37432C2.90271 4.79443 3.58874 4.79443 4.011 4.37432L4.3924 3.99487C4.81467 3.57476 4.81467 2.89225 4.3924 2.47214L3.22962 1.31531C3.96766 1.19335 4.72799 1.42989 5.26294 1.9621C5.8759 2.57193 6.09756 3.46389 5.83999 4.28931C5.8239 4.33982 5.83752 4.39403 5.8759 4.43099L8.07887 6.62268L6.62632 8.01236L4.45184 5.849H4.44937ZM11.7777 10.3051C11.8149 10.342 11.8706 10.3556 11.9201 10.3408C12.7498 10.0845 13.6463 10.3051 14.2593 10.9149C14.7943 11.4471 15.032 12.2036 14.9094 12.9378L13.7466 11.781C13.5436 11.5789 13.2711 11.4668 12.9814 11.4668C12.6916 11.4668 12.4192 11.5789 12.2161 11.781L11.8347 12.1604C11.6316 12.3637 11.5189 12.6335 11.5189 12.9218C11.5189 13.2101 11.6316 13.4811 11.8347 13.6832L12.9975 14.84C12.2594 14.962 11.4991 14.7254 10.9654 14.1932C10.3524 13.5834 10.1308 12.6914 10.3883 11.866C10.4044 11.8155 10.3908 11.7613 10.3524 11.7243L8.44169 9.82337L9.83851 8.37826L11.7777 10.3075V10.3051ZM14.0971 5.23301C13.8804 5.01741 13.577 4.8819 13.2724 4.8819C13.0321 4.8819 12.7919 4.9669 12.5938 5.16402C12.4712 5.28599 12.3721 5.37715 12.3052 5.43629L11.0422 4.17967L11.8149 3.41091C11.9288 3.29757 11.9882 3.14234 11.9796 2.98341C11.9709 2.82202 11.8916 2.67172 11.7641 2.5707C10.8663 1.85985 9.28499 2.00276 8.62744 2.10255C9.70106 1.5728 10.8403 1.30422 11.7195 1.37938C12.2049 1.42126 12.6668 1.56294 13.094 1.80318C13.8767 2.24176 14.6419 3.02161 14.6518 3.03023C14.6915 3.06965 14.7051 3.13125 14.6865 3.19039C14.5565 3.5994 14.6754 4.0269 15.0122 4.362C15.1818 4.53078 15.3825 4.65152 15.5707 4.70695L14.4525 5.81943C14.4166 5.65804 14.3249 5.46093 14.0983 5.23547L14.0971 5.23301ZM16.6802 5.3636L15.1137 6.92082C15.0692 6.96517 14.9911 6.96517 14.9466 6.92082L14.4277 6.40462C14.4054 6.38245 14.393 6.35288 14.393 6.32208C14.393 6.29128 14.4054 6.26048 14.4277 6.23831L15.9942 4.68108C16.0388 4.63673 16.1168 4.63673 16.1614 4.68108L16.6802 5.19728C16.726 5.24287 16.726 5.31802 16.6802 5.3636Z"/>
</mask>
<path d="M16.8821 4.99647L16.3632 4.48027C16.2233 4.34106 15.9892 4.3312 15.8332 4.44824C15.6982 4.47657 15.432 4.37802 15.2116 4.15872C15.089 4.03676 14.8178 3.70535 14.9552 3.2717C15.006 3.11154 14.9664 2.94029 14.8525 2.82695C14.8203 2.79369 14.05 2.01015 13.2315 1.55185C12.7684 1.2919 12.2668 1.13791 11.7418 1.09356C10.7412 1.00732 9.43358 1.33872 8.24233 1.97812C8.13335 2.03602 8.0863 2.17154 8.13459 2.28488C8.17917 2.3896 8.29433 2.44873 8.40454 2.42533C8.49247 2.40685 10.5803 1.99537 11.5845 2.78999C11.6489 2.8405 11.6886 2.91689 11.6935 2.99697C11.6985 3.07704 11.6687 3.1522 11.6118 3.20887L10.7375 4.07864L8.28195 6.42803L6.13471 4.29178C6.38361 3.38874 6.131 2.42656 5.46231 1.76252C4.79609 1.09725 3.81659 0.842232 2.90642 1.09725C2.85813 1.1108 2.81974 1.149 2.80736 1.19827C2.79498 1.24632 2.8086 1.2993 2.84451 1.33379L4.19056 2.67295C4.50137 2.98218 4.50137 3.48606 4.19056 3.79529L3.80916 4.17474C3.65932 4.32381 3.45871 4.40635 3.24572 4.40635C3.03273 4.40635 2.83213 4.32381 2.68229 4.17474L1.335 2.83434C1.29909 2.79862 1.24708 2.78507 1.19879 2.79738C1.14926 2.8097 1.11087 2.8479 1.09725 2.89594C0.842153 3.80145 1.09725 4.77595 1.7647 5.43875C2.43215 6.10279 3.39927 6.35534 4.30696 6.10772L6.41829 8.20824L1.59257 12.8257C1.26566 13.1509 1.26566 13.6819 1.59257 14.0072L2.41853 14.8277C2.57703 14.9854 2.78755 15.0728 3.01168 15.0728C3.23582 15.0728 3.44633 14.9854 3.60731 14.8264L8.24604 10.0266L10.0936 11.8648C9.84471 12.7678 10.0986 13.73 10.766 14.394C11.2626 14.888 11.9313 15.1554 12.6161 15.1554C12.8513 15.1554 13.0891 15.1234 13.3219 15.0593C13.3702 15.0457 13.4086 15.0075 13.421 14.9583C13.4333 14.9102 13.421 14.8572 13.3838 14.8227L12.0378 13.4836C11.8879 13.3345 11.805 13.1349 11.805 12.923C11.805 12.7111 11.8879 12.5116 12.0378 12.3625L12.4192 11.983C12.569 11.834 12.7696 11.7514 12.9826 11.7514C13.1956 11.7514 13.3962 11.834 13.546 11.983L14.8921 13.3222C14.928 13.3579 14.98 13.3715 15.0283 13.3592C15.0778 13.3468 15.1162 13.3086 15.1298 13.2606C15.3849 12.3551 15.1298 11.3806 14.4624 10.7178C13.7949 10.0538 12.8278 9.80119 11.9201 10.0488L10.0366 8.17498L12.3932 5.73566C12.4266 5.70855 12.5715 5.58782 12.7944 5.36606C13.1498 5.01249 13.6525 5.19359 13.8952 5.43505C14.1912 5.7295 14.1912 5.92908 14.1862 6.08924C14.0723 6.2457 14.0847 6.46622 14.2271 6.6079L14.746 7.1241C14.8215 7.20048 14.923 7.24114 15.0308 7.24114C15.1385 7.24114 15.24 7.19925 15.3156 7.1241L16.8821 5.56565C17.0393 5.40918 17.0393 5.1554 16.8821 4.99893V4.99647ZM9.63791 8.17498L8.24109 9.62009L8.04419 9.8246L3.40423 14.6269C3.29897 14.7316 3.16028 14.7883 3.01168 14.7883C2.86308 14.7883 2.72439 14.7303 2.61914 14.6269L1.79442 13.8064C1.57771 13.5908 1.57771 13.2409 1.79194 13.0278L6.62137 8.40906L6.82693 8.21317L8.27947 6.8235L8.48503 6.62761L10.8378 4.37678L12.0972 5.62971L9.8348 7.97047L9.63791 8.17498ZM4.44937 5.849C4.42212 5.8219 4.38621 5.80711 4.34906 5.80711C4.33544 5.80711 4.32058 5.80958 4.30696 5.81327C3.47729 6.06952 2.58075 5.849 1.96778 5.23917C1.43283 4.70695 1.19383 3.95052 1.31767 3.21749L2.48044 4.37432C2.90271 4.79443 3.58874 4.79443 4.011 4.37432L4.3924 3.99487C4.81467 3.57476 4.81467 2.89225 4.3924 2.47214L3.22962 1.31531C3.96766 1.19335 4.72799 1.42989 5.26294 1.9621C5.8759 2.57193 6.09756 3.46389 5.83999 4.28931C5.8239 4.33982 5.83752 4.39403 5.8759 4.43099L8.07887 6.62268L6.62632 8.01236L4.45184 5.849H4.44937ZM11.7777 10.3051C11.8149 10.342 11.8706 10.3556 11.9201 10.3408C12.7498 10.0845 13.6463 10.3051 14.2593 10.9149C14.7943 11.4471 15.032 12.2036 14.9094 12.9378L13.7466 11.781C13.5436 11.5789 13.2711 11.4668 12.9814 11.4668C12.6916 11.4668 12.4192 11.5789 12.2161 11.781L11.8347 12.1604C11.6316 12.3637 11.5189 12.6335 11.5189 12.9218C11.5189 13.2101 11.6316 13.4811 11.8347 13.6832L12.9975 14.84C12.2594 14.962 11.4991 14.7254 10.9654 14.1932C10.3524 13.5834 10.1308 12.6914 10.3883 11.866C10.4044 11.8155 10.3908 11.7613 10.3524 11.7243L8.44169 9.82337L9.83851 8.37826L11.7777 10.3075V10.3051ZM14.0971 5.23301C13.8804 5.01741 13.577 4.8819 13.2724 4.8819C13.0321 4.8819 12.7919 4.9669 12.5938 5.16402C12.4712 5.28599 12.3721 5.37715 12.3052 5.43629L11.0422 4.17967L11.8149 3.41091C11.9288 3.29757 11.9882 3.14234 11.9796 2.98341C11.9709 2.82202 11.8916 2.67172 11.7641 2.5707C10.8663 1.85985 9.28499 2.00276 8.62744 2.10255C9.70106 1.5728 10.8403 1.30422 11.7195 1.37938C12.2049 1.42126 12.6668 1.56294 13.094 1.80318C13.8767 2.24176 14.6419 3.02161 14.6518 3.03023C14.6915 3.06965 14.7051 3.13125 14.6865 3.19039C14.5565 3.5994 14.6754 4.0269 15.0122 4.362C15.1818 4.53078 15.3825 4.65152 15.5707 4.70695L14.4525 5.81943C14.4166 5.65804 14.3249 5.46093 14.0983 5.23547L14.0971 5.23301ZM16.6802 5.3636L15.1137 6.92082C15.0692 6.96517 14.9911 6.96517 14.9466 6.92082L14.4277 6.40462C14.4054 6.38245 14.393 6.35288 14.393 6.32208C14.393 6.29128 14.4054 6.26048 14.4277 6.23831L15.9942 4.68108C16.0388 4.63673 16.1168 4.63673 16.1614 4.68108L16.6802 5.19728C16.726 5.24287 16.726 5.31802 16.6802 5.3636Z" fill="#D9D9D9"/>
<path d="M16.8821 4.99647L16.3632 4.48027C16.2233 4.34106 15.9892 4.3312 15.8332 4.44824C15.6982 4.47657 15.432 4.37802 15.2116 4.15872C15.089 4.03676 14.8178 3.70535 14.9552 3.2717C15.006 3.11154 14.9664 2.94029 14.8525 2.82695C14.8203 2.79369 14.05 2.01015 13.2315 1.55185C12.7684 1.2919 12.2668 1.13791 11.7418 1.09356C10.7412 1.00732 9.43358 1.33872 8.24233 1.97812C8.13335 2.03602 8.0863 2.17154 8.13459 2.28488C8.17917 2.3896 8.29433 2.44873 8.40454 2.42533C8.49247 2.40685 10.5803 1.99537 11.5845 2.78999C11.6489 2.8405 11.6886 2.91689 11.6935 2.99697C11.6985 3.07704 11.6687 3.1522 11.6118 3.20887L10.7375 4.07864L8.28195 6.42803L6.13471 4.29178C6.38361 3.38874 6.131 2.42656 5.46231 1.76252C4.79609 1.09725 3.81659 0.842232 2.90642 1.09725C2.85813 1.1108 2.81974 1.149 2.80736 1.19827C2.79498 1.24632 2.8086 1.2993 2.84451 1.33379L4.19056 2.67295C4.50137 2.98218 4.50137 3.48606 4.19056 3.79529L3.80916 4.17474C3.65932 4.32381 3.45871 4.40635 3.24572 4.40635C3.03273 4.40635 2.83213 4.32381 2.68229 4.17474L1.335 2.83434C1.29909 2.79862 1.24708 2.78507 1.19879 2.79738C1.14926 2.8097 1.11087 2.8479 1.09725 2.89594C0.842153 3.80145 1.09725 4.77595 1.7647 5.43875C2.43215 6.10279 3.39927 6.35534 4.30696 6.10772L6.41829 8.20824L1.59257 12.8257C1.26566 13.1509 1.26566 13.6819 1.59257 14.0072L2.41853 14.8277C2.57703 14.9854 2.78755 15.0728 3.01168 15.0728C3.23582 15.0728 3.44633 14.9854 3.60731 14.8264L8.24604 10.0266L10.0936 11.8648C9.84471 12.7678 10.0986 13.73 10.766 14.394C11.2626 14.888 11.9313 15.1554 12.6161 15.1554C12.8513 15.1554 13.0891 15.1234 13.3219 15.0593C13.3702 15.0457 13.4086 15.0075 13.421 14.9583C13.4333 14.9102 13.421 14.8572 13.3838 14.8227L12.0378 13.4836C11.8879 13.3345 11.805 13.1349 11.805 12.923C11.805 12.7111 11.8879 12.5116 12.0378 12.3625L12.4192 11.983C12.569 11.834 12.7696 11.7514 12.9826 11.7514C13.1956 11.7514 13.3962 11.834 13.546 11.983L14.8921 13.3222C14.928 13.3579 14.98 13.3715 15.0283 13.3592C15.0778 13.3468 15.1162 13.3086 15.1298 13.2606C15.3849 12.3551 15.1298 11.3806 14.4624 10.7178C13.7949 10.0538 12.8278 9.80119 11.9201 10.0488L10.0366 8.17498L12.3932 5.73566C12.4266 5.70855 12.5715 5.58782 12.7944 5.36606C13.1498 5.01249 13.6525 5.19359 13.8952 5.43505C14.1912 5.7295 14.1912 5.92908 14.1862 6.08924C14.0723 6.2457 14.0847 6.46622 14.2271 6.6079L14.746 7.1241C14.8215 7.20048 14.923 7.24114 15.0308 7.24114C15.1385 7.24114 15.24 7.19925 15.3156 7.1241L16.8821 5.56565C17.0393 5.40918 17.0393 5.1554 16.8821 4.99893V4.99647ZM9.63791 8.17498L8.24109 9.62009L8.04419 9.8246L3.40423 14.6269C3.29897 14.7316 3.16028 14.7883 3.01168 14.7883C2.86308 14.7883 2.72439 14.7303 2.61914 14.6269L1.79442 13.8064C1.57771 13.5908 1.57771 13.2409 1.79194 13.0278L6.62137 8.40906L6.82693 8.21317L8.27947 6.8235L8.48503 6.62761L10.8378 4.37678L12.0972 5.62971L9.8348 7.97047L9.63791 8.17498ZM4.44937 5.849C4.42212 5.8219 4.38621 5.80711 4.34906 5.80711C4.33544 5.80711 4.32058 5.80958 4.30696 5.81327C3.47729 6.06952 2.58075 5.849 1.96778 5.23917C1.43283 4.70695 1.19383 3.95052 1.31767 3.21749L2.48044 4.37432C2.90271 4.79443 3.58874 4.79443 4.011 4.37432L4.3924 3.99487C4.81467 3.57476 4.81467 2.89225 4.3924 2.47214L3.22962 1.31531C3.96766 1.19335 4.72799 1.42989 5.26294 1.9621C5.8759 2.57193 6.09756 3.46389 5.83999 4.28931C5.8239 4.33982 5.83752 4.39403 5.8759 4.43099L8.07887 6.62268L6.62632 8.01236L4.45184 5.849H4.44937ZM11.7777 10.3051C11.8149 10.342 11.8706 10.3556 11.9201 10.3408C12.7498 10.0845 13.6463 10.3051 14.2593 10.9149C14.7943 11.4471 15.032 12.2036 14.9094 12.9378L13.7466 11.781C13.5436 11.5789 13.2711 11.4668 12.9814 11.4668C12.6916 11.4668 12.4192 11.5789 12.2161 11.781L11.8347 12.1604C11.6316 12.3637 11.5189 12.6335 11.5189 12.9218C11.5189 13.2101 11.6316 13.4811 11.8347 13.6832L12.9975 14.84C12.2594 14.962 11.4991 14.7254 10.9654 14.1932C10.3524 13.5834 10.1308 12.6914 10.3883 11.866C10.4044 11.8155 10.3908 11.7613 10.3524 11.7243L8.44169 9.82337L9.83851 8.37826L11.7777 10.3075V10.3051ZM14.0971 5.23301C13.8804 5.01741 13.577 4.8819 13.2724 4.8819C13.0321 4.8819 12.7919 4.9669 12.5938 5.16402C12.4712 5.28599 12.3721 5.37715 12.3052 5.43629L11.0422 4.17967L11.8149 3.41091C11.9288 3.29757 11.9882 3.14234 11.9796 2.98341C11.9709 2.82202 11.8916 2.67172 11.7641 2.5707C10.8663 1.85985 9.28499 2.00276 8.62744 2.10255C9.70106 1.5728 10.8403 1.30422 11.7195 1.37938C12.2049 1.42126 12.6668 1.56294 13.094 1.80318C13.8767 2.24176 14.6419 3.02161 14.6518 3.03023C14.6915 3.06965 14.7051 3.13125 14.6865 3.19039C14.5565 3.5994 14.6754 4.0269 15.0122 4.362C15.1818 4.53078 15.3825 4.65152 15.5707 4.70695L14.4525 5.81943C14.4166 5.65804 14.3249 5.46093 14.0983 5.23547L14.0971 5.23301ZM16.6802 5.3636L15.1137 6.92082C15.0692 6.96517 14.9911 6.96517 14.9466 6.92082L14.4277 6.40462C14.4054 6.38245 14.393 6.35288 14.393 6.32208C14.393 6.29128 14.4054 6.26048 14.4277 6.23831L15.9942 4.68108C16.0388 4.63673 16.1168 4.63673 16.1614 4.68108L16.6802 5.19728C16.726 5.24287 16.726 5.31802 16.6802 5.3636Z" stroke="#D9D9D9" stroke-width="0.6" mask="url(#path-1-outside-1_7997_3922)"/>
</svg>
