<svg width="26" height="31" viewBox="0 0 26 31" fill="none" xmlns="http://www.w3.org/2000/svg">
<path d="M17.7988 13.8437C17.7988 16.7564 15.4376 19.1176 12.5249 19.1176C9.61218 19.1176 7.25098 16.7564 7.25098 13.8437C7.25098 10.931 9.61218 8.56982 12.5249 8.56982C15.4376 8.56982 17.7988 10.931 17.7988 13.8437ZM9.78427 13.8437C9.78427 15.3573 11.0113 16.5843 12.5249 16.5843C14.0385 16.5843 15.2655 15.3573 15.2655 13.8437C15.2655 12.3301 14.0385 11.1031 12.5249 11.1031C11.0113 11.1031 9.78427 12.3301 9.78427 13.8437Z" fill="#2F90B0"/>
<path d="M24.5463 3.97025L13.0401 0.0707169C12.9013 0.0235723 12.7151 0 12.5288 0C12.3426 0 12.1563 0.0235723 12.0175 0.0707169L0.511311 3.97025C0.230259 4.06454 0 4.38782 0 4.68416V20.9289C0 21.2252 0.193012 21.6158 0.426657 21.801L12.0988 30.8461C12.2173 30.937 12.3697 30.9841 12.5254 30.9841C12.6812 30.9841 12.837 30.937 12.9521 30.8461L24.6242 21.801C24.8578 21.6192 25.0509 21.2286 25.0509 20.9289V4.68416C25.0576 4.38782 24.8274 4.06791 24.5463 3.97025ZM22.6196 20.2823L12.5288 28.1016L2.43804 20.2823V5.88298L12.5288 2.46162L22.6196 5.88298V20.2823Z" fill="white"/>
</svg>
