<svg width="73" height="71" viewBox="0 0 73 71" fill="none" xmlns="http://www.w3.org/2000/svg">
<g filter="url(#filter0_d_121_3)">
<rect x="5" y="1" width="63" height="60.5769" rx="10" fill="#0A2342"/>
</g>
<path d="M42.383 29.2979C42.383 32.3061 39.9444 34.7447 36.9362 34.7447C33.928 34.7447 31.4894 32.3061 31.4894 29.2979C31.4894 26.2897 33.928 23.8511 36.9362 23.8511C39.9444 23.8511 42.383 26.2897 42.383 29.2979ZM34.1057 29.2979C34.1057 30.8611 35.373 32.1283 36.9362 32.1283C38.4994 32.1283 39.7666 30.8611 39.7666 29.2979C39.7666 27.7347 38.4994 26.4674 36.9362 26.4674C35.373 26.4674 34.1057 27.7347 34.1057 29.2979Z" fill="#2F90B0"/>
<path d="M49.3511 19.1004L37.4677 15.073C37.3243 15.0243 37.1319 15 36.9396 15C36.7472 15 36.5549 15.0243 36.4115 15.073L24.5281 19.1004C24.2378 19.1978 24 19.5317 24 19.8377V36.615C24 36.9211 24.1993 37.3245 24.4406 37.5158L36.4954 46.8574C36.6179 46.9513 36.7752 47 36.9361 47C37.097 47 37.2578 46.9513 37.3767 46.8574L49.4315 37.5158C49.6729 37.328 49.8722 36.9246 49.8722 36.615V19.8377C49.8792 19.5317 49.6414 19.2013 49.3511 19.1004ZM47.3612 35.9473L36.9396 44.0229L26.518 35.9473V21.0759L36.9396 17.5423L47.3612 21.0759V35.9473Z" fill="white"/>
<defs>
<filter id="filter0_d_121_3" x="0" y="0" width="73" height="70.5769" filterUnits="userSpaceOnUse" color-interpolation-filters="sRGB">
<feFlood flood-opacity="0" result="BackgroundImageFix"/>
<feColorMatrix in="SourceAlpha" type="matrix" values="0 0 0 0 0 0 0 0 0 0 0 0 0 0 0 0 0 0 127 0" result="hardAlpha"/>
<feOffset dy="4"/>
<feGaussianBlur stdDeviation="2.5"/>
<feComposite in2="hardAlpha" operator="out"/>
<feColorMatrix type="matrix" values="0 0 0 0 0 0 0 0 0 0 0 0 0 0 0 0 0 0 0.19 0"/>
<feBlend mode="normal" in2="BackgroundImageFix" result="effect1_dropShadow_121_3"/>
<feBlend mode="normal" in="SourceGraphic" in2="effect1_dropShadow_121_3" result="shape"/>
</filter>
</defs>
</svg>
