<svg width="20" height="21" viewBox="0 0 20 21" fill="none" xmlns="http://www.w3.org/2000/svg">
<path d="M15.5565 15.5826L17.4065 14.6562V12.3359M11.8482 8.16273L9.99818 9.08917L11.8482 8.16273ZM9.99818 9.08917L8.14818 8.16273L9.99818 9.08917ZM9.99818 9.08917V11.4095V9.08917ZM17.4065 5.37504L15.5565 6.30149L17.4065 5.37504ZM17.4065 5.37504L15.5565 4.44859L17.4065 5.37504ZM17.4065 5.37504V7.69533V5.37504ZM11.8482 2.5957L9.99818 1.66925L8.14818 2.5957H11.8482ZM2.58984 5.37504L4.43984 4.44859L2.58984 5.37504ZM2.58984 5.37504L4.43984 6.30149L2.58984 5.37504ZM2.58984 5.37504V7.69533V5.37504ZM9.99818 18.362L8.14818 17.4355L9.99818 18.362ZM9.99818 18.362L11.8482 17.4355L9.99818 18.362ZM9.99818 18.362V16.0417V18.362ZM4.43984 15.5826L2.58984 14.6562V12.3359L4.43984 15.5826Z" stroke="#4D4D70" stroke-width="1.4" stroke-linecap="round" stroke-linejoin="round"/>
</svg>
