<svg width="49" height="50" viewBox="0 0 49 50" fill="none" xmlns="http://www.w3.org/2000/svg">
<path d="M38.114 38.3478L42.6465 36.078V30.3933M29.0286 20.1689L24.4961 22.4387L29.0286 20.1689ZM24.4961 22.4387L19.9636 20.1689L24.4961 22.4387ZM24.4961 22.4387V28.1235V22.4387ZM42.6465 13.3391L38.114 15.6089L42.6465 13.3391ZM42.6465 13.3391L38.114 11.0693L42.6465 13.3391ZM42.6465 13.3391V19.0238V13.3391ZM29.0286 6.52973L24.4961 4.25994L19.9636 6.52973H29.0286ZM6.3457 13.3391L10.8782 11.0693L6.3457 13.3391ZM6.3457 13.3391L10.8782 15.6089L6.3457 13.3391ZM6.3457 13.3391V19.0238V13.3391ZM24.4961 45.1571L19.9636 42.8873L24.4961 45.1571ZM24.4961 45.1571L29.0286 42.8873L24.4961 45.1571ZM24.4961 45.1571V39.4724V45.1571ZM10.8782 38.3478L6.3457 36.078V30.3933L10.8782 38.3478Z" stroke="white" stroke-width="2" stroke-linecap="round" stroke-linejoin="round"/>
</svg>
