<svg width="17" height="17" viewBox="0 0 17 17" fill="none" xmlns="http://www.w3.org/2000/svg">
<g clip-path="url(#clip0_8440_38024)">
<path d="M14.5819 0H2.30241C1.03082 0 0 1.03082 0 2.30241V14.5819C0 15.8535 1.03082 16.8843 2.30241 16.8843H14.5819C15.8535 16.8843 16.8843 15.8535 16.8843 14.5819V2.30241C16.8843 1.03082 15.8535 0 14.5819 0Z" fill="#9897B0"/>
</g>
<path d="M2.14036 2.1106L7.05738 8.685L2.10938 14.0303H3.22306L7.55513 9.3503L11.0552 14.0303H14.8449L9.65107 7.08617L14.2567 2.1106H13.143L9.15353 6.42065L5.93002 2.1106H2.14036ZM3.77809 2.93085H5.51904L13.2069 13.2101H11.466L3.77809 2.93085Z" fill="#F2F2F5"/>
<defs>
<clipPath id="clip0_8440_38024">
<rect width="16.8843" height="16.8843" fill="white"/>
</clipPath>
</defs>
</svg>
