<svg width="57" height="31" viewBox="0 0 57 31" fill="none" xmlns="http://www.w3.org/2000/svg">
<path d="M15.3182 30.6364C11.0631 30.6364 7.44634 29.1471 4.4678 26.1686C1.48927 23.19 0 19.5732 0 15.3182C0 11.0631 1.48927 7.44634 4.4678 4.4678C7.44634 1.48927 11.0631 0 15.3182 0C18.1265 0 20.7008 0.702083 23.0411 2.10625C25.3814 3.51042 27.2323 5.36136 28.5939 7.65909H51.0606C52.4648 7.65909 53.6672 8.15863 54.668 9.15772C55.6671 10.1585 56.1667 11.361 56.1667 12.7652V17.8712C56.1667 19.2754 55.6671 20.477 54.668 21.4761C53.6672 22.4769 52.4648 22.9773 51.0606 22.9773V25.5303C51.0606 26.9345 50.5611 28.1369 49.562 29.1377C48.5612 30.1368 47.3587 30.6364 45.9545 30.6364H40.8485C39.4443 30.6364 38.2427 30.1368 37.2436 29.1377C36.2428 28.1369 35.7424 26.9345 35.7424 25.5303V22.9773H28.5939C27.2323 25.275 25.3814 27.1259 23.0411 28.5301C20.7008 29.9343 18.1265 30.6364 15.3182 30.6364ZM15.3182 25.5303C18.1265 25.5303 20.3817 24.6691 22.0837 22.9466C23.7857 21.2225 24.8069 19.5307 25.1473 17.8712H40.8485V25.5303H45.9545V17.8712H51.0606V12.7652H25.1473C24.8069 11.1057 23.7857 9.41387 22.0837 7.68973C20.3817 5.96728 18.1265 5.10606 15.3182 5.10606C12.5098 5.10606 10.1057 6.106 8.10587 8.10587C6.106 10.1057 5.10606 12.5098 5.10606 15.3182C5.10606 18.1265 6.106 20.5306 8.10587 22.5305C10.1057 24.5304 12.5098 25.5303 15.3182 25.5303ZM15.3182 20.4242C16.7223 20.4242 17.924 19.9238 18.9231 18.9231C19.9238 17.924 20.4242 16.7223 20.4242 15.3182C20.4242 13.914 19.9238 12.7115 18.9231 11.7107C17.924 10.7117 16.7223 10.2121 15.3182 10.2121C13.914 10.2121 12.7124 10.7117 11.7133 11.7107C10.7125 12.7115 10.2121 13.914 10.2121 15.3182C10.2121 16.7223 10.7125 17.924 11.7133 18.9231C12.7124 19.9238 13.914 20.4242 15.3182 20.4242Z" fill="white"/>
<rect x="10.212" y="10.212" width="10.2121" height="10.2121" rx="5.10606" fill="#2F90B0"/>
</svg>
