<svg width="49" height="50" viewBox="0 0 49 50" fill="none" xmlns="http://www.w3.org/2000/svg">
<path d="M21.4198 4.88982L11.2319 8.73416C8.88401 9.61345 6.96484 12.3945 6.96484 14.8892V30.0825C6.96484 32.4954 8.55734 35.665 10.4969 37.1168L19.2761 43.6808C22.1548 45.8484 26.8915 45.8484 29.7703 43.6808L38.5494 37.1168C40.489 35.665 42.0815 32.4954 42.0815 30.0825V14.8892C42.0815 12.374 40.1623 9.593 37.8144 8.71371L27.6265 4.88982C25.8911 4.25591 23.1144 4.25591 21.4198 4.88982Z" stroke="white" stroke-width="2" stroke-linecap="round" stroke-linejoin="round"/>
<path d="M24.4974 25.8905C26.7526 25.8905 28.5807 24.0595 28.5807 21.8008C28.5807 19.5421 26.7526 17.7111 24.4974 17.7111C22.2422 17.7111 20.4141 19.5421 20.4141 21.8008C20.4141 24.0595 22.2422 25.8905 24.4974 25.8905Z" stroke="white" stroke-width="2" stroke-miterlimit="10" stroke-linecap="round" stroke-linejoin="round"/>
<path d="M24.5 25.8906V32.0251" stroke="white" stroke-width="2" stroke-miterlimit="10" stroke-linecap="round" stroke-linejoin="round"/>
</svg>
