<svg width="21" height="22" viewBox="0 0 21 22" fill="none" xmlns="http://www.w3.org/2000/svg">
<path d="M9.17938 1.95644L4.81313 3.60401C3.80688 3.98085 2.98438 5.17272 2.98438 6.24189V12.7533C2.98438 13.7874 3.66687 15.1458 4.49812 15.768L8.26063 18.5812C9.49438 19.5101 11.5244 19.5101 12.7581 18.5812L16.5206 15.768C17.3519 15.1458 18.0344 13.7874 18.0344 12.7533V6.24189C18.0344 5.16395 17.2119 3.97209 16.2056 3.59525L11.8394 1.95644C11.0956 1.68477 9.90563 1.68477 9.17938 1.95644Z" stroke="#4D4D70" stroke-width="1.4" stroke-linecap="round" stroke-linejoin="round"/>
<path d="M10.498 10.9568C11.4645 10.9568 12.248 10.172 12.248 9.20403C12.248 8.23602 11.4645 7.45129 10.498 7.45129C9.53155 7.45129 8.74805 8.23602 8.74805 9.20403C8.74805 10.172 9.53155 10.9568 10.498 10.9568Z" stroke="#4D4D70" stroke-width="1.4" stroke-miterlimit="10" stroke-linecap="round" stroke-linejoin="round"/>
<path d="M10.5 10.9568V13.5859" stroke="#4D4D70" stroke-width="1.4" stroke-miterlimit="10" stroke-linecap="round" stroke-linejoin="round"/>
</svg>
