<svg width="20" height="21" viewBox="0 0 20 21" fill="none" xmlns="http://www.w3.org/2000/svg">
<path d="M9.99935 18.362C14.6017 18.362 18.3327 14.6252 18.3327 10.0157C18.3327 5.40608 14.6017 1.66928 9.99935 1.66928C5.39698 1.66928 1.66602 5.40608 1.66602 10.0157C1.66602 14.6252 5.39698 18.362 9.99935 18.362Z" stroke="#6E6E6E" stroke-width="1.5" stroke-linecap="round" stroke-linejoin="round"/>
<path d="M6.66667 2.50391H7.5C5.875 7.37819 5.875 12.6531 7.5 17.5274H6.66667" stroke="#6E6E6E" stroke-width="1.5" stroke-linecap="round" stroke-linejoin="round"/>
<path d="M12.5 2.50391C14.125 7.37819 14.125 12.6531 12.5 17.5274" stroke="#6E6E6E" stroke-width="1.5" stroke-linecap="round" stroke-linejoin="round"/>
<path d="M2.5 13.3542V12.5196C7.36667 14.1471 12.6333 14.1471 17.5 12.5196V13.3542" stroke="#6E6E6E" stroke-width="1.5" stroke-linecap="round" stroke-linejoin="round"/>
<path d="M2.5 7.51176C7.36667 5.88422 12.6333 5.88422 17.5 7.51176" stroke="#6E6E6E" stroke-width="1.5" stroke-linecap="round" stroke-linejoin="round"/>
</svg>
