<svg width="49" height="50" viewBox="0 0 49 50" fill="none" xmlns="http://www.w3.org/2000/svg">
<path d="M44.9212 25.2299C44.9212 13.9422 35.7746 4.78125 24.5046 4.78125C13.2346 4.78125 4.08789 13.9422 4.08789 25.2299C4.08789 36.5175 13.2346 45.6785 24.5046 45.6785" stroke="white" stroke-width="2" stroke-linecap="round" stroke-linejoin="round"/>
<path d="M16.3349 6.82605H18.3766C14.3953 18.768 14.3953 31.6916 18.3766 43.6335H16.3349" stroke="white" stroke-width="2" stroke-linecap="round" stroke-linejoin="round"/>
<path d="M30.625 6.82605C32.6054 12.797 33.6058 19.0134 33.6058 25.2298" stroke="white" stroke-width="2" stroke-linecap="round" stroke-linejoin="round"/>
<path d="M6.125 33.4092V31.3644C12.0867 33.3479 18.2933 34.3499 24.5 34.3499" stroke="white" stroke-width="2" stroke-linecap="round" stroke-linejoin="round"/>
<path d="M6.125 19.0952C18.0483 15.1077 30.9517 15.1077 42.875 19.0952" stroke="white" stroke-width="2" stroke-linecap="round" stroke-linejoin="round"/>
<path d="M37.1583 44.4515C40.7666 44.4515 43.6917 41.5219 43.6917 37.908C43.6917 34.2941 40.7666 31.3644 37.1583 31.3644C33.5501 31.3644 30.625 34.2941 30.625 37.908C30.625 41.5219 33.5501 44.4515 37.1583 44.4515Z" stroke="white" stroke-width="2" stroke-linecap="round" stroke-linejoin="round"/>
<path d="M44.9167 45.6784L42.875 43.6335" stroke="white" stroke-width="2" stroke-linecap="round" stroke-linejoin="round"/>
</svg>
